{"glyphs":{"0":{"ha":910,"x_min":79,"x_max":829,"o":"m 454 -6 q 259 55 344 -6 q 126 227 174 115 q 79 486 79 339 q 126 745 79 633 q 259 917 174 857 q 454 978 344 978 q 650 917 565 978 q 782 745 735 857 q 829 486 829 633 q 782 227 829 339 q 650 55 735 115 q 454 -6 565 -6 m 454 38 q 626 92 551 38 q 742 247 701 146 q 783 486 783 349 q 742 725 783 624 q 626 881 701 826 q 454 935 551 935 q 283 881 357 935 q 167 725 208 826 q 126 486 126 624 q 167 247 126 349 q 283 92 208 146 q 454 38 357 38 z "},"1":{"ha":482,"x_min":14,"x_max":304,"o":"m 304 972 l 304 0 l 258 0 l 258 929 l 14 929 l 14 972 l 304 972 z "},"2":{"ha":775,"x_min":36,"x_max":717,"o":"m 717 43 l 717 0 l 58 0 l 58 33 l 475 453 q 590 598 560 538 q 619 722 619 658 q 552 878 619 821 q 360 935 485 935 q 191 906 263 935 q 68 818 119 878 l 36 849 q 361 978 149 978 q 583 910 501 978 q 665 725 665 842 q 632 583 665 651 q 508 425 599 515 l 129 43 l 717 43 z "},"3":{"ha":767,"x_min":24,"x_max":689,"o":"m 349 543 q 602 469 515 543 q 689 269 689 396 q 603 70 689 146 q 361 -6 518 -6 q 163 31 254 -6 q 24 129 71 68 l 49 163 q 176 72 93 107 q 360 38 258 38 q 570 100 497 38 q 643 269 643 163 q 568 440 643 379 q 343 501 493 501 l 289 501 l 289 535 l 592 929 l 56 929 l 56 972 l 653 972 l 653 939 l 349 543 z "},"4":{"ha":900,"x_min":63,"x_max":878,"o":"m 878 281 l 667 281 l 667 0 l 621 0 l 621 281 l 63 281 l 63 314 l 600 972 l 654 972 l 124 322 l 621 322 l 621 569 l 667 569 l 667 322 l 878 322 l 878 281 z "},"5":{"ha":767,"x_min":40,"x_max":707,"o":"m 303 557 q 612 484 517 557 q 707 275 707 411 q 669 131 707 194 q 558 31 632 67 q 376 -6 483 -6 q 179 32 271 -6 q 40 129 88 69 l 67 163 q 193 72 110 107 q 376 38 276 38 q 587 103 514 38 q 660 275 660 168 q 576 453 660 393 q 293 514 493 514 l 104 514 l 156 972 l 657 972 l 657 929 l 194 929 l 153 557 l 303 557 z "},"6":{"ha":828,"x_min":79,"x_max":779,"o":"m 457 568 q 626 533 553 568 q 740 434 700 499 q 779 283 779 369 q 739 132 779 197 q 626 31 699 67 q 464 -6 554 -6 q 178 124 276 -6 q 79 483 79 253 q 132 755 79 644 q 279 922 185 865 q 501 978 374 978 q 714 929 635 978 l 693 892 q 501 935 625 935 q 227 821 328 935 q 126 490 126 707 q 140 343 126 413 q 251 508 165 449 q 457 568 338 568 m 463 36 q 658 103 583 36 q 733 282 733 171 q 658 461 733 394 q 453 528 582 528 q 305 495 369 528 q 204 406 240 463 q 168 279 168 349 q 202 162 168 218 q 303 71 236 106 q 463 36 369 36 z "},"7":{"ha":799,"x_min":49,"x_max":733,"o":"m 733 972 l 733 939 l 306 0 l 254 0 l 679 929 l 94 929 l 94 738 l 49 738 l 49 972 l 733 972 z "},"8":{"ha":871,"x_min":74,"x_max":797,"o":"m 567 508 q 737 421 676 485 q 797 264 797 357 q 701 67 797 139 q 435 -6 604 -6 q 169 67 265 -6 q 74 264 74 139 q 133 422 74 358 q 303 508 192 485 q 159 589 210 531 q 108 731 108 647 q 197 911 108 844 q 435 978 285 978 q 674 911 585 978 q 763 731 763 844 q 712 589 763 647 q 567 508 661 531 m 156 731 q 229 583 156 638 q 435 528 303 528 q 642 583 567 528 q 717 731 717 638 q 640 881 717 825 q 435 936 564 936 q 231 881 306 936 q 156 731 156 825 m 435 36 q 667 97 583 36 q 751 263 751 158 q 667 427 751 367 q 435 488 583 488 q 203 427 286 488 q 121 263 121 367 q 203 97 121 157 q 435 36 286 36 z "},"9":{"ha":828,"x_min":49,"x_max":749,"o":"m 365 978 q 651 849 553 978 q 749 489 749 719 q 697 217 749 328 q 550 51 644 107 q 328 -6 456 -6 q 114 43 193 -6 l 135 81 q 326 38 203 38 q 601 151 501 38 q 701 482 701 265 q 688 632 701 568 q 577 465 664 525 q 371 404 490 404 q 201 439 275 404 q 88 538 128 474 q 49 689 49 603 q 90 840 49 775 q 202 942 131 906 q 365 978 274 978 m 375 444 q 524 477 458 444 q 625 567 589 510 q 661 693 661 624 q 627 810 661 754 q 526 901 593 867 q 365 936 458 936 q 170 869 244 936 q 96 690 96 801 q 171 511 96 578 q 375 444 246 444 z "},"\u0000":{"ha":0,"x_min":0,"x_max":0,"o":""},"\r":{"ha":351,"x_min":0,"x_max":0,"o":""}," ":{"ha":351,"x_min":0,"x_max":0,"o":""},"A":{"ha":967,"x_min":10,"x_max":956,"o":"m 774 285 l 192 285 l 61 0 l 10 0 l 460 972 l 506 972 l 956 0 l 904 0 l 774 285 m 756 325 l 483 918 l 210 325 l 756 325 z "},"Á":{"ha":967,"x_min":10,"x_max":956,"o":"m 774 285 l 192 285 l 61 0 l 10 0 l 460 972 l 506 972 l 956 0 l 904 0 l 774 285 m 756 325 l 483 918 l 210 325 l 756 325 m 607 1208 l 682 1208 l 469 1051 l 414 1051 l 607 1208 z "},"Ă":{"ha":967,"x_min":10,"x_max":956,"o":"m 774 285 l 192 285 l 61 0 l 10 0 l 460 972 l 506 972 l 956 0 l 904 0 l 774 285 m 756 325 l 483 918 l 210 325 l 756 325 m 483 1047 q 349 1091 403 1047 q 293 1208 294 1135 l 331 1208 q 376 1117 332 1151 q 483 1082 419 1082 q 591 1117 547 1082 q 636 1208 635 1151 l 674 1208 q 618 1091 672 1135 q 483 1047 564 1047 z "},"Ắ":{"ha":967,"x_min":10,"x_max":956,"o":"m 774 285 l 192 285 l 61 0 l 10 0 l 460 972 l 506 972 l 956 0 l 904 0 l 774 285 m 756 325 l 483 918 l 210 325 l 756 325 m 483 1047 q 354 1078 406 1047 q 293 1167 303 1110 l 331 1167 q 379 1103 339 1125 q 483 1081 419 1081 q 588 1103 547 1081 q 636 1167 628 1125 l 674 1167 q 613 1078 664 1110 q 483 1047 561 1047 m 589 1331 l 661 1331 l 468 1189 l 415 1189 l 589 1331 z "},"Ặ":{"ha":967,"x_min":10,"x_max":956,"o":"m 774 285 l 192 285 l 61 0 l 10 0 l 460 972 l 506 972 l 956 0 l 904 0 l 774 285 m 756 325 l 483 918 l 210 325 l 756 325 m 483 -249 q 454 -237 467 -249 q 442 -207 442 -225 q 454 -178 442 -190 q 483 -165 467 -165 q 513 -178 500 -165 q 525 -207 525 -190 q 513 -237 525 -225 q 483 -249 500 -249 m 483 1047 q 349 1091 403 1047 q 293 1208 294 1135 l 331 1208 q 376 1117 332 1151 q 483 1082 419 1082 q 591 1117 547 1082 q 636 1208 635 1151 l 674 1208 q 618 1091 672 1135 q 483 1047 564 1047 z "},"Ằ":{"ha":967,"x_min":10,"x_max":956,"o":"m 774 285 l 192 285 l 61 0 l 10 0 l 460 972 l 506 972 l 956 0 l 904 0 l 774 285 m 756 325 l 483 918 l 210 325 l 756 325 m 483 1047 q 354 1078 406 1047 q 293 1167 303 1110 l 331 1167 q 379 1103 339 1125 q 483 1081 419 1081 q 588 1103 547 1081 q 636 1167 628 1125 l 674 1167 q 613 1078 664 1110 q 483 1047 561 1047 m 306 1331 l 378 1331 l 551 1189 l 499 1189 l 306 1331 z "},"Ẳ":{"ha":967,"x_min":10,"x_max":956,"o":"m 774 285 l 192 285 l 61 0 l 10 0 l 460 972 l 506 972 l 956 0 l 904 0 l 774 285 m 756 325 l 483 918 l 210 325 l 756 325 m 483 1047 q 354 1078 406 1047 q 293 1167 303 1110 l 331 1167 q 379 1103 339 1125 q 483 1081 419 1081 q 588 1103 547 1081 q 636 1167 628 1125 l 674 1167 q 613 1078 664 1110 q 483 1047 561 1047 m 472 1179 q 518 1213 501 1193 q 535 1254 535 1232 q 519 1290 535 1276 q 476 1304 503 1304 q 417 1286 444 1304 l 404 1313 q 481 1336 435 1336 q 544 1314 521 1336 q 568 1256 568 1292 q 548 1197 568 1224 q 490 1154 528 1171 l 472 1179 z "},"Ẵ":{"ha":967,"x_min":10,"x_max":956,"o":"m 774 285 l 192 285 l 61 0 l 10 0 l 460 972 l 506 972 l 956 0 l 904 0 l 774 285 m 756 325 l 483 918 l 210 325 l 756 325 m 483 1047 q 354 1078 406 1047 q 293 1167 303 1110 l 331 1167 q 379 1103 339 1125 q 483 1081 419 1081 q 588 1103 547 1081 q 636 1167 628 1125 l 674 1167 q 613 1078 664 1110 q 483 1047 561 1047 m 571 1207 q 521 1218 543 1207 q 472 1249 499 1229 q 430 1274 444 1267 q 397 1282 415 1282 q 346 1263 365 1282 q 325 1211 326 1244 l 290 1211 q 321 1288 292 1260 q 397 1317 350 1317 q 445 1306 424 1317 q 494 1275 467 1296 q 537 1249 522 1257 q 569 1242 551 1242 q 622 1260 601 1242 q 643 1311 642 1278 l 676 1311 q 647 1235 675 1264 q 571 1207 618 1207 z "},"Ǎ":{"ha":967,"x_min":10,"x_max":956,"o":"m 774 285 l 192 285 l 61 0 l 10 0 l 460 972 l 506 972 l 956 0 l 904 0 l 774 285 m 756 325 l 483 918 l 210 325 l 756 325 m 685 1208 l 513 1051 l 454 1051 l 282 1208 l 333 1208 l 483 1083 l 633 1208 l 685 1208 z "},"Â":{"ha":967,"x_min":10,"x_max":956,"o":"m 774 285 l 192 285 l 61 0 l 10 0 l 460 972 l 506 972 l 956 0 l 904 0 l 774 285 m 756 325 l 483 918 l 210 325 l 756 325 m 633 1051 l 483 1176 l 333 1051 l 282 1051 l 454 1208 l 513 1208 l 685 1051 l 633 1051 z "},"Ấ":{"ha":967,"x_min":10,"x_max":956,"o":"m 774 285 l 192 285 l 61 0 l 10 0 l 460 972 l 506 972 l 956 0 l 904 0 l 774 285 m 756 325 l 483 918 l 210 325 l 756 325 m 629 1051 l 483 1138 l 338 1051 l 282 1051 l 456 1167 l 511 1167 l 685 1051 l 629 1051 m 767 1300 l 839 1300 l 646 1158 l 593 1158 l 767 1300 z "},"Ậ":{"ha":967,"x_min":10,"x_max":956,"o":"m 774 285 l 192 285 l 61 0 l 10 0 l 460 972 l 506 972 l 956 0 l 904 0 l 774 285 m 756 325 l 483 918 l 210 325 l 756 325 m 483 -249 q 454 -237 467 -249 q 442 -207 442 -225 q 454 -178 442 -190 q 483 -165 467 -165 q 513 -178 500 -165 q 525 -207 525 -190 q 513 -237 525 -225 q 483 -249 500 -249 m 633 1051 l 483 1176 l 333 1051 l 282 1051 l 454 1208 l 513 1208 l 685 1051 l 633 1051 z "},"Ầ":{"ha":967,"x_min":10,"x_max":956,"o":"m 774 285 l 192 285 l 61 0 l 10 0 l 460 972 l 506 972 l 956 0 l 904 0 l 774 285 m 756 325 l 483 918 l 210 325 l 756 325 m 629 1051 l 483 1138 l 338 1051 l 282 1051 l 456 1167 l 511 1167 l 685 1051 l 629 1051 m 483 1300 l 556 1300 l 729 1158 l 676 1158 l 483 1300 z "},"Ẩ":{"ha":967,"x_min":10,"x_max":956,"o":"m 774 285 l 192 285 l 61 0 l 10 0 l 460 972 l 506 972 l 956 0 l 904 0 l 774 285 m 756 325 l 483 918 l 210 325 l 756 325 m 629 1051 l 483 1138 l 338 1051 l 282 1051 l 456 1167 l 511 1167 l 685 1051 l 629 1051 m 618 1163 q 664 1196 647 1176 q 681 1238 681 1215 q 665 1274 681 1260 q 622 1288 649 1288 q 563 1269 590 1288 l 550 1296 q 626 1319 581 1319 q 690 1297 667 1319 q 714 1239 714 1275 q 694 1181 714 1207 q 636 1138 674 1154 l 618 1163 z "},"Ẫ":{"ha":967,"x_min":10,"x_max":956,"o":"m 774 285 l 192 285 l 61 0 l 10 0 l 460 972 l 506 972 l 956 0 l 904 0 l 774 285 m 756 325 l 483 918 l 210 325 l 756 325 m 629 1051 l 483 1138 l 338 1051 l 282 1051 l 456 1167 l 511 1167 l 685 1051 l 629 1051 m 571 1214 q 521 1225 543 1214 q 472 1256 499 1236 q 430 1281 444 1274 q 397 1289 415 1289 q 346 1270 365 1289 q 325 1218 326 1251 l 290 1218 q 321 1295 292 1267 q 397 1324 350 1324 q 445 1313 424 1324 q 494 1282 467 1303 q 537 1256 522 1264 q 569 1249 551 1249 q 622 1267 601 1249 q 643 1318 642 1285 l 676 1318 q 647 1242 675 1271 q 571 1214 618 1214 z "},"Ȁ":{"ha":967,"x_min":10,"x_max":956,"o":"m 774 285 l 192 285 l 61 0 l 10 0 l 460 972 l 506 972 l 956 0 l 904 0 l 774 285 m 756 325 l 483 918 l 210 325 l 756 325 m 196 1208 l 258 1208 l 408 1051 l 357 1051 l 196 1208 m 397 1208 l 460 1208 l 610 1051 l 558 1051 l 397 1208 z "},"Ä":{"ha":967,"x_min":10,"x_max":956,"o":"m 774 285 l 192 285 l 61 0 l 10 0 l 460 972 l 506 972 l 956 0 l 904 0 l 774 285 m 756 325 l 483 918 l 210 325 l 756 325 m 367 1094 q 338 1107 350 1094 q 325 1136 325 1119 q 338 1167 325 1154 q 367 1179 350 1179 q 397 1167 385 1179 q 408 1136 408 1154 q 397 1107 408 1119 q 367 1094 385 1094 m 600 1094 q 570 1107 582 1094 q 558 1136 558 1119 q 570 1167 558 1154 q 600 1179 582 1179 q 629 1167 617 1179 q 642 1136 642 1154 q 629 1107 642 1119 q 600 1094 617 1094 z "},"Ạ":{"ha":967,"x_min":10,"x_max":956,"o":"m 774 285 l 192 285 l 61 0 l 10 0 l 460 972 l 506 972 l 956 0 l 904 0 l 774 285 m 756 325 l 483 918 l 210 325 l 756 325 m 483 -249 q 454 -237 467 -249 q 442 -207 442 -225 q 454 -178 442 -190 q 483 -165 467 -165 q 513 -178 500 -165 q 525 -207 525 -190 q 513 -237 525 -225 q 483 -249 500 -249 z "},"À":{"ha":967,"x_min":10,"x_max":956,"o":"m 774 285 l 192 285 l 61 0 l 10 0 l 460 972 l 506 972 l 956 0 l 904 0 l 774 285 m 756 325 l 483 918 l 210 325 l 756 325 m 285 1208 l 360 1208 l 553 1051 l 497 1051 l 285 1208 z "},"Ả":{"ha":967,"x_min":10,"x_max":956,"o":"m 774 285 l 192 285 l 61 0 l 10 0 l 460 972 l 506 972 l 956 0 l 904 0 l 774 285 m 756 325 l 483 918 l 210 325 l 756 325 m 471 1072 q 557 1176 557 1110 q 535 1229 557 1208 q 478 1250 513 1250 q 392 1224 432 1250 l 378 1254 q 425 1276 397 1268 q 479 1285 453 1285 q 563 1256 532 1285 q 593 1181 593 1228 q 568 1103 593 1136 q 490 1044 543 1071 l 471 1072 z "},"Ȃ":{"ha":967,"x_min":10,"x_max":956,"o":"m 774 285 l 192 285 l 61 0 l 10 0 l 460 972 l 506 972 l 956 0 l 904 0 l 774 285 m 756 325 l 483 918 l 210 325 l 756 325 m 293 1051 q 349 1169 294 1125 q 483 1214 403 1214 q 618 1169 564 1214 q 674 1051 672 1125 l 636 1051 q 591 1144 635 1110 q 483 1179 547 1179 q 376 1144 419 1179 q 331 1051 332 1110 l 293 1051 z "},"Ā":{"ha":967,"x_min":10,"x_max":956,"o":"m 774 285 l 192 285 l 61 0 l 10 0 l 460 972 l 506 972 l 956 0 l 904 0 l 774 285 m 756 325 l 483 918 l 210 325 l 756 325 m 288 1149 l 679 1149 l 679 1111 l 288 1111 l 288 1149 z "},"Ą":{"ha":967,"x_min":10,"x_max":982,"o":"m 774 285 l 192 285 l 61 0 l 10 0 l 460 972 l 506 972 l 956 0 l 904 0 l 774 285 m 756 325 l 483 918 l 210 325 l 756 325 m 875 -299 q 778 -266 815 -299 q 742 -179 742 -233 q 933 26 742 -58 l 956 0 q 818 -87 856 -43 q 781 -178 781 -132 q 808 -242 781 -219 q 879 -264 835 -264 q 925 -256 903 -264 q 964 -233 947 -247 l 982 -261 q 875 -299 936 -299 z "},"Å":{"ha":967,"x_min":10,"x_max":956,"o":"m 774 285 l 192 285 l 61 0 l 10 0 l 460 972 l 506 972 l 956 0 l 904 0 l 774 285 m 756 325 l 483 918 l 210 325 l 756 325 m 482 1081 q 388 1118 425 1081 q 350 1210 350 1156 q 388 1303 350 1264 q 482 1342 425 1342 q 577 1303 539 1342 q 615 1210 615 1264 q 577 1118 615 1156 q 482 1081 539 1081 m 482 1111 q 553 1140 525 1111 q 582 1210 582 1168 q 553 1281 582 1251 q 482 1310 524 1310 q 412 1281 440 1310 q 383 1210 383 1251 q 411 1140 383 1168 q 482 1111 439 1111 z "},"Ǻ":{"ha":967,"x_min":10,"x_max":956,"o":"m 774 285 l 192 285 l 61 0 l 10 0 l 460 972 l 506 972 l 956 0 l 904 0 l 774 285 m 756 325 l 483 918 l 210 325 l 756 325 m 585 1294 q 615 1210 615 1257 q 577 1118 615 1156 q 482 1081 539 1081 q 388 1118 425 1081 q 350 1210 350 1156 q 388 1303 350 1264 q 482 1342 425 1342 q 558 1318 524 1342 l 671 1426 l 703 1401 l 585 1294 m 482 1111 q 553 1140 525 1111 q 582 1210 582 1168 q 553 1281 582 1251 q 482 1310 524 1310 q 412 1281 440 1310 q 383 1210 383 1251 q 411 1140 383 1168 q 482 1111 439 1111 z "},"Ã":{"ha":967,"x_min":10,"x_max":956,"o":"m 774 285 l 192 285 l 61 0 l 10 0 l 460 972 l 506 972 l 956 0 l 904 0 l 774 285 m 756 325 l 483 918 l 210 325 l 756 325 m 572 1065 q 522 1078 543 1065 q 471 1118 500 1092 q 431 1150 449 1139 q 396 1161 414 1161 q 344 1137 363 1161 q 322 1069 325 1113 l 288 1069 q 319 1163 290 1128 q 394 1197 347 1197 q 445 1184 424 1197 q 496 1144 467 1171 q 535 1113 518 1124 q 571 1101 553 1101 q 623 1126 604 1101 q 644 1190 642 1150 l 679 1190 q 648 1100 676 1135 q 572 1065 619 1065 z "},"Æ":{"ha":1406,"x_min":10,"x_max":1313,"o":"m 1313 43 l 1313 0 l 656 0 l 656 285 l 240 285 l 61 0 l 10 0 l 622 972 l 1293 972 l 1293 929 l 703 929 l 703 515 l 1231 515 l 1231 472 l 703 472 l 703 43 l 1313 43 m 656 325 l 656 929 l 644 929 l 265 325 l 656 325 z "},"Ǽ":{"ha":1406,"x_min":10,"x_max":1313,"o":"m 1313 43 l 1313 0 l 656 0 l 656 285 l 240 285 l 61 0 l 10 0 l 622 972 l 1293 972 l 1293 929 l 703 929 l 703 515 l 1231 515 l 1231 472 l 703 472 l 703 43 l 1313 43 m 656 325 l 656 929 l 644 929 l 265 325 l 656 325 m 803 1208 l 878 1208 l 665 1051 l 610 1051 l 803 1208 z "},"B":{"ha":1042,"x_min":178,"x_max":954,"o":"m 724 500 q 896 420 838 482 q 954 256 954 358 q 865 65 954 131 q 600 0 776 0 l 178 0 l 178 972 l 572 972 q 814 908 726 972 q 901 725 901 844 q 854 581 901 638 q 724 500 807 524 m 225 931 l 225 514 l 574 514 q 782 567 708 514 q 856 722 856 621 q 782 877 856 824 q 574 931 708 931 l 225 931 m 603 42 q 831 94 754 42 q 907 257 907 147 q 831 421 907 368 q 603 474 754 474 l 225 474 l 225 42 l 603 42 z "},"C":{"ha":990,"x_min":79,"x_max":918,"o":"m 581 -6 q 324 58 439 -6 q 144 235 210 122 q 79 486 79 347 q 144 738 79 625 q 324 914 210 850 q 581 978 439 978 q 768 945 681 978 q 918 849 856 913 l 889 818 q 582 935 768 935 q 350 876 454 935 q 186 714 246 817 q 126 486 126 611 q 186 258 126 361 q 350 97 246 156 q 582 38 454 38 q 889 156 767 38 l 918 125 q 769 28 856 61 q 581 -6 682 -6 z "},"Ć":{"ha":990,"x_min":79,"x_max":918,"o":"m 581 -6 q 324 58 439 -6 q 144 235 210 122 q 79 486 79 347 q 144 738 79 625 q 324 914 210 850 q 581 978 439 978 q 768 945 681 978 q 918 849 856 913 l 889 818 q 582 935 768 935 q 350 876 454 935 q 186 714 246 817 q 126 486 126 611 q 186 258 126 361 q 350 97 246 156 q 582 38 454 38 q 889 156 767 38 l 918 125 q 769 28 856 61 q 581 -6 682 -6 m 692 1208 l 767 1208 l 554 1051 l 499 1051 l 692 1208 z "},"Č":{"ha":990,"x_min":79,"x_max":918,"o":"m 581 -6 q 324 58 439 -6 q 144 235 210 122 q 79 486 79 347 q 144 738 79 625 q 324 914 210 850 q 581 978 439 978 q 768 945 681 978 q 918 849 856 913 l 889 818 q 582 935 768 935 q 350 876 454 935 q 186 714 246 817 q 126 486 126 611 q 186 258 126 361 q 350 97 246 156 q 582 38 454 38 q 889 156 767 38 l 918 125 q 769 28 856 61 q 581 -6 682 -6 m 769 1208 l 597 1051 l 539 1051 l 367 1208 l 418 1208 l 568 1083 l 718 1208 l 769 1208 z "},"Ç":{"ha":990,"x_min":79,"x_max":918,"o":"m 581 -6 q 324 58 439 -6 q 144 235 210 122 q 79 486 79 347 q 144 738 79 625 q 324 914 210 850 q 581 978 439 978 q 768 945 681 978 q 918 849 856 913 l 889 818 q 582 935 768 935 q 350 876 454 935 q 186 714 246 817 q 126 486 126 611 q 186 258 126 361 q 350 97 246 156 q 582 38 454 38 q 889 156 767 38 l 918 125 q 769 28 856 61 q 581 -6 682 -6 m 540 -299 q 435 -262 479 -299 l 453 -233 q 540 -264 488 -264 q 610 -243 583 -264 q 636 -185 636 -222 q 610 -128 636 -150 q 540 -107 585 -107 l 515 -107 l 547 7 l 582 7 l 558 -76 q 644 -109 613 -79 q 675 -186 675 -139 q 637 -267 675 -236 q 540 -299 599 -299 z "},"Ḉ":{"ha":990,"x_min":79,"x_max":918,"o":"m 581 -6 q 324 58 439 -6 q 144 235 210 122 q 79 486 79 347 q 144 738 79 625 q 324 914 210 850 q 581 978 439 978 q 768 945 681 978 q 918 849 856 913 l 889 818 q 582 935 768 935 q 350 876 454 935 q 186 714 246 817 q 126 486 126 611 q 186 258 126 361 q 350 97 246 156 q 582 38 454 38 q 889 156 767 38 l 918 125 q 769 28 856 61 q 581 -6 682 -6 m 540 -299 q 435 -262 479 -299 l 453 -233 q 540 -264 488 -264 q 610 -243 583 -264 q 636 -185 636 -222 q 610 -128 636 -150 q 540 -107 585 -107 l 515 -107 l 547 7 l 582 7 l 558 -76 q 644 -109 613 -79 q 675 -186 675 -139 q 637 -267 675 -236 q 540 -299 599 -299 m 692 1208 l 767 1208 l 554 1051 l 499 1051 l 692 1208 z "},"Ĉ":{"ha":990,"x_min":79,"x_max":918,"o":"m 581 -6 q 324 58 439 -6 q 144 235 210 122 q 79 486 79 347 q 144 738 79 625 q 324 914 210 850 q 581 978 439 978 q 768 945 681 978 q 918 849 856 913 l 889 818 q 582 935 768 935 q 350 876 454 935 q 186 714 246 817 q 126 486 126 611 q 186 258 126 361 q 350 97 246 156 q 582 38 454 38 q 889 156 767 38 l 918 125 q 769 28 856 61 q 581 -6 682 -6 m 718 1051 l 568 1176 l 418 1051 l 367 1051 l 539 1208 l 597 1208 l 769 1051 l 718 1051 z "},"Ċ":{"ha":990,"x_min":79,"x_max":918,"o":"m 581 -6 q 324 58 439 -6 q 144 235 210 122 q 79 486 79 347 q 144 738 79 625 q 324 914 210 850 q 581 978 439 978 q 768 945 681 978 q 918 849 856 913 l 889 818 q 582 935 768 935 q 350 876 454 935 q 186 714 246 817 q 126 486 126 611 q 186 258 126 361 q 350 97 246 156 q 582 38 454 38 q 889 156 767 38 l 918 125 q 769 28 856 61 q 581 -6 682 -6 m 568 1094 q 537 1108 550 1094 q 524 1139 524 1121 q 537 1170 524 1157 q 568 1183 550 1183 q 599 1170 586 1183 q 613 1139 613 1157 q 599 1108 613 1121 q 568 1094 586 1094 z "},"D":{"ha":1147,"x_min":178,"x_max":1068,"o":"m 178 972 l 553 972 q 822 910 704 972 q 1003 737 939 847 q 1068 486 1068 626 q 1003 235 1068 346 q 822 63 939 125 q 553 0 704 0 l 178 0 l 178 972 m 550 43 q 798 100 692 43 q 963 258 904 157 q 1021 486 1021 358 q 963 715 1021 614 q 798 872 904 815 q 550 929 692 929 l 225 929 l 225 43 l 550 43 z "},"Ǆ":{"ha":2028,"x_min":178,"x_max":1963,"o":"m 178 972 l 553 972 q 822 910 704 972 q 1003 737 939 847 q 1068 486 1068 626 q 1003 235 1068 346 q 822 63 939 125 q 553 0 704 0 l 178 0 l 178 972 m 550 43 q 798 100 692 43 q 963 258 904 157 q 1021 486 1021 358 q 963 715 1021 614 q 798 872 904 815 q 550 929 692 929 l 225 929 l 225 43 l 550 43 m 1963 43 l 1963 0 l 1190 0 l 1190 33 l 1883 929 l 1197 929 l 1197 972 l 1947 972 l 1947 939 l 1254 43 l 1963 43 m 1778 1208 l 1606 1051 l 1547 1051 l 1375 1208 l 1426 1208 l 1576 1083 l 1726 1208 l 1778 1208 z "},"Ð":{"ha":1149,"x_min":25,"x_max":1069,"o":"m 179 972 l 554 972 q 823 910 706 972 q 1005 737 940 847 q 1069 486 1069 626 q 1005 235 1069 346 q 823 63 940 125 q 554 0 706 0 l 179 0 l 179 972 m 551 43 q 799 100 693 43 q 964 258 906 157 q 1022 486 1022 358 q 964 715 1022 614 q 799 872 906 815 q 551 929 693 929 l 226 929 l 226 43 l 551 43 m 25 514 l 533 514 l 533 474 l 25 474 l 25 514 z "},"Ď":{"ha":1147,"x_min":178,"x_max":1068,"o":"m 178 972 l 553 972 q 822 910 704 972 q 1003 737 939 847 q 1068 486 1068 626 q 1003 235 1068 346 q 822 63 939 125 q 553 0 704 0 l 178 0 l 178 972 m 550 43 q 798 100 692 43 q 963 258 904 157 q 1021 486 1021 358 q 963 715 1021 614 q 798 872 904 815 q 550 929 692 929 l 225 929 l 225 43 l 550 43 m 742 1207 l 569 1050 l 511 1050 l 339 1207 l 390 1207 l 540 1082 l 690 1207 l 742 1207 z "},"Đ":{"ha":1149,"x_min":25,"x_max":1069,"o":"m 179 972 l 554 972 q 823 910 706 972 q 1005 737 940 847 q 1069 486 1069 626 q 1005 235 1069 346 q 823 63 940 125 q 554 0 706 0 l 179 0 l 179 972 m 551 43 q 799 100 693 43 q 964 258 906 157 q 1022 486 1022 358 q 964 715 1022 614 q 799 872 906 815 q 551 929 693 929 l 226 929 l 226 43 l 551 43 m 25 514 l 533 514 l 533 474 l 25 474 l 25 514 z "},"Ḍ":{"ha":1147,"x_min":178,"x_max":1068,"o":"m 178 972 l 553 972 q 822 910 704 972 q 1003 737 939 847 q 1068 486 1068 626 q 1003 235 1068 346 q 822 63 939 125 q 553 0 704 0 l 178 0 l 178 972 m 550 43 q 798 100 692 43 q 963 258 904 157 q 1021 486 1021 358 q 963 715 1021 614 q 798 872 904 815 q 550 929 692 929 l 225 929 l 225 43 l 550 43 m 547 -249 q 518 -237 531 -249 q 506 -207 506 -225 q 518 -178 506 -190 q 547 -165 531 -165 q 576 -178 564 -165 q 589 -207 589 -190 q 576 -237 589 -225 q 547 -249 564 -249 z "},"Ḏ":{"ha":1147,"x_min":178,"x_max":1068,"o":"m 178 972 l 553 972 q 822 910 704 972 q 1003 737 939 847 q 1068 486 1068 626 q 1003 235 1068 346 q 822 63 939 125 q 553 0 704 0 l 178 0 l 178 972 m 550 43 q 798 100 692 43 q 963 258 904 157 q 1021 486 1021 358 q 963 715 1021 614 q 798 872 904 815 q 550 929 692 929 l 225 929 l 225 43 l 550 43 m 351 -187 l 743 -187 l 743 -225 l 351 -225 l 351 -187 z "},"ǅ":{"ha":1836,"x_min":178,"x_max":1772,"o":"m 178 972 l 553 972 q 822 910 704 972 q 1003 737 939 847 q 1068 486 1068 626 q 1003 235 1068 346 q 822 63 939 125 q 553 0 704 0 l 178 0 l 178 972 m 550 43 q 798 100 692 43 q 963 258 904 157 q 1021 486 1021 358 q 963 715 1021 614 q 798 872 904 815 q 550 929 692 929 l 225 929 l 225 43 l 550 43 m 1772 40 l 1772 0 l 1210 0 l 1210 32 l 1704 681 l 1217 681 l 1217 721 l 1765 721 l 1765 689 l 1269 40 l 1772 40 m 1693 1000 l 1521 843 l 1463 843 l 1290 1000 l 1342 1000 l 1492 875 l 1642 1000 l 1693 1000 z "},"E":{"ha":928,"x_min":178,"x_max":835,"o":"m 835 43 l 835 0 l 178 0 l 178 972 l 815 972 l 815 929 l 225 929 l 225 515 l 753 515 l 753 472 l 225 472 l 225 43 l 835 43 z "},"É":{"ha":928,"x_min":178,"x_max":835,"o":"m 835 43 l 835 0 l 178 0 l 178 972 l 815 972 l 815 929 l 225 929 l 225 515 l 753 515 l 753 472 l 225 472 l 225 43 l 835 43 m 621 1208 l 696 1208 l 483 1051 l 428 1051 l 621 1208 z "},"Ĕ":{"ha":928,"x_min":178,"x_max":835,"o":"m 835 43 l 835 0 l 178 0 l 178 972 l 815 972 l 815 929 l 225 929 l 225 515 l 753 515 l 753 472 l 225 472 l 225 43 l 835 43 m 497 1047 q 363 1091 417 1047 q 307 1208 308 1135 l 344 1208 q 390 1117 346 1151 q 497 1082 433 1082 q 605 1117 561 1082 q 650 1208 649 1151 l 688 1208 q 632 1091 686 1135 q 497 1047 578 1047 z "},"Ě":{"ha":928,"x_min":178,"x_max":835,"o":"m 835 43 l 835 0 l 178 0 l 178 972 l 815 972 l 815 929 l 225 929 l 225 515 l 753 515 l 753 472 l 225 472 l 225 43 l 835 43 m 699 1208 l 526 1051 l 468 1051 l 296 1208 l 347 1208 l 497 1083 l 647 1208 l 699 1208 z "},"Ḝ":{"ha":928,"x_min":178,"x_max":835,"o":"m 835 43 l 835 0 l 178 0 l 178 972 l 815 972 l 815 929 l 225 929 l 225 515 l 753 515 l 753 472 l 225 472 l 225 43 l 835 43 m 494 -299 q 389 -262 433 -299 l 407 -233 q 494 -264 442 -264 q 564 -243 538 -264 q 590 -185 590 -222 q 565 -128 590 -150 q 494 -107 539 -107 l 469 -107 l 501 7 l 536 7 l 513 -76 q 598 -109 567 -79 q 629 -186 629 -139 q 591 -267 629 -236 q 494 -299 553 -299 m 497 1047 q 363 1091 417 1047 q 307 1208 308 1135 l 344 1208 q 390 1117 346 1151 q 497 1082 433 1082 q 605 1117 561 1082 q 650 1208 649 1151 l 688 1208 q 632 1091 686 1135 q 497 1047 578 1047 z "},"Ê":{"ha":928,"x_min":178,"x_max":835,"o":"m 835 43 l 835 0 l 178 0 l 178 972 l 815 972 l 815 929 l 225 929 l 225 515 l 753 515 l 753 472 l 225 472 l 225 43 l 835 43 m 647 1051 l 497 1176 l 347 1051 l 296 1051 l 468 1208 l 526 1208 l 699 1051 l 647 1051 z "},"Ế":{"ha":928,"x_min":178,"x_max":853,"o":"m 835 43 l 835 0 l 178 0 l 178 972 l 815 972 l 815 929 l 225 929 l 225 515 l 753 515 l 753 472 l 225 472 l 225 43 l 835 43 m 643 1051 l 497 1138 l 351 1051 l 296 1051 l 469 1167 l 525 1167 l 699 1051 l 643 1051 m 781 1300 l 853 1300 l 660 1158 l 607 1158 l 781 1300 z "},"Ệ":{"ha":928,"x_min":178,"x_max":835,"o":"m 835 43 l 835 0 l 178 0 l 178 972 l 815 972 l 815 929 l 225 929 l 225 515 l 753 515 l 753 472 l 225 472 l 225 43 l 835 43 m 519 -249 q 490 -237 503 -249 q 478 -207 478 -225 q 490 -178 478 -190 q 519 -165 503 -165 q 549 -178 536 -165 q 561 -207 561 -190 q 549 -237 561 -225 q 519 -249 536 -249 m 647 1051 l 497 1176 l 347 1051 l 296 1051 l 468 1208 l 526 1208 l 699 1051 l 647 1051 z "},"Ề":{"ha":928,"x_min":178,"x_max":835,"o":"m 835 43 l 835 0 l 178 0 l 178 972 l 815 972 l 815 929 l 225 929 l 225 515 l 753 515 l 753 472 l 225 472 l 225 43 l 835 43 m 643 1051 l 497 1138 l 351 1051 l 296 1051 l 469 1167 l 525 1167 l 699 1051 l 643 1051 m 497 1300 l 569 1300 l 743 1158 l 690 1158 l 497 1300 z "},"Ể":{"ha":928,"x_min":178,"x_max":835,"o":"m 835 43 l 835 0 l 178 0 l 178 972 l 815 972 l 815 929 l 225 929 l 225 515 l 753 515 l 753 472 l 225 472 l 225 43 l 835 43 m 643 1051 l 497 1138 l 351 1051 l 296 1051 l 469 1167 l 525 1167 l 699 1051 l 643 1051 m 632 1163 q 678 1196 661 1176 q 694 1238 694 1215 q 678 1274 694 1260 q 636 1288 663 1288 q 576 1269 604 1288 l 564 1296 q 640 1319 594 1319 q 704 1297 681 1319 q 728 1239 728 1275 q 708 1181 728 1207 q 650 1138 688 1154 l 632 1163 z "},"Ễ":{"ha":928,"x_min":178,"x_max":835,"o":"m 835 43 l 835 0 l 178 0 l 178 972 l 815 972 l 815 929 l 225 929 l 225 515 l 753 515 l 753 472 l 225 472 l 225 43 l 835 43 m 643 1051 l 497 1138 l 351 1051 l 296 1051 l 469 1167 l 525 1167 l 699 1051 l 643 1051 m 585 1214 q 535 1225 557 1214 q 486 1256 513 1236 q 444 1281 458 1274 q 411 1289 429 1289 q 360 1270 379 1289 q 339 1218 340 1251 l 304 1218 q 335 1295 306 1267 q 411 1324 364 1324 q 459 1313 438 1324 q 508 1282 481 1303 q 551 1256 536 1264 q 583 1249 565 1249 q 635 1267 615 1249 q 657 1318 656 1285 l 690 1318 q 660 1242 689 1271 q 585 1214 632 1214 z "},"Ȅ":{"ha":928,"x_min":178,"x_max":835,"o":"m 835 43 l 835 0 l 178 0 l 178 972 l 815 972 l 815 929 l 225 929 l 225 515 l 753 515 l 753 472 l 225 472 l 225 43 l 835 43 m 210 1208 l 272 1208 l 422 1051 l 371 1051 l 210 1208 m 411 1208 l 474 1208 l 624 1051 l 572 1051 l 411 1208 z "},"Ë":{"ha":928,"x_min":178,"x_max":835,"o":"m 835 43 l 835 0 l 178 0 l 178 972 l 815 972 l 815 929 l 225 929 l 225 515 l 753 515 l 753 472 l 225 472 l 225 43 l 835 43 m 381 1094 q 351 1107 364 1094 q 339 1136 339 1119 q 351 1167 339 1154 q 381 1179 364 1179 q 410 1167 399 1179 q 422 1136 422 1154 q 410 1107 422 1119 q 381 1094 399 1094 m 614 1094 q 584 1107 596 1094 q 572 1136 572 1119 q 584 1167 572 1154 q 614 1179 596 1179 q 643 1167 631 1179 q 656 1136 656 1154 q 643 1107 656 1119 q 614 1094 631 1094 z "},"Ė":{"ha":928,"x_min":178,"x_max":835,"o":"m 835 43 l 835 0 l 178 0 l 178 972 l 815 972 l 815 929 l 225 929 l 225 515 l 753 515 l 753 472 l 225 472 l 225 43 l 835 43 m 497 1094 q 466 1108 479 1094 q 453 1139 453 1121 q 466 1170 453 1157 q 497 1183 479 1183 q 528 1170 515 1183 q 542 1139 542 1157 q 528 1108 542 1121 q 497 1094 515 1094 z "},"Ẹ":{"ha":928,"x_min":178,"x_max":835,"o":"m 835 43 l 835 0 l 178 0 l 178 972 l 815 972 l 815 929 l 225 929 l 225 515 l 753 515 l 753 472 l 225 472 l 225 43 l 835 43 m 519 -249 q 490 -237 503 -249 q 478 -207 478 -225 q 490 -178 478 -190 q 519 -165 503 -165 q 549 -178 536 -165 q 561 -207 561 -190 q 549 -237 561 -225 q 519 -249 536 -249 z "},"È":{"ha":928,"x_min":178,"x_max":835,"o":"m 835 43 l 835 0 l 178 0 l 178 972 l 815 972 l 815 929 l 225 929 l 225 515 l 753 515 l 753 472 l 225 472 l 225 43 l 835 43 m 299 1208 l 374 1208 l 567 1051 l 511 1051 l 299 1208 z "},"Ẻ":{"ha":928,"x_min":178,"x_max":835,"o":"m 835 43 l 835 0 l 178 0 l 178 972 l 815 972 l 815 929 l 225 929 l 225 515 l 753 515 l 753 472 l 225 472 l 225 43 l 835 43 m 485 1072 q 571 1176 571 1110 q 549 1229 571 1208 q 492 1250 526 1250 q 406 1224 446 1250 l 392 1254 q 439 1276 411 1268 q 493 1285 467 1285 q 576 1256 546 1285 q 607 1181 607 1228 q 582 1103 607 1136 q 504 1044 557 1071 l 485 1072 z "},"Ȇ":{"ha":928,"x_min":178,"x_max":835,"o":"m 835 43 l 835 0 l 178 0 l 178 972 l 815 972 l 815 929 l 225 929 l 225 515 l 753 515 l 753 472 l 225 472 l 225 43 l 835 43 m 307 1051 q 363 1169 308 1125 q 497 1214 417 1214 q 632 1169 578 1214 q 688 1051 686 1125 l 650 1051 q 605 1144 649 1110 q 497 1179 561 1179 q 390 1144 433 1179 q 344 1051 346 1110 l 307 1051 z "},"Ē":{"ha":928,"x_min":178,"x_max":835,"o":"m 835 43 l 835 0 l 178 0 l 178 972 l 815 972 l 815 929 l 225 929 l 225 515 l 753 515 l 753 472 l 225 472 l 225 43 l 835 43 m 301 1149 l 693 1149 l 693 1111 l 301 1111 l 301 1149 z "},"Ḗ":{"ha":928,"x_min":178,"x_max":835,"o":"m 835 43 l 835 0 l 178 0 l 178 972 l 815 972 l 815 929 l 225 929 l 225 515 l 753 515 l 753 472 l 225 472 l 225 43 l 835 43 m 301 1128 l 693 1128 l 693 1092 l 301 1092 l 301 1128 m 603 1357 l 675 1357 l 482 1215 l 429 1215 l 603 1357 z "},"Ḕ":{"ha":928,"x_min":178,"x_max":835,"o":"m 835 43 l 835 0 l 178 0 l 178 972 l 815 972 l 815 929 l 225 929 l 225 515 l 753 515 l 753 472 l 225 472 l 225 43 l 835 43 m 301 1128 l 693 1128 l 693 1092 l 301 1092 l 301 1128 m 319 1357 l 392 1357 l 565 1215 l 513 1215 l 319 1357 z "},"Ę":{"ha":928,"x_min":178,"x_max":861,"o":"m 835 43 l 835 0 l 178 0 l 178 972 l 815 972 l 815 929 l 225 929 l 225 515 l 753 515 l 753 472 l 225 472 l 225 43 l 835 43 m 754 -299 q 658 -266 694 -299 q 621 -179 621 -233 q 813 26 621 -58 l 835 0 q 697 -87 735 -43 q 660 -178 660 -132 q 687 -242 660 -219 q 758 -264 714 -264 q 804 -256 782 -264 q 843 -233 826 -247 l 861 -261 q 754 -299 815 -299 z "},"Ẽ":{"ha":928,"x_min":178,"x_max":835,"o":"m 835 43 l 835 0 l 178 0 l 178 972 l 815 972 l 815 929 l 225 929 l 225 515 l 753 515 l 753 472 l 225 472 l 225 43 l 835 43 m 586 1065 q 535 1078 557 1065 q 485 1118 514 1092 q 445 1150 463 1139 q 410 1161 428 1161 q 358 1137 376 1161 q 336 1069 339 1113 l 301 1069 q 333 1163 304 1128 q 408 1197 361 1197 q 459 1184 438 1197 q 510 1144 481 1171 q 549 1113 532 1124 q 585 1101 567 1101 q 637 1126 618 1101 q 658 1190 656 1150 l 693 1190 q 662 1100 690 1135 q 586 1065 633 1065 z "},"Ʒ":{"ha":838,"x_min":47,"x_max":750,"o":"m 388 542 q 658 468 565 542 q 750 269 750 394 q 659 70 750 146 q 403 -6 568 -6 q 192 31 288 -6 q 47 129 96 68 l 71 163 q 206 72 118 107 q 404 38 294 38 q 625 99 547 38 q 703 269 703 161 q 623 440 703 379 q 383 501 543 501 l 328 501 l 328 535 l 650 931 l 79 931 l 79 972 l 710 972 l 710 939 l 386 542 l 388 542 z "},"Ǯ":{"ha":838,"x_min":47,"x_max":750,"o":"m 388 542 q 658 468 565 542 q 750 269 750 394 q 659 70 750 146 q 403 -6 568 -6 q 192 31 288 -6 q 47 129 96 68 l 71 163 q 206 72 118 107 q 404 38 294 38 q 625 99 547 38 q 703 269 703 161 q 623 440 703 379 q 383 501 543 501 l 328 501 l 328 535 l 650 931 l 79 931 l 79 972 l 710 972 l 710 939 l 386 542 l 388 542 m 604 1208 l 432 1051 l 374 1051 l 201 1208 l 253 1208 l 403 1083 l 553 1208 l 604 1208 z "},"F":{"ha":875,"x_min":178,"x_max":815,"o":"m 225 929 l 225 485 l 753 485 l 753 443 l 225 443 l 225 0 l 178 0 l 178 972 l 815 972 l 815 929 l 225 929 z "},"G":{"ha":1075,"x_min":79,"x_max":926,"o":"m 881 479 l 925 479 l 925 119 q 773 26 861 58 q 585 -6 685 -6 q 326 58 442 -6 q 145 235 211 122 q 79 486 79 347 q 145 738 79 625 q 326 914 211 850 q 585 978 442 978 q 776 946 689 978 q 926 850 864 914 l 899 818 q 586 935 778 935 q 351 876 456 935 q 186 714 246 817 q 126 486 126 611 q 186 258 126 361 q 351 97 246 156 q 586 38 456 38 q 881 139 768 38 l 881 479 z "},"Ğ":{"ha":1075,"x_min":79,"x_max":926,"o":"m 881 479 l 925 479 l 925 119 q 773 26 861 58 q 585 -6 685 -6 q 326 58 442 -6 q 145 235 211 122 q 79 486 79 347 q 145 738 79 625 q 326 914 211 850 q 585 978 442 978 q 776 946 689 978 q 926 850 864 914 l 899 818 q 586 935 778 935 q 351 876 456 935 q 186 714 246 817 q 126 486 126 611 q 186 258 126 361 q 351 97 246 156 q 586 38 456 38 q 881 139 768 38 l 881 479 m 560 1046 q 425 1090 479 1046 q 369 1207 371 1133 l 407 1207 q 452 1115 408 1150 q 560 1081 496 1081 q 667 1115 624 1081 q 713 1207 711 1150 l 750 1207 q 694 1090 749 1133 q 560 1046 640 1046 z "},"Ǧ":{"ha":1075,"x_min":79,"x_max":926,"o":"m 881 479 l 925 479 l 925 119 q 773 26 861 58 q 585 -6 685 -6 q 326 58 442 -6 q 145 235 211 122 q 79 486 79 347 q 145 738 79 625 q 326 914 211 850 q 585 978 442 978 q 776 946 689 978 q 926 850 864 914 l 899 818 q 586 935 778 935 q 351 876 456 935 q 186 714 246 817 q 126 486 126 611 q 186 258 126 361 q 351 97 246 156 q 586 38 456 38 q 881 139 768 38 l 881 479 m 761 1207 l 589 1050 l 531 1050 l 358 1207 l 410 1207 l 560 1082 l 710 1207 l 761 1207 z "},"Ĝ":{"ha":1075,"x_min":79,"x_max":926,"o":"m 881 479 l 925 479 l 925 119 q 773 26 861 58 q 585 -6 685 -6 q 326 58 442 -6 q 145 235 211 122 q 79 486 79 347 q 145 738 79 625 q 326 914 211 850 q 585 978 442 978 q 776 946 689 978 q 926 850 864 914 l 899 818 q 586 935 778 935 q 351 876 456 935 q 186 714 246 817 q 126 486 126 611 q 186 258 126 361 q 351 97 246 156 q 586 38 456 38 q 881 139 768 38 l 881 479 m 710 1050 l 560 1175 l 410 1050 l 358 1050 l 531 1207 l 589 1207 l 761 1050 l 710 1050 z "},"Ģ":{"ha":1075,"x_min":79,"x_max":926,"o":"m 881 479 l 925 479 l 925 119 q 773 26 861 58 q 585 -6 685 -6 q 326 58 442 -6 q 145 235 211 122 q 79 486 79 347 q 145 738 79 625 q 326 914 211 850 q 585 978 442 978 q 776 946 689 978 q 926 850 864 914 l 899 818 q 586 935 778 935 q 351 876 456 935 q 186 714 246 817 q 126 486 126 611 q 186 258 126 361 q 351 97 246 156 q 586 38 456 38 q 881 139 768 38 l 881 479 m 558 -165 q 589 -178 578 -165 q 600 -206 600 -190 q 590 -256 600 -224 l 557 -361 l 524 -361 l 550 -246 q 526 -233 536 -244 q 517 -206 517 -221 q 528 -177 517 -189 q 558 -165 540 -165 z "},"Ġ":{"ha":1075,"x_min":79,"x_max":926,"o":"m 881 479 l 925 479 l 925 119 q 773 26 861 58 q 585 -6 685 -6 q 326 58 442 -6 q 145 235 211 122 q 79 486 79 347 q 145 738 79 625 q 326 914 211 850 q 585 978 442 978 q 776 946 689 978 q 926 850 864 914 l 899 818 q 586 935 778 935 q 351 876 456 935 q 186 714 246 817 q 126 486 126 611 q 186 258 126 361 q 351 97 246 156 q 586 38 456 38 q 881 139 768 38 l 881 479 m 560 1093 q 528 1106 542 1093 q 515 1138 515 1119 q 528 1169 515 1156 q 560 1182 542 1182 q 591 1169 578 1182 q 604 1138 604 1156 q 591 1106 604 1119 q 560 1093 578 1093 z "},"Ḡ":{"ha":1075,"x_min":79,"x_max":926,"o":"m 881 479 l 925 479 l 925 119 q 773 26 861 58 q 585 -6 685 -6 q 326 58 442 -6 q 145 235 211 122 q 79 486 79 347 q 145 738 79 625 q 326 914 211 850 q 585 978 442 978 q 776 946 689 978 q 926 850 864 914 l 899 818 q 586 935 778 935 q 351 876 456 935 q 186 714 246 817 q 126 486 126 611 q 186 258 126 361 q 351 97 246 156 q 586 38 456 38 q 881 139 768 38 l 881 479 m 364 1147 l 756 1147 l 756 1110 l 364 1110 l 364 1147 z "},"Ǥ":{"ha":1118,"x_min":79,"x_max":1085,"o":"m 881 479 l 925 479 l 925 119 q 773 26 861 58 q 585 -6 685 -6 q 326 58 442 -6 q 145 235 211 122 q 79 486 79 347 q 145 738 79 625 q 326 914 211 850 q 585 978 442 978 q 776 946 689 978 q 926 850 864 914 l 899 818 q 586 935 778 935 q 351 876 456 935 q 186 714 246 817 q 126 486 126 611 q 186 258 126 361 q 351 97 246 156 q 586 38 456 38 q 881 139 768 38 l 881 479 m 575 346 l 1083 346 l 1083 306 l 575 306 l 575 346 z "},"H":{"ha":1132,"x_min":178,"x_max":954,"o":"m 954 972 l 954 0 l 907 0 l 907 472 l 225 472 l 225 0 l 178 0 l 178 972 l 225 972 l 225 515 l 907 515 l 907 972 l 954 972 z "},"Ħ":{"ha":1135,"x_min":26,"x_max":1111,"o":"m 956 972 l 956 0 l 908 0 l 908 472 l 226 472 l 226 0 l 179 0 l 179 972 l 226 972 l 226 515 l 908 515 l 908 972 l 956 972 m 26 772 l 1111 772 l 1111 732 l 26 732 l 26 772 z "},"Ḫ":{"ha":1132,"x_min":178,"x_max":954,"o":"m 954 972 l 954 0 l 907 0 l 907 472 l 225 472 l 225 0 l 178 0 l 178 972 l 225 972 l 225 515 l 907 515 l 907 972 l 954 972 m 567 -278 q 432 -235 486 -278 q 376 -122 378 -193 l 413 -122 q 458 -210 414 -178 q 567 -243 501 -243 q 676 -210 632 -243 q 721 -122 719 -178 l 757 -122 q 701 -235 756 -193 q 567 -278 647 -278 z "},"Ȟ":{"ha":1132,"x_min":178,"x_max":954,"o":"m 954 972 l 954 0 l 907 0 l 907 472 l 225 472 l 225 0 l 178 0 l 178 972 l 225 972 l 225 515 l 907 515 l 907 972 l 954 972 m 768 1208 l 596 1051 l 538 1051 l 365 1208 l 417 1208 l 567 1083 l 717 1208 l 768 1208 z "},"Ĥ":{"ha":1132,"x_min":178,"x_max":954,"o":"m 954 972 l 954 0 l 907 0 l 907 472 l 225 472 l 225 0 l 178 0 l 178 972 l 225 972 l 225 515 l 907 515 l 907 972 l 954 972 m 717 1051 l 567 1176 l 417 1051 l 365 1051 l 538 1208 l 596 1208 l 768 1051 l 717 1051 z "},"Ḥ":{"ha":1132,"x_min":178,"x_max":954,"o":"m 954 972 l 954 0 l 907 0 l 907 472 l 225 472 l 225 0 l 178 0 l 178 972 l 225 972 l 225 515 l 907 515 l 907 972 l 954 972 m 567 -249 q 538 -237 550 -249 q 525 -207 525 -225 q 538 -178 525 -190 q 567 -165 550 -165 q 596 -178 583 -165 q 608 -207 608 -190 q 596 -237 608 -225 q 567 -249 583 -249 z "},"I":{"ha":403,"x_min":178,"x_max":225,"o":"m 178 972 l 225 972 l 225 0 l 178 0 l 178 972 z "},"Ĳ":{"ha":993,"x_min":158,"x_max":824,"o":"m 454 -6 q 296 19 372 -6 q 158 86 219 43 l 182 124 q 309 60 239 82 q 456 38 379 38 q 692 131 608 38 q 776 410 776 225 l 776 972 l 824 972 l 824 410 q 724 101 824 207 q 454 -6 625 -6 m 169 972 l 217 972 l 217 407 l 169 407 l 169 972 z "},"Í":{"ha":403,"x_min":132,"x_max":400,"o":"m 178 972 l 225 972 l 225 0 l 178 0 l 178 972 m 325 1208 l 400 1208 l 188 1051 l 132 1051 l 325 1208 z "},"Ĭ":{"ha":403,"x_min":11,"x_max":392,"o":"m 178 972 l 225 972 l 225 0 l 178 0 l 178 972 m 201 1047 q 67 1091 121 1047 q 11 1208 13 1135 l 49 1208 q 94 1117 50 1151 q 201 1082 138 1082 q 309 1117 265 1082 q 354 1208 353 1151 l 392 1208 q 336 1091 390 1135 q 201 1047 282 1047 z "},"Î":{"ha":403,"x_min":0,"x_max":403,"o":"m 178 972 l 225 972 l 225 0 l 178 0 l 178 972 m 351 1051 l 201 1176 l 51 1051 l 0 1051 l 172 1208 l 231 1208 l 403 1051 l 351 1051 z "},"Ȉ":{"ha":403,"x_min":-86,"x_max":328,"o":"m 178 972 l 225 972 l 225 0 l 178 0 l 178 972 m -86 1208 l -24 1208 l 126 1051 l 75 1051 l -86 1208 m 115 1208 l 178 1208 l 328 1051 l 276 1051 l 115 1208 z "},"Ï":{"ha":403,"x_min":43,"x_max":360,"o":"m 178 972 l 225 972 l 225 0 l 178 0 l 178 972 m 85 1094 q 56 1107 68 1094 q 43 1136 43 1119 q 56 1167 43 1154 q 85 1179 68 1179 q 115 1167 103 1179 q 126 1136 126 1154 q 115 1107 126 1119 q 85 1094 103 1094 m 318 1094 q 288 1107 300 1094 q 276 1136 276 1119 q 288 1167 276 1154 q 318 1179 300 1179 q 347 1167 335 1179 q 360 1136 360 1154 q 347 1107 360 1119 q 318 1094 335 1094 z "},"Ḯ":{"ha":403,"x_min":44,"x_max":379,"o":"m 178 972 l 225 972 l 225 0 l 178 0 l 178 972 m 86 1094 q 56 1107 68 1094 q 44 1136 44 1119 q 56 1166 44 1154 q 86 1178 68 1178 q 115 1166 103 1178 q 128 1136 128 1154 q 115 1107 128 1119 q 86 1094 103 1094 m 318 1094 q 288 1107 300 1094 q 276 1136 276 1119 q 288 1166 276 1154 q 318 1178 300 1178 q 347 1166 335 1178 q 360 1136 360 1154 q 347 1107 360 1119 q 318 1094 335 1094 m 307 1357 l 379 1357 l 186 1215 l 133 1215 l 307 1357 z "},"İ":{"ha":403,"x_min":157,"x_max":246,"o":"m 178 972 l 225 972 l 225 0 l 178 0 l 178 972 m 201 1094 q 170 1108 183 1094 q 157 1139 157 1121 q 170 1170 157 1157 q 201 1183 183 1183 q 233 1170 219 1183 q 246 1139 246 1157 q 233 1108 246 1121 q 201 1094 219 1094 z "},"Ị":{"ha":403,"x_min":160,"x_max":243,"o":"m 178 972 l 225 972 l 225 0 l 178 0 l 178 972 m 201 -249 q 172 -237 185 -249 q 160 -207 160 -225 q 172 -178 160 -190 q 201 -165 185 -165 q 231 -178 218 -165 q 243 -207 243 -190 q 231 -237 243 -225 q 201 -249 218 -249 z "},"Ì":{"ha":403,"x_min":3,"x_max":271,"o":"m 178 972 l 225 972 l 225 0 l 178 0 l 178 972 m 3 1208 l 78 1208 l 271 1051 l 215 1051 l 3 1208 z "},"Ỉ":{"ha":403,"x_min":96,"x_max":311,"o":"m 178 972 l 225 972 l 225 0 l 178 0 l 178 972 m 189 1072 q 275 1176 275 1110 q 253 1229 275 1208 q 196 1250 231 1250 q 110 1224 150 1250 l 96 1254 q 143 1276 115 1268 q 197 1285 171 1285 q 281 1256 250 1285 q 311 1181 311 1228 q 286 1103 311 1136 q 208 1044 261 1071 l 189 1072 z "},"Ȋ":{"ha":403,"x_min":11,"x_max":392,"o":"m 178 972 l 225 972 l 225 0 l 178 0 l 178 972 m 11 1051 q 67 1169 13 1125 q 201 1214 121 1214 q 336 1169 282 1214 q 392 1051 390 1125 l 354 1051 q 309 1144 353 1110 q 201 1179 265 1179 q 94 1144 138 1179 q 49 1051 50 1110 l 11 1051 z "},"Ī":{"ha":403,"x_min":42,"x_max":361,"o":"m 178 972 l 225 972 l 225 0 l 178 0 l 178 972 m 42 1150 l 361 1150 l 361 1113 l 42 1113 l 42 1150 z "},"Į":{"ha":403,"x_min":108,"x_max":283,"o":"m 178 972 l 225 972 l 225 0 l 178 0 l 178 972 m 210 -299 q 136 -267 164 -299 q 108 -186 108 -236 q 207 26 108 -71 l 225 0 q 162 -95 176 -53 q 147 -182 147 -137 q 166 -242 147 -221 q 213 -264 185 -264 q 267 -239 244 -264 l 283 -267 q 210 -299 254 -299 z "},"Ĩ":{"ha":403,"x_min":6,"x_max":397,"o":"m 178 972 l 225 972 l 225 0 l 178 0 l 178 972 m 290 1065 q 240 1078 261 1065 q 189 1118 218 1092 q 149 1150 167 1139 q 114 1161 132 1161 q 62 1137 81 1161 q 40 1069 43 1113 l 6 1069 q 37 1163 8 1128 q 113 1197 65 1197 q 163 1184 142 1197 q 214 1144 185 1171 q 253 1113 236 1124 q 289 1101 271 1101 q 341 1126 322 1101 q 363 1190 360 1150 l 397 1190 q 366 1100 394 1135 q 290 1065 338 1065 z "},"J":{"ha":671,"x_min":3,"x_max":501,"o":"m 251 -6 q 108 31 175 -6 q 3 132 42 68 l 32 163 q 128 69 72 101 q 253 38 185 38 q 405 97 356 38 q 454 278 454 156 l 454 929 l 93 929 l 93 972 l 501 972 l 501 276 q 251 -6 501 -6 z "},"Ĵ":{"ha":671,"x_min":3,"x_max":501,"o":"m 251 -6 q 108 31 175 -6 q 3 132 42 68 l 32 163 q 128 69 72 101 q 253 38 185 38 q 405 97 356 38 q 454 278 454 156 l 454 929 l 93 929 l 93 972 l 501 972 l 501 276 q 251 -6 501 -6 m 447 1051 l 297 1176 l 147 1051 l 96 1051 l 268 1208 l 326 1208 l 499 1051 l 447 1051 z "},"K":{"ha":968,"x_min":178,"x_max":950,"o":"m 457 496 l 225 257 l 225 0 l 178 0 l 178 972 l 225 972 l 225 318 l 861 972 l 919 972 l 489 528 l 950 0 l 892 0 l 457 496 z "},"Ǩ":{"ha":968,"x_min":178,"x_max":950,"o":"m 457 496 l 225 257 l 225 0 l 178 0 l 178 972 l 225 972 l 225 318 l 861 972 l 919 972 l 489 528 l 950 0 l 892 0 l 457 496 m 717 1208 l 544 1051 l 486 1051 l 314 1208 l 365 1208 l 515 1083 l 665 1208 l 717 1208 z "},"Ķ":{"ha":968,"x_min":178,"x_max":950,"o":"m 457 496 l 225 257 l 225 0 l 178 0 l 178 972 l 225 972 l 225 318 l 861 972 l 919 972 l 489 528 l 950 0 l 892 0 l 457 496 m 515 -165 q 546 -178 535 -165 q 557 -206 557 -190 q 547 -256 557 -224 l 514 -361 l 481 -361 l 507 -246 q 483 -233 493 -244 q 474 -206 474 -221 q 485 -177 474 -189 q 515 -165 497 -165 z "},"L":{"ha":808,"x_min":178,"x_max":794,"o":"m 178 972 l 225 972 l 225 43 l 794 43 l 794 0 l 178 0 l 178 972 z "},"Ǉ":{"ha":1479,"x_min":178,"x_max":1310,"o":"m 178 972 l 225 972 l 225 43 l 794 43 l 794 0 l 178 0 l 178 972 m 1060 -6 q 917 31 983 -6 q 811 132 850 68 l 840 163 q 937 69 881 101 q 1061 38 993 38 q 1213 97 1164 38 q 1263 278 1263 156 l 1263 929 l 901 929 l 901 972 l 1310 972 l 1310 276 q 1060 -6 1310 -6 z "},"Ĺ":{"ha":808,"x_min":132,"x_max":794,"o":"m 178 972 l 225 972 l 225 43 l 794 43 l 794 0 l 178 0 l 178 972 m 325 1208 l 400 1208 l 188 1051 l 132 1051 l 325 1208 z "},"Ľ":{"ha":808,"x_min":178,"x_max":794,"o":"m 178 972 l 225 972 l 225 43 l 794 43 l 794 0 l 178 0 l 178 972 m 618 1003 l 660 1003 l 654 750 l 618 750 l 618 1003 z "},"Ļ":{"ha":808,"x_min":178,"x_max":794,"o":"m 178 972 l 225 972 l 225 43 l 794 43 l 794 0 l 178 0 l 178 972 m 501 -165 q 532 -178 521 -165 q 543 -206 543 -190 q 533 -256 543 -224 l 500 -361 l 467 -361 l 493 -246 q 469 -233 479 -244 q 460 -206 460 -221 q 472 -177 460 -189 q 501 -165 483 -165 z "},"Ŀ":{"ha":808,"x_min":178,"x_max":794,"o":"m 178 972 l 225 972 l 225 43 l 794 43 l 794 0 l 178 0 l 178 972 m 606 464 q 574 477 588 464 q 561 508 561 490 q 574 540 561 526 q 606 553 588 553 q 637 540 624 553 q 650 508 650 526 q 637 477 650 490 q 606 464 624 464 z "},"Ḷ":{"ha":808,"x_min":178,"x_max":794,"o":"m 178 972 l 225 972 l 225 43 l 794 43 l 794 0 l 178 0 l 178 972 m 501 -249 q 472 -237 485 -249 q 460 -207 460 -225 q 472 -178 460 -190 q 501 -165 485 -165 q 531 -178 518 -165 q 543 -207 543 -190 q 531 -237 543 -225 q 501 -249 518 -249 z "},"ǈ":{"ha":1169,"x_min":178,"x_max":1038,"o":"m 178 972 l 225 972 l 225 43 l 794 43 l 794 0 l 178 0 l 178 972 m 835 -274 q 751 -261 790 -274 q 688 -224 713 -249 l 711 -190 q 832 -233 757 -233 q 934 -194 899 -233 q 969 -81 969 -154 l 969 721 l 1015 721 l 1015 -86 q 968 -223 1015 -172 q 835 -274 921 -274 m 992 910 q 960 923 974 910 q 946 954 946 936 q 959 987 946 974 q 992 1000 972 1000 q 1024 987 1010 1000 q 1038 956 1038 974 q 1024 924 1038 938 q 992 910 1010 910 z "},"Ḻ":{"ha":808,"x_min":178,"x_max":794,"o":"m 178 972 l 225 972 l 225 43 l 794 43 l 794 0 l 178 0 l 178 972 m 306 -187 l 697 -187 l 697 -225 l 306 -225 l 306 -187 z "},"Ł":{"ha":810,"x_min":49,"x_max":796,"o":"m 179 972 l 226 972 l 226 43 l 796 43 l 796 0 l 179 0 l 179 972 m 49 413 l 404 675 l 426 646 l 72 383 l 49 413 z "},"M":{"ha":1328,"x_min":178,"x_max":1150,"o":"m 1104 0 l 1103 876 l 676 135 l 651 135 l 224 874 l 224 0 l 178 0 l 178 972 l 217 972 l 664 194 l 1110 972 l 1149 972 l 1150 0 l 1104 0 z "},"Ṃ":{"ha":1328,"x_min":178,"x_max":1150,"o":"m 1104 0 l 1103 876 l 676 135 l 651 135 l 224 874 l 224 0 l 178 0 l 178 972 l 217 972 l 664 194 l 1110 972 l 1149 972 l 1150 0 l 1104 0 m 664 -249 q 635 -237 647 -249 q 622 -207 622 -225 q 635 -178 622 -190 q 664 -165 647 -165 q 693 -178 681 -165 q 706 -207 706 -190 q 693 -237 706 -225 q 664 -249 681 -249 z "},"N":{"ha":1132,"x_min":178,"x_max":954,"o":"m 954 972 l 954 0 l 915 0 l 225 886 l 225 0 l 178 0 l 178 972 l 217 972 l 907 86 l 907 972 l 954 972 z "},"Ǌ":{"ha":1803,"x_min":178,"x_max":1633,"o":"m 954 972 l 954 0 l 915 0 l 225 886 l 225 0 l 178 0 l 178 972 l 217 972 l 907 86 l 907 972 l 954 972 m 1383 -6 q 1240 31 1307 -6 q 1135 132 1174 68 l 1164 163 q 1260 69 1204 101 q 1385 38 1317 38 q 1537 97 1488 38 q 1586 278 1586 156 l 1586 929 l 1225 929 l 1225 972 l 1633 972 l 1633 276 q 1383 -6 1633 -6 z "},"Ń":{"ha":1132,"x_min":178,"x_max":954,"o":"m 954 972 l 954 0 l 915 0 l 225 886 l 225 0 l 178 0 l 178 972 l 217 972 l 907 86 l 907 972 l 954 972 m 690 1208 l 765 1208 l 553 1051 l 497 1051 l 690 1208 z "},"Ň":{"ha":1132,"x_min":178,"x_max":954,"o":"m 954 972 l 954 0 l 915 0 l 225 886 l 225 0 l 178 0 l 178 972 l 217 972 l 907 86 l 907 972 l 954 972 m 768 1208 l 596 1051 l 538 1051 l 365 1208 l 417 1208 l 567 1083 l 717 1208 l 768 1208 z "},"Ņ":{"ha":1132,"x_min":178,"x_max":954,"o":"m 954 972 l 954 0 l 915 0 l 225 886 l 225 0 l 178 0 l 178 972 l 217 972 l 907 86 l 907 972 l 954 972 m 567 -165 q 597 -178 586 -165 q 608 -206 608 -190 q 599 -256 608 -224 l 565 -361 l 532 -361 l 558 -246 q 535 -233 544 -244 q 525 -206 525 -221 q 537 -177 525 -189 q 567 -165 549 -165 z "},"Ṅ":{"ha":1132,"x_min":178,"x_max":954,"o":"m 954 972 l 954 0 l 915 0 l 225 886 l 225 0 l 178 0 l 178 972 l 217 972 l 907 86 l 907 972 l 954 972 m 567 1094 q 535 1108 549 1094 q 522 1139 522 1121 q 535 1170 522 1157 q 567 1183 549 1183 q 598 1170 585 1183 q 611 1139 611 1157 q 598 1108 611 1121 q 567 1094 585 1094 z "},"Ṇ":{"ha":1132,"x_min":178,"x_max":954,"o":"m 954 972 l 954 0 l 915 0 l 225 886 l 225 0 l 178 0 l 178 972 l 217 972 l 907 86 l 907 972 l 954 972 m 567 -249 q 538 -237 550 -249 q 525 -207 525 -225 q 538 -178 525 -190 q 567 -165 550 -165 q 596 -178 583 -165 q 608 -207 608 -190 q 596 -237 608 -225 q 567 -249 583 -249 z "},"Ŋ":{"ha":1132,"x_min":178,"x_max":954,"o":"m 954 972 l 954 10 q 704 -274 954 -274 q 566 -239 631 -274 q 461 -142 501 -204 l 489 -111 q 583 -201 528 -169 q 706 -232 639 -232 q 858 -172 808 -232 q 907 10 907 -112 l 907 11 l 225 886 l 225 0 l 178 0 l 178 972 l 217 972 l 907 86 l 907 972 l 954 972 z "},"ǋ":{"ha":1493,"x_min":178,"x_max":1361,"o":"m 954 972 l 954 0 l 915 0 l 225 886 l 225 0 l 178 0 l 178 972 l 217 972 l 907 86 l 907 972 l 954 972 m 1158 -274 q 1075 -261 1114 -274 q 1011 -224 1036 -249 l 1035 -190 q 1156 -233 1081 -233 q 1258 -194 1222 -233 q 1293 -81 1293 -154 l 1293 721 l 1339 721 l 1339 -86 q 1292 -223 1339 -172 q 1158 -274 1244 -274 m 1315 910 q 1283 923 1297 910 q 1269 954 1269 936 q 1283 987 1269 974 q 1315 1000 1296 1000 q 1347 987 1333 1000 q 1361 956 1361 974 q 1347 924 1361 938 q 1315 910 1333 910 z "},"Ṉ":{"ha":1132,"x_min":178,"x_max":954,"o":"m 954 972 l 954 0 l 915 0 l 225 886 l 225 0 l 178 0 l 178 972 l 217 972 l 907 86 l 907 972 l 954 972 m 371 -187 l 763 -187 l 763 -225 l 371 -225 l 371 -187 z "},"Ñ":{"ha":1132,"x_min":178,"x_max":954,"o":"m 954 972 l 954 0 l 915 0 l 225 886 l 225 0 l 178 0 l 178 972 l 217 972 l 907 86 l 907 972 l 954 972 m 656 1065 q 605 1078 626 1065 q 554 1118 583 1092 q 515 1150 532 1139 q 479 1161 497 1161 q 427 1137 446 1161 q 406 1069 408 1113 l 371 1069 q 402 1163 374 1128 q 478 1197 431 1197 q 528 1184 507 1197 q 579 1144 550 1171 q 619 1113 601 1124 q 654 1101 636 1101 q 706 1126 688 1101 q 728 1190 725 1150 l 763 1190 q 731 1100 760 1135 q 656 1065 703 1065 z "},"O":{"ha":1163,"x_min":79,"x_max":1083,"o":"m 581 -6 q 324 58 439 -6 q 144 235 210 122 q 79 486 79 347 q 144 738 79 625 q 324 914 210 850 q 581 978 439 978 q 838 914 722 978 q 1018 738 953 850 q 1083 486 1083 625 q 1018 235 1083 347 q 838 58 953 122 q 581 -6 722 -6 m 581 38 q 813 96 708 38 q 976 257 917 154 q 1036 486 1036 360 q 976 715 1036 613 q 813 876 917 818 q 581 935 708 935 q 349 876 453 935 q 186 715 246 818 q 126 486 126 613 q 186 257 126 360 q 349 96 246 154 q 581 38 453 38 z "},"Ó":{"ha":1163,"x_min":79,"x_max":1083,"o":"m 581 -6 q 324 58 439 -6 q 144 235 210 122 q 79 486 79 347 q 144 738 79 625 q 324 914 210 850 q 581 978 439 978 q 838 914 722 978 q 1018 738 953 850 q 1083 486 1083 625 q 1018 235 1083 347 q 838 58 953 122 q 581 -6 722 -6 m 581 38 q 813 96 708 38 q 976 257 917 154 q 1036 486 1036 360 q 976 715 1036 613 q 813 876 917 818 q 581 935 708 935 q 349 876 453 935 q 186 715 246 818 q 126 486 126 613 q 186 257 126 360 q 349 96 246 154 q 581 38 453 38 m 704 1208 l 779 1208 l 567 1051 l 511 1051 l 704 1208 z "},"Ŏ":{"ha":1163,"x_min":79,"x_max":1083,"o":"m 581 -6 q 324 58 439 -6 q 144 235 210 122 q 79 486 79 347 q 144 738 79 625 q 324 914 210 850 q 581 978 439 978 q 838 914 722 978 q 1018 738 953 850 q 1083 486 1083 625 q 1018 235 1083 347 q 838 58 953 122 q 581 -6 722 -6 m 581 38 q 813 96 708 38 q 976 257 917 154 q 1036 486 1036 360 q 976 715 1036 613 q 813 876 917 818 q 581 935 708 935 q 349 876 453 935 q 186 715 246 818 q 126 486 126 613 q 186 257 126 360 q 349 96 246 154 q 581 38 453 38 m 581 1047 q 446 1091 500 1047 q 390 1208 392 1135 l 428 1208 q 473 1117 429 1151 q 581 1082 517 1082 q 688 1117 644 1082 q 733 1208 732 1151 l 771 1208 q 715 1091 769 1135 q 581 1047 661 1047 z "},"Ô":{"ha":1163,"x_min":79,"x_max":1083,"o":"m 581 -6 q 324 58 439 -6 q 144 235 210 122 q 79 486 79 347 q 144 738 79 625 q 324 914 210 850 q 581 978 439 978 q 838 914 722 978 q 1018 738 953 850 q 1083 486 1083 625 q 1018 235 1083 347 q 838 58 953 122 q 581 -6 722 -6 m 581 38 q 813 96 708 38 q 976 257 917 154 q 1036 486 1036 360 q 976 715 1036 613 q 813 876 917 818 q 581 935 708 935 q 349 876 453 935 q 186 715 246 818 q 126 486 126 613 q 186 257 126 360 q 349 96 246 154 q 581 38 453 38 m 731 1051 l 581 1176 l 431 1051 l 379 1051 l 551 1208 l 610 1208 l 782 1051 l 731 1051 z "},"Ố":{"ha":1163,"x_min":79,"x_max":1083,"o":"m 581 -6 q 324 58 439 -6 q 144 235 210 122 q 79 486 79 347 q 144 738 79 625 q 324 914 210 850 q 581 978 439 978 q 838 914 722 978 q 1018 738 953 850 q 1083 486 1083 625 q 1018 235 1083 347 q 838 58 953 122 q 581 -6 722 -6 m 581 38 q 813 96 708 38 q 976 257 917 154 q 1036 486 1036 360 q 976 715 1036 613 q 813 876 917 818 q 581 935 708 935 q 349 876 453 935 q 186 715 246 818 q 126 486 126 613 q 186 257 126 360 q 349 96 246 154 q 581 38 453 38 m 726 1051 l 581 1138 l 435 1051 l 379 1051 l 553 1167 l 608 1167 l 782 1051 l 726 1051 m 864 1300 l 936 1300 l 743 1158 l 690 1158 l 864 1300 z "},"Ộ":{"ha":1163,"x_min":79,"x_max":1083,"o":"m 581 -6 q 324 58 439 -6 q 144 235 210 122 q 79 486 79 347 q 144 738 79 625 q 324 914 210 850 q 581 978 439 978 q 838 914 722 978 q 1018 738 953 850 q 1083 486 1083 625 q 1018 235 1083 347 q 838 58 953 122 q 581 -6 722 -6 m 581 38 q 813 96 708 38 q 976 257 917 154 q 1036 486 1036 360 q 976 715 1036 613 q 813 876 917 818 q 581 935 708 935 q 349 876 453 935 q 186 715 246 818 q 126 486 126 613 q 186 257 126 360 q 349 96 246 154 q 581 38 453 38 m 581 -249 q 551 -237 564 -249 q 539 -207 539 -225 q 551 -178 539 -190 q 581 -165 564 -165 q 610 -178 597 -165 q 622 -207 622 -190 q 610 -237 622 -225 q 581 -249 597 -249 m 731 1051 l 581 1176 l 431 1051 l 379 1051 l 551 1208 l 610 1208 l 782 1051 l 731 1051 z "},"Ồ":{"ha":1163,"x_min":79,"x_max":1083,"o":"m 581 -6 q 324 58 439 -6 q 144 235 210 122 q 79 486 79 347 q 144 738 79 625 q 324 914 210 850 q 581 978 439 978 q 838 914 722 978 q 1018 738 953 850 q 1083 486 1083 625 q 1018 235 1083 347 q 838 58 953 122 q 581 -6 722 -6 m 581 38 q 813 96 708 38 q 976 257 917 154 q 1036 486 1036 360 q 976 715 1036 613 q 813 876 917 818 q 581 935 708 935 q 349 876 453 935 q 186 715 246 818 q 126 486 126 613 q 186 257 126 360 q 349 96 246 154 q 581 38 453 38 m 726 1051 l 581 1138 l 435 1051 l 379 1051 l 553 1167 l 608 1167 l 782 1051 l 726 1051 m 581 1300 l 653 1300 l 826 1158 l 774 1158 l 581 1300 z "},"Ổ":{"ha":1163,"x_min":79,"x_max":1083,"o":"m 581 -6 q 324 58 439 -6 q 144 235 210 122 q 79 486 79 347 q 144 738 79 625 q 324 914 210 850 q 581 978 439 978 q 838 914 722 978 q 1018 738 953 850 q 1083 486 1083 625 q 1018 235 1083 347 q 838 58 953 122 q 581 -6 722 -6 m 581 38 q 813 96 708 38 q 976 257 917 154 q 1036 486 1036 360 q 976 715 1036 613 q 813 876 917 818 q 581 935 708 935 q 349 876 453 935 q 186 715 246 818 q 126 486 126 613 q 186 257 126 360 q 349 96 246 154 q 581 38 453 38 m 726 1051 l 581 1138 l 435 1051 l 379 1051 l 553 1167 l 608 1167 l 782 1051 l 726 1051 m 715 1163 q 761 1196 744 1176 q 778 1238 778 1215 q 762 1274 778 1260 q 719 1288 746 1288 q 660 1269 688 1288 l 647 1296 q 724 1319 678 1319 q 788 1297 764 1319 q 811 1239 811 1275 q 791 1181 811 1207 q 733 1138 771 1154 l 715 1163 z "},"Ỗ":{"ha":1163,"x_min":79,"x_max":1083,"o":"m 581 -6 q 324 58 439 -6 q 144 235 210 122 q 79 486 79 347 q 144 738 79 625 q 324 914 210 850 q 581 978 439 978 q 838 914 722 978 q 1018 738 953 850 q 1083 486 1083 625 q 1018 235 1083 347 q 838 58 953 122 q 581 -6 722 -6 m 581 38 q 813 96 708 38 q 976 257 917 154 q 1036 486 1036 360 q 976 715 1036 613 q 813 876 917 818 q 581 935 708 935 q 349 876 453 935 q 186 715 246 818 q 126 486 126 613 q 186 257 126 360 q 349 96 246 154 q 581 38 453 38 m 726 1051 l 581 1138 l 435 1051 l 379 1051 l 553 1167 l 608 1167 l 782 1051 l 726 1051 m 668 1214 q 618 1225 640 1214 q 569 1256 596 1236 q 527 1281 542 1274 q 494 1289 513 1289 q 443 1270 463 1289 q 422 1218 424 1251 l 388 1218 q 418 1295 389 1267 q 494 1324 447 1324 q 542 1313 521 1324 q 592 1282 564 1303 q 634 1256 619 1264 q 667 1249 649 1249 q 719 1267 699 1249 q 740 1318 739 1285 l 774 1318 q 744 1242 772 1271 q 668 1214 715 1214 z "},"Ȍ":{"ha":1163,"x_min":79,"x_max":1083,"o":"m 581 -6 q 324 58 439 -6 q 144 235 210 122 q 79 486 79 347 q 144 738 79 625 q 324 914 210 850 q 581 978 439 978 q 838 914 722 978 q 1018 738 953 850 q 1083 486 1083 625 q 1018 235 1083 347 q 838 58 953 122 q 581 -6 722 -6 m 581 38 q 813 96 708 38 q 976 257 917 154 q 1036 486 1036 360 q 976 715 1036 613 q 813 876 917 818 q 581 935 708 935 q 349 876 453 935 q 186 715 246 818 q 126 486 126 613 q 186 257 126 360 q 349 96 246 154 q 581 38 453 38 m 293 1208 l 356 1208 l 506 1051 l 454 1051 l 293 1208 m 494 1208 l 557 1208 l 707 1051 l 656 1051 l 494 1208 z "},"Ö":{"ha":1163,"x_min":79,"x_max":1083,"o":"m 581 -6 q 324 58 439 -6 q 144 235 210 122 q 79 486 79 347 q 144 738 79 625 q 324 914 210 850 q 581 978 439 978 q 838 914 722 978 q 1018 738 953 850 q 1083 486 1083 625 q 1018 235 1083 347 q 838 58 953 122 q 581 -6 722 -6 m 581 38 q 813 96 708 38 q 976 257 917 154 q 1036 486 1036 360 q 976 715 1036 613 q 813 876 917 818 q 581 935 708 935 q 349 876 453 935 q 186 715 246 818 q 126 486 126 613 q 186 257 126 360 q 349 96 246 154 q 581 38 453 38 m 464 1094 q 435 1107 447 1094 q 422 1136 422 1119 q 435 1167 422 1154 q 464 1179 447 1179 q 494 1167 482 1179 q 506 1136 506 1154 q 494 1107 506 1119 q 464 1094 482 1094 m 697 1094 q 667 1107 679 1094 q 656 1136 656 1119 q 667 1167 656 1154 q 697 1179 679 1179 q 726 1167 714 1179 q 739 1136 739 1154 q 726 1107 739 1119 q 697 1094 714 1094 z "},"Ȫ":{"ha":1163,"x_min":79,"x_max":1083,"o":"m 581 -6 q 324 58 439 -6 q 144 235 210 122 q 79 486 79 347 q 144 738 79 625 q 324 914 210 850 q 581 978 439 978 q 838 914 722 978 q 1018 738 953 850 q 1083 486 1083 625 q 1018 235 1083 347 q 838 58 953 122 q 581 -6 722 -6 m 581 38 q 813 96 708 38 q 976 257 917 154 q 1036 486 1036 360 q 976 715 1036 613 q 813 876 917 818 q 581 935 708 935 q 349 876 453 935 q 186 715 246 818 q 126 486 126 613 q 186 257 126 360 q 349 96 246 154 q 581 38 453 38 m 465 1094 q 435 1107 447 1094 q 424 1136 424 1119 q 435 1166 424 1154 q 465 1178 447 1178 q 494 1166 482 1178 q 507 1136 507 1154 q 494 1107 507 1119 q 465 1094 482 1094 m 697 1094 q 667 1107 679 1094 q 656 1136 656 1119 q 667 1166 656 1154 q 697 1178 679 1178 q 726 1166 714 1178 q 739 1136 739 1154 q 726 1107 739 1119 q 697 1094 714 1094 m 385 1292 l 776 1292 l 776 1256 l 385 1256 l 385 1292 z "},"Ȱ":{"ha":1163,"x_min":79,"x_max":1083,"o":"m 581 -6 q 324 58 439 -6 q 144 235 210 122 q 79 486 79 347 q 144 738 79 625 q 324 914 210 850 q 581 978 439 978 q 838 914 722 978 q 1018 738 953 850 q 1083 486 1083 625 q 1018 235 1083 347 q 838 58 953 122 q 581 -6 722 -6 m 581 38 q 813 96 708 38 q 976 257 917 154 q 1036 486 1036 360 q 976 715 1036 613 q 813 876 917 818 q 581 935 708 935 q 349 876 453 935 q 186 715 246 818 q 126 486 126 613 q 186 257 126 360 q 349 96 246 154 q 581 38 453 38 m 581 1094 q 551 1107 564 1094 q 539 1136 539 1119 q 551 1167 539 1154 q 581 1179 564 1179 q 610 1167 597 1179 q 622 1136 622 1154 q 610 1107 622 1119 q 581 1094 597 1094 m 385 1292 l 776 1292 l 776 1256 l 385 1256 l 385 1292 z "},"Ọ":{"ha":1163,"x_min":79,"x_max":1083,"o":"m 581 -6 q 324 58 439 -6 q 144 235 210 122 q 79 486 79 347 q 144 738 79 625 q 324 914 210 850 q 581 978 439 978 q 838 914 722 978 q 1018 738 953 850 q 1083 486 1083 625 q 1018 235 1083 347 q 838 58 953 122 q 581 -6 722 -6 m 581 38 q 813 96 708 38 q 976 257 917 154 q 1036 486 1036 360 q 976 715 1036 613 q 813 876 917 818 q 581 935 708 935 q 349 876 453 935 q 186 715 246 818 q 126 486 126 613 q 186 257 126 360 q 349 96 246 154 q 581 38 453 38 m 581 -249 q 551 -237 564 -249 q 539 -207 539 -225 q 551 -178 539 -190 q 581 -165 564 -165 q 610 -178 597 -165 q 622 -207 622 -190 q 610 -237 622 -225 q 581 -249 597 -249 z "},"Ò":{"ha":1163,"x_min":79,"x_max":1083,"o":"m 581 -6 q 324 58 439 -6 q 144 235 210 122 q 79 486 79 347 q 144 738 79 625 q 324 914 210 850 q 581 978 439 978 q 838 914 722 978 q 1018 738 953 850 q 1083 486 1083 625 q 1018 235 1083 347 q 838 58 953 122 q 581 -6 722 -6 m 581 38 q 813 96 708 38 q 976 257 917 154 q 1036 486 1036 360 q 976 715 1036 613 q 813 876 917 818 q 581 935 708 935 q 349 876 453 935 q 186 715 246 818 q 126 486 126 613 q 186 257 126 360 q 349 96 246 154 q 581 38 453 38 m 382 1208 l 457 1208 l 650 1051 l 594 1051 l 382 1208 z "},"Ỏ":{"ha":1163,"x_min":79,"x_max":1083,"o":"m 581 -6 q 324 58 439 -6 q 144 235 210 122 q 79 486 79 347 q 144 738 79 625 q 324 914 210 850 q 581 978 439 978 q 838 914 722 978 q 1018 738 953 850 q 1083 486 1083 625 q 1018 235 1083 347 q 838 58 953 122 q 581 -6 722 -6 m 581 38 q 813 96 708 38 q 976 257 917 154 q 1036 486 1036 360 q 976 715 1036 613 q 813 876 917 818 q 581 935 708 935 q 349 876 453 935 q 186 715 246 818 q 126 486 126 613 q 186 257 126 360 q 349 96 246 154 q 581 38 453 38 m 568 1072 q 654 1176 654 1110 q 632 1229 654 1208 q 575 1250 610 1250 q 489 1224 529 1250 l 475 1254 q 522 1276 494 1268 q 576 1285 550 1285 q 660 1256 629 1285 q 690 1181 690 1228 q 665 1103 690 1136 q 588 1044 640 1071 l 568 1072 z "},"Ơ":{"ha":1163,"x_min":79,"x_max":1083,"o":"m 814 924 q 1011 747 939 864 q 1083 486 1083 629 q 1018 235 1083 347 q 838 58 953 122 q 581 -6 722 -6 q 324 58 439 -6 q 144 235 210 122 q 79 486 79 347 q 144 738 79 625 q 325 914 210 850 q 582 978 440 978 q 746 967 649 978 q 868 957 819 957 q 1018 1068 1018 957 q 990 1161 1018 1113 l 1025 1175 q 1048 1125 1039 1153 q 1057 1069 1057 1097 q 867 921 1057 921 q 814 924 853 921 m 581 38 q 813 97 708 38 q 976 258 917 156 q 1036 486 1036 361 q 976 714 1036 611 q 813 876 917 817 q 581 935 708 935 q 349 876 453 935 q 186 714 246 817 q 126 486 126 611 q 186 258 126 361 q 349 97 246 156 q 581 38 453 38 z "},"Ớ":{"ha":1163,"x_min":79,"x_max":1083,"o":"m 814 924 q 1011 747 939 864 q 1083 486 1083 629 q 1018 235 1083 347 q 838 58 953 122 q 581 -6 722 -6 q 324 58 439 -6 q 144 235 210 122 q 79 486 79 347 q 144 738 79 625 q 325 914 210 850 q 582 978 440 978 q 746 967 649 978 q 868 957 819 957 q 1018 1068 1018 957 q 990 1161 1018 1113 l 1025 1175 q 1048 1125 1039 1153 q 1057 1069 1057 1097 q 867 921 1057 921 q 814 924 853 921 m 581 38 q 813 97 708 38 q 976 258 917 156 q 1036 486 1036 361 q 976 714 1036 611 q 813 876 917 817 q 581 935 708 935 q 349 876 453 935 q 186 714 246 817 q 126 486 126 611 q 186 258 126 361 q 349 97 246 156 q 581 38 453 38 m 704 1208 l 779 1208 l 567 1051 l 511 1051 l 704 1208 z "},"Ợ":{"ha":1163,"x_min":79,"x_max":1083,"o":"m 814 924 q 1011 747 939 864 q 1083 486 1083 629 q 1018 235 1083 347 q 838 58 953 122 q 581 -6 722 -6 q 324 58 439 -6 q 144 235 210 122 q 79 486 79 347 q 144 738 79 625 q 325 914 210 850 q 582 978 440 978 q 746 967 649 978 q 868 957 819 957 q 1018 1068 1018 957 q 990 1161 1018 1113 l 1025 1175 q 1048 1125 1039 1153 q 1057 1069 1057 1097 q 867 921 1057 921 q 814 924 853 921 m 581 38 q 813 97 708 38 q 976 258 917 156 q 1036 486 1036 361 q 976 714 1036 611 q 813 876 917 817 q 581 935 708 935 q 349 876 453 935 q 186 714 246 817 q 126 486 126 611 q 186 258 126 361 q 349 97 246 156 q 581 38 453 38 m 581 -249 q 551 -237 564 -249 q 539 -207 539 -225 q 551 -178 539 -190 q 581 -165 564 -165 q 610 -178 597 -165 q 622 -207 622 -190 q 610 -237 622 -225 q 581 -249 597 -249 z "},"Ờ":{"ha":1163,"x_min":79,"x_max":1083,"o":"m 814 924 q 1011 747 939 864 q 1083 486 1083 629 q 1018 235 1083 347 q 838 58 953 122 q 581 -6 722 -6 q 324 58 439 -6 q 144 235 210 122 q 79 486 79 347 q 144 738 79 625 q 325 914 210 850 q 582 978 440 978 q 746 967 649 978 q 868 957 819 957 q 1018 1068 1018 957 q 990 1161 1018 1113 l 1025 1175 q 1048 1125 1039 1153 q 1057 1069 1057 1097 q 867 921 1057 921 q 814 924 853 921 m 581 38 q 813 97 708 38 q 976 258 917 156 q 1036 486 1036 361 q 976 714 1036 611 q 813 876 917 817 q 581 935 708 935 q 349 876 453 935 q 186 714 246 817 q 126 486 126 611 q 186 258 126 361 q 349 97 246 156 q 581 38 453 38 m 382 1208 l 457 1208 l 650 1051 l 594 1051 l 382 1208 z "},"Ở":{"ha":1163,"x_min":79,"x_max":1083,"o":"m 814 924 q 1011 747 939 864 q 1083 486 1083 629 q 1018 235 1083 347 q 838 58 953 122 q 581 -6 722 -6 q 324 58 439 -6 q 144 235 210 122 q 79 486 79 347 q 144 738 79 625 q 325 914 210 850 q 582 978 440 978 q 746 967 649 978 q 868 957 819 957 q 1018 1068 1018 957 q 990 1161 1018 1113 l 1025 1175 q 1048 1125 1039 1153 q 1057 1069 1057 1097 q 867 921 1057 921 q 814 924 853 921 m 581 38 q 813 97 708 38 q 976 258 917 156 q 1036 486 1036 361 q 976 714 1036 611 q 813 876 917 817 q 581 935 708 935 q 349 876 453 935 q 186 714 246 817 q 126 486 126 611 q 186 258 126 361 q 349 97 246 156 q 581 38 453 38 m 568 1072 q 654 1176 654 1110 q 632 1229 654 1208 q 575 1250 610 1250 q 489 1224 529 1250 l 475 1254 q 522 1276 494 1268 q 576 1285 550 1285 q 660 1256 629 1285 q 690 1181 690 1228 q 665 1103 690 1136 q 588 1044 640 1071 l 568 1072 z "},"Ỡ":{"ha":1163,"x_min":79,"x_max":1083,"o":"m 814 924 q 1011 747 939 864 q 1083 486 1083 629 q 1018 235 1083 347 q 838 58 953 122 q 581 -6 722 -6 q 324 58 439 -6 q 144 235 210 122 q 79 486 79 347 q 144 738 79 625 q 325 914 210 850 q 582 978 440 978 q 746 967 649 978 q 868 957 819 957 q 1018 1068 1018 957 q 990 1161 1018 1113 l 1025 1175 q 1048 1125 1039 1153 q 1057 1069 1057 1097 q 867 921 1057 921 q 814 924 853 921 m 581 38 q 813 97 708 38 q 976 258 917 156 q 1036 486 1036 361 q 976 714 1036 611 q 813 876 917 817 q 581 935 708 935 q 349 876 453 935 q 186 714 246 817 q 126 486 126 611 q 186 258 126 361 q 349 97 246 156 q 581 38 453 38 m 669 1065 q 619 1078 640 1065 q 568 1118 597 1092 q 528 1150 546 1139 q 493 1161 511 1161 q 441 1137 460 1161 q 419 1069 422 1113 l 385 1069 q 416 1163 388 1128 q 492 1197 444 1197 q 542 1184 521 1197 q 593 1144 564 1171 q 633 1113 615 1124 q 668 1101 650 1101 q 720 1126 701 1101 q 742 1190 739 1150 l 776 1190 q 745 1100 774 1135 q 669 1065 717 1065 z "},"Ő":{"ha":1163,"x_min":79,"x_max":1083,"o":"m 581 -6 q 324 58 439 -6 q 144 235 210 122 q 79 486 79 347 q 144 738 79 625 q 324 914 210 850 q 581 978 439 978 q 838 914 722 978 q 1018 738 953 850 q 1083 486 1083 625 q 1018 235 1083 347 q 838 58 953 122 q 581 -6 722 -6 m 581 38 q 813 96 708 38 q 976 257 917 154 q 1036 486 1036 360 q 976 715 1036 613 q 813 876 917 818 q 581 935 708 935 q 349 876 453 935 q 186 715 246 818 q 126 486 126 613 q 186 257 126 360 q 349 96 246 154 q 581 38 453 38 m 604 1208 l 667 1208 l 506 1051 l 454 1051 l 604 1208 m 806 1208 l 868 1208 l 707 1051 l 656 1051 l 806 1208 z "},"Ȏ":{"ha":1163,"x_min":79,"x_max":1083,"o":"m 581 -6 q 324 58 439 -6 q 144 235 210 122 q 79 486 79 347 q 144 738 79 625 q 324 914 210 850 q 581 978 439 978 q 838 914 722 978 q 1018 738 953 850 q 1083 486 1083 625 q 1018 235 1083 347 q 838 58 953 122 q 581 -6 722 -6 m 581 38 q 813 96 708 38 q 976 257 917 154 q 1036 486 1036 360 q 976 715 1036 613 q 813 876 917 818 q 581 935 708 935 q 349 876 453 935 q 186 715 246 818 q 126 486 126 613 q 186 257 126 360 q 349 96 246 154 q 581 38 453 38 m 390 1051 q 446 1169 392 1125 q 581 1214 500 1214 q 715 1169 661 1214 q 771 1051 769 1125 l 733 1051 q 688 1144 732 1110 q 581 1179 644 1179 q 473 1144 517 1179 q 428 1051 429 1110 l 390 1051 z "},"Ō":{"ha":1163,"x_min":79,"x_max":1083,"o":"m 581 -6 q 324 58 439 -6 q 144 235 210 122 q 79 486 79 347 q 144 738 79 625 q 324 914 210 850 q 581 978 439 978 q 838 914 722 978 q 1018 738 953 850 q 1083 486 1083 625 q 1018 235 1083 347 q 838 58 953 122 q 581 -6 722 -6 m 581 38 q 813 96 708 38 q 976 257 917 154 q 1036 486 1036 360 q 976 715 1036 613 q 813 876 917 818 q 581 935 708 935 q 349 876 453 935 q 186 715 246 818 q 126 486 126 613 q 186 257 126 360 q 349 96 246 154 q 581 38 453 38 m 385 1149 l 776 1149 l 776 1111 l 385 1111 l 385 1149 z "},"Ṓ":{"ha":1163,"x_min":79,"x_max":1083,"o":"m 581 -6 q 324 58 439 -6 q 144 235 210 122 q 79 486 79 347 q 144 738 79 625 q 324 914 210 850 q 581 978 439 978 q 838 914 722 978 q 1018 738 953 850 q 1083 486 1083 625 q 1018 235 1083 347 q 838 58 953 122 q 581 -6 722 -6 m 581 38 q 813 96 708 38 q 976 257 917 154 q 1036 486 1036 360 q 976 715 1036 613 q 813 876 917 818 q 581 935 708 935 q 349 876 453 935 q 186 715 246 818 q 126 486 126 613 q 186 257 126 360 q 349 96 246 154 q 581 38 453 38 m 385 1128 l 776 1128 l 776 1092 l 385 1092 l 385 1128 m 686 1357 l 758 1357 l 565 1215 l 513 1215 l 686 1357 z "},"Ṑ":{"ha":1163,"x_min":79,"x_max":1083,"o":"m 581 -6 q 324 58 439 -6 q 144 235 210 122 q 79 486 79 347 q 144 738 79 625 q 324 914 210 850 q 581 978 439 978 q 838 914 722 978 q 1018 738 953 850 q 1083 486 1083 625 q 1018 235 1083 347 q 838 58 953 122 q 581 -6 722 -6 m 581 38 q 813 96 708 38 q 976 257 917 154 q 1036 486 1036 360 q 976 715 1036 613 q 813 876 917 818 q 581 935 708 935 q 349 876 453 935 q 186 715 246 818 q 126 486 126 613 q 186 257 126 360 q 349 96 246 154 q 581 38 453 38 m 385 1128 l 776 1128 l 776 1092 l 385 1092 l 385 1128 m 403 1357 l 475 1357 l 649 1215 l 596 1215 l 403 1357 z "},"Ǫ":{"ha":1163,"x_min":79,"x_max":1083,"o":"m 581 978 q 838 914 722 978 q 1018 738 953 850 q 1083 486 1083 625 q 1032 262 1083 363 q 894 96 981 161 q 700 8 807 31 q 547 -62 610 -10 q 483 -178 483 -114 q 510 -242 483 -219 q 581 -264 538 -264 q 667 -233 632 -264 l 683 -261 q 578 -299 640 -299 q 481 -266 518 -299 q 444 -179 444 -233 q 474 -91 444 -136 q 572 -6 503 -46 q 321 60 433 -4 q 144 237 208 125 q 79 486 79 349 q 144 738 79 625 q 324 914 210 850 q 581 978 439 978 m 581 38 q 813 96 708 38 q 976 257 917 154 q 1036 486 1036 360 q 976 715 1036 613 q 813 876 917 818 q 581 935 708 935 q 349 876 453 935 q 186 715 246 818 q 126 486 126 613 q 186 257 126 360 q 349 96 246 154 q 581 38 453 38 z "},"Ø":{"ha":1163,"x_min":79,"x_max":1083,"o":"m 581 -6 q 324 58 439 -6 q 144 235 210 122 q 79 486 79 347 q 144 738 79 625 q 324 914 210 850 q 581 978 439 978 q 838 914 722 978 q 1018 738 953 850 q 1083 486 1083 625 q 1018 235 1083 347 q 838 58 953 122 q 581 -6 722 -6 m 581 38 q 813 96 708 38 q 976 257 917 154 q 1036 486 1036 360 q 976 715 1036 613 q 813 876 917 818 q 581 935 708 935 q 349 876 453 935 q 186 715 246 818 q 126 486 126 613 q 186 257 126 360 q 349 96 246 154 q 581 38 453 38 m 985 1069 l 1029 1069 l 178 -97 l 133 -97 l 985 1069 z "},"Ǿ":{"ha":1163,"x_min":79,"x_max":1083,"o":"m 581 -6 q 324 58 439 -6 q 144 235 210 122 q 79 486 79 347 q 144 738 79 625 q 324 914 210 850 q 581 978 439 978 q 838 914 722 978 q 1018 738 953 850 q 1083 486 1083 625 q 1018 235 1083 347 q 838 58 953 122 q 581 -6 722 -6 m 581 38 q 813 96 708 38 q 976 257 917 154 q 1036 486 1036 360 q 976 715 1036 613 q 813 876 917 818 q 581 935 708 935 q 349 876 453 935 q 186 715 246 818 q 126 486 126 613 q 186 257 126 360 q 349 96 246 154 q 581 38 453 38 m 985 1069 l 1029 1069 l 178 -97 l 133 -97 l 985 1069 m 704 1208 l 779 1208 l 567 1051 l 511 1051 l 704 1208 z "},"Õ":{"ha":1163,"x_min":79,"x_max":1083,"o":"m 581 -6 q 324 58 439 -6 q 144 235 210 122 q 79 486 79 347 q 144 738 79 625 q 324 914 210 850 q 581 978 439 978 q 838 914 722 978 q 1018 738 953 850 q 1083 486 1083 625 q 1018 235 1083 347 q 838 58 953 122 q 581 -6 722 -6 m 581 38 q 813 96 708 38 q 976 257 917 154 q 1036 486 1036 360 q 976 715 1036 613 q 813 876 917 818 q 581 935 708 935 q 349 876 453 935 q 186 715 246 818 q 126 486 126 613 q 186 257 126 360 q 349 96 246 154 q 581 38 453 38 m 669 1065 q 619 1078 640 1065 q 568 1118 597 1092 q 528 1150 546 1139 q 493 1161 511 1161 q 441 1137 460 1161 q 419 1069 422 1113 l 385 1069 q 416 1163 388 1128 q 492 1197 444 1197 q 542 1184 521 1197 q 593 1144 564 1171 q 633 1113 615 1124 q 668 1101 650 1101 q 720 1126 701 1101 q 742 1190 739 1150 l 776 1190 q 745 1100 774 1135 q 669 1065 717 1065 z "},"Ṍ":{"ha":1163,"x_min":79,"x_max":1083,"o":"m 581 -6 q 324 58 439 -6 q 144 235 210 122 q 79 486 79 347 q 144 738 79 625 q 324 914 210 850 q 581 978 439 978 q 838 914 722 978 q 1018 738 953 850 q 1083 486 1083 625 q 1018 235 1083 347 q 838 58 953 122 q 581 -6 722 -6 m 581 38 q 813 96 708 38 q 976 257 917 154 q 1036 486 1036 360 q 976 715 1036 613 q 813 876 917 818 q 581 935 708 935 q 349 876 453 935 q 186 715 246 818 q 126 486 126 613 q 186 257 126 360 q 349 96 246 154 q 581 38 453 38 m 668 1069 q 618 1081 640 1069 q 569 1111 596 1092 q 527 1137 542 1129 q 494 1144 513 1144 q 443 1126 463 1144 q 422 1074 424 1107 l 388 1074 q 418 1151 389 1122 q 494 1179 447 1179 q 542 1169 521 1179 q 592 1138 564 1158 q 634 1112 619 1119 q 667 1104 649 1104 q 719 1122 699 1104 q 740 1174 739 1140 l 774 1174 q 744 1098 772 1126 q 668 1069 715 1069 m 686 1357 l 758 1357 l 565 1215 l 513 1215 l 686 1357 z "},"Ṏ":{"ha":1163,"x_min":79,"x_max":1083,"o":"m 581 -6 q 324 58 439 -6 q 144 235 210 122 q 79 486 79 347 q 144 738 79 625 q 324 914 210 850 q 581 978 439 978 q 838 914 722 978 q 1018 738 953 850 q 1083 486 1083 625 q 1018 235 1083 347 q 838 58 953 122 q 581 -6 722 -6 m 581 38 q 813 96 708 38 q 976 257 917 154 q 1036 486 1036 360 q 976 715 1036 613 q 813 876 917 818 q 581 935 708 935 q 349 876 453 935 q 186 715 246 818 q 126 486 126 613 q 186 257 126 360 q 349 96 246 154 q 581 38 453 38 m 668 1069 q 618 1081 640 1069 q 569 1111 596 1092 q 527 1137 542 1129 q 494 1144 513 1144 q 443 1126 463 1144 q 422 1074 424 1107 l 388 1074 q 418 1151 389 1122 q 494 1179 447 1179 q 542 1169 521 1179 q 592 1138 564 1158 q 634 1112 619 1119 q 667 1104 649 1104 q 719 1122 699 1104 q 740 1174 739 1140 l 774 1174 q 744 1098 772 1126 q 668 1069 715 1069 m 465 1258 q 435 1271 447 1258 q 424 1300 424 1283 q 435 1330 424 1318 q 465 1342 447 1342 q 494 1330 482 1342 q 507 1300 507 1318 q 494 1271 507 1283 q 465 1258 482 1258 m 697 1258 q 667 1271 679 1258 q 656 1300 656 1283 q 667 1330 656 1318 q 697 1342 679 1342 q 726 1330 714 1342 q 739 1300 739 1318 q 726 1271 739 1283 q 697 1258 714 1258 z "},"Ȭ":{"ha":1163,"x_min":79,"x_max":1083,"o":"m 581 -6 q 324 58 439 -6 q 144 235 210 122 q 79 486 79 347 q 144 738 79 625 q 324 914 210 850 q 581 978 439 978 q 838 914 722 978 q 1018 738 953 850 q 1083 486 1083 625 q 1018 235 1083 347 q 838 58 953 122 q 581 -6 722 -6 m 581 38 q 813 96 708 38 q 976 257 917 154 q 1036 486 1036 360 q 976 715 1036 613 q 813 876 917 818 q 581 935 708 935 q 349 876 453 935 q 186 715 246 818 q 126 486 126 613 q 186 257 126 360 q 349 96 246 154 q 581 38 453 38 m 668 1069 q 618 1081 640 1069 q 569 1111 596 1092 q 527 1137 542 1129 q 494 1144 513 1144 q 443 1126 463 1144 q 422 1074 424 1107 l 388 1074 q 418 1151 389 1122 q 494 1179 447 1179 q 542 1169 521 1179 q 592 1138 564 1158 q 634 1112 619 1119 q 667 1104 649 1104 q 719 1122 699 1104 q 740 1174 739 1140 l 774 1174 q 744 1098 772 1126 q 668 1069 715 1069 m 385 1292 l 776 1292 l 776 1256 l 385 1256 l 385 1292 z "},"Œ":{"ha":1547,"x_min":79,"x_max":1454,"o":"m 1454 43 l 1454 0 l 594 0 q 326 62 443 0 q 144 234 208 124 q 79 485 79 344 q 144 736 79 625 q 326 910 208 847 q 594 972 443 972 l 1435 972 l 1435 929 l 844 929 l 844 515 l 1372 515 l 1372 472 l 844 472 l 844 43 l 1454 43 m 797 43 l 797 929 l 596 929 q 349 872 456 929 q 185 714 243 815 q 126 485 126 613 q 185 256 126 357 q 349 99 243 156 q 596 43 456 43 l 797 43 z "},"P":{"ha":989,"x_min":178,"x_max":901,"o":"m 515 972 q 799 887 697 972 q 901 650 901 801 q 799 412 901 497 q 515 326 697 326 l 225 326 l 225 0 l 178 0 l 178 972 l 515 972 m 518 369 q 768 442 681 369 q 856 650 856 515 q 768 856 856 783 q 518 929 681 929 l 225 929 l 225 369 l 518 369 z "},"Þ":{"ha":989,"x_min":178,"x_max":901,"o":"m 515 836 q 799 751 697 836 q 901 514 901 665 q 799 276 901 361 q 515 190 697 190 l 225 190 l 225 0 l 178 0 l 178 972 l 225 972 l 225 836 l 515 836 m 518 232 q 768 306 681 232 q 856 514 856 379 q 768 721 856 647 q 518 794 681 794 l 225 794 l 225 232 l 518 232 z "},"Q":{"ha":1163,"x_min":79,"x_max":1125,"o":"m 1125 -71 q 1025 -151 1082 -124 q 900 -178 968 -178 q 751 -137 825 -178 q 590 -6 678 -96 l 581 -6 q 324 58 439 -6 q 144 235 210 122 q 79 486 79 347 q 144 738 79 625 q 324 914 210 850 q 581 978 439 978 q 838 914 722 978 q 1018 738 953 850 q 1083 486 1083 625 q 1028 253 1083 358 q 874 81 972 149 q 653 -1 776 14 q 901 -137 781 -137 q 1099 -40 1015 -137 l 1125 -71 m 126 486 q 186 258 126 361 q 349 97 246 156 q 581 38 453 38 q 813 97 708 38 q 976 258 917 156 q 1036 486 1036 361 q 976 714 1036 611 q 813 876 917 817 q 581 935 708 935 q 349 876 453 935 q 186 714 246 817 q 126 486 126 611 z "},"R":{"ha":997,"x_min":178,"x_max":917,"o":"m 861 0 l 621 335 q 515 326 574 326 l 225 326 l 225 0 l 178 0 l 178 972 l 515 972 q 799 887 697 972 q 901 650 901 801 q 841 455 901 533 q 668 346 781 376 l 917 0 l 861 0 m 518 369 q 768 442 681 369 q 856 650 856 515 q 768 856 856 783 q 518 929 681 929 l 225 929 l 225 369 l 518 369 z "},"Ŕ":{"ha":997,"x_min":178,"x_max":917,"o":"m 861 0 l 621 335 q 515 326 574 326 l 225 326 l 225 0 l 178 0 l 178 972 l 515 972 q 799 887 697 972 q 901 650 901 801 q 841 455 901 533 q 668 346 781 376 l 917 0 l 861 0 m 518 369 q 768 442 681 369 q 856 650 856 515 q 768 856 856 783 q 518 929 681 929 l 225 929 l 225 369 l 518 369 m 633 1208 l 708 1208 l 496 1051 l 440 1051 l 633 1208 z "},"Ř":{"ha":997,"x_min":178,"x_max":917,"o":"m 861 0 l 621 335 q 515 326 574 326 l 225 326 l 225 0 l 178 0 l 178 972 l 515 972 q 799 887 697 972 q 901 650 901 801 q 841 455 901 533 q 668 346 781 376 l 917 0 l 861 0 m 518 369 q 768 442 681 369 q 856 650 856 515 q 768 856 856 783 q 518 929 681 929 l 225 929 l 225 369 l 518 369 m 711 1208 l 539 1051 l 481 1051 l 308 1208 l 360 1208 l 510 1083 l 660 1208 l 711 1208 z "},"Ŗ":{"ha":997,"x_min":178,"x_max":917,"o":"m 861 0 l 621 335 q 515 326 574 326 l 225 326 l 225 0 l 178 0 l 178 972 l 515 972 q 799 887 697 972 q 901 650 901 801 q 841 455 901 533 q 668 346 781 376 l 917 0 l 861 0 m 518 369 q 768 442 681 369 q 856 650 856 515 q 768 856 856 783 q 518 929 681 929 l 225 929 l 225 369 l 518 369 m 510 -165 q 540 -178 529 -165 q 551 -206 551 -190 q 542 -256 551 -224 l 508 -361 l 475 -361 l 501 -246 q 478 -233 488 -244 q 468 -206 468 -221 q 480 -177 468 -189 q 510 -165 492 -165 z "},"Ȑ":{"ha":997,"x_min":178,"x_max":917,"o":"m 861 0 l 621 335 q 515 326 574 326 l 225 326 l 225 0 l 178 0 l 178 972 l 515 972 q 799 887 697 972 q 901 650 901 801 q 841 455 901 533 q 668 346 781 376 l 917 0 l 861 0 m 518 369 q 768 442 681 369 q 856 650 856 515 q 768 856 856 783 q 518 929 681 929 l 225 929 l 225 369 l 518 369 m 222 1208 l 285 1208 l 435 1051 l 383 1051 l 222 1208 m 424 1208 l 486 1208 l 636 1051 l 585 1051 l 424 1208 z "},"Ṛ":{"ha":997,"x_min":178,"x_max":917,"o":"m 861 0 l 621 335 q 515 326 574 326 l 225 326 l 225 0 l 178 0 l 178 972 l 515 972 q 799 887 697 972 q 901 650 901 801 q 841 455 901 533 q 668 346 781 376 l 917 0 l 861 0 m 518 369 q 768 442 681 369 q 856 650 856 515 q 768 856 856 783 q 518 929 681 929 l 225 929 l 225 369 l 518 369 m 510 -249 q 481 -237 493 -249 q 468 -207 468 -225 q 481 -178 468 -190 q 510 -165 493 -165 q 539 -178 526 -165 q 551 -207 551 -190 q 539 -237 551 -225 q 510 -249 526 -249 z "},"Ȓ":{"ha":997,"x_min":178,"x_max":917,"o":"m 861 0 l 621 335 q 515 326 574 326 l 225 326 l 225 0 l 178 0 l 178 972 l 515 972 q 799 887 697 972 q 901 650 901 801 q 841 455 901 533 q 668 346 781 376 l 917 0 l 861 0 m 518 369 q 768 442 681 369 q 856 650 856 515 q 768 856 856 783 q 518 929 681 929 l 225 929 l 225 369 l 518 369 m 319 1051 q 375 1169 321 1125 q 510 1214 429 1214 q 644 1169 590 1214 q 700 1051 699 1125 l 663 1051 q 617 1144 661 1110 q 510 1179 574 1179 q 402 1144 446 1179 q 357 1051 358 1110 l 319 1051 z "},"Ṟ":{"ha":997,"x_min":178,"x_max":917,"o":"m 861 0 l 621 335 q 515 326 574 326 l 225 326 l 225 0 l 178 0 l 178 972 l 515 972 q 799 887 697 972 q 901 650 901 801 q 841 455 901 533 q 668 346 781 376 l 917 0 l 861 0 m 518 369 q 768 442 681 369 q 856 650 856 515 q 768 856 856 783 q 518 929 681 929 l 225 929 l 225 369 l 518 369 m 314 -187 l 706 -187 l 706 -225 l 314 -225 l 314 -187 z "},"S":{"ha":839,"x_min":76,"x_max":763,"o":"m 424 -6 q 223 32 318 -6 q 76 129 128 69 l 101 163 q 237 72 150 107 q 422 36 324 36 q 642 94 568 36 q 717 242 717 151 q 678 353 717 311 q 582 417 639 396 q 426 463 525 439 q 257 514 321 489 q 149 590 193 539 q 104 728 104 642 q 140 853 104 796 q 251 944 176 910 q 436 978 325 978 q 592 954 515 978 q 724 889 669 931 l 703 851 q 576 915 646 893 q 438 936 506 936 q 223 877 296 936 q 150 728 150 818 q 190 615 150 657 q 287 550 229 572 q 442 504 344 528 q 611 453 547 478 q 719 378 675 429 q 763 243 763 328 q 726 118 763 175 q 613 28 689 61 q 424 -6 536 -6 z "},"Ś":{"ha":839,"x_min":76,"x_max":763,"o":"m 424 -6 q 223 32 318 -6 q 76 129 128 69 l 101 163 q 237 72 150 107 q 422 36 324 36 q 642 94 568 36 q 717 242 717 151 q 678 353 717 311 q 582 417 639 396 q 426 463 525 439 q 257 514 321 489 q 149 590 193 539 q 104 728 104 642 q 140 853 104 796 q 251 944 176 910 q 436 978 325 978 q 592 954 515 978 q 724 889 669 931 l 703 851 q 576 915 646 893 q 438 936 506 936 q 223 877 296 936 q 150 728 150 818 q 190 615 150 657 q 287 550 229 572 q 442 504 344 528 q 611 453 547 478 q 719 378 675 429 q 763 243 763 328 q 726 118 763 175 q 613 28 689 61 q 424 -6 536 -6 m 567 1208 l 642 1208 l 429 1051 l 374 1051 l 567 1208 z "},"Ṥ":{"ha":839,"x_min":76,"x_max":763,"o":"m 424 -6 q 223 32 318 -6 q 76 129 128 69 l 101 163 q 237 72 150 107 q 422 36 324 36 q 642 94 568 36 q 717 242 717 151 q 678 353 717 311 q 582 417 639 396 q 426 463 525 439 q 257 514 321 489 q 149 590 193 539 q 104 728 104 642 q 140 853 104 796 q 251 944 176 910 q 436 978 325 978 q 592 954 515 978 q 724 889 669 931 l 703 851 q 576 915 646 893 q 438 936 506 936 q 223 877 296 936 q 150 728 150 818 q 190 615 150 657 q 287 550 229 572 q 442 504 344 528 q 611 453 547 478 q 719 378 675 429 q 763 243 763 328 q 726 118 763 175 q 613 28 689 61 q 424 -6 536 -6 m 549 1193 l 621 1193 l 428 1051 l 375 1051 l 549 1193 m 443 1258 q 414 1271 426 1258 q 401 1300 401 1283 q 414 1331 401 1318 q 443 1343 426 1343 q 472 1331 460 1343 q 485 1300 485 1318 q 472 1271 485 1283 q 443 1258 460 1258 z "},"Ꞌ":{"ha":301,"x_min":128,"x_max":174,"o":"m 128 972 l 174 972 l 171 415 l 128 415 l 128 972 z "},"Š":{"ha":839,"x_min":76,"x_max":763,"o":"m 424 -6 q 223 32 318 -6 q 76 129 128 69 l 101 163 q 237 72 150 107 q 422 36 324 36 q 642 94 568 36 q 717 242 717 151 q 678 353 717 311 q 582 417 639 396 q 426 463 525 439 q 257 514 321 489 q 149 590 193 539 q 104 728 104 642 q 140 853 104 796 q 251 944 176 910 q 436 978 325 978 q 592 954 515 978 q 724 889 669 931 l 703 851 q 576 915 646 893 q 438 936 506 936 q 223 877 296 936 q 150 728 150 818 q 190 615 150 657 q 287 550 229 572 q 442 504 344 528 q 611 453 547 478 q 719 378 675 429 q 763 243 763 328 q 726 118 763 175 q 613 28 689 61 q 424 -6 536 -6 m 644 1208 l 472 1051 l 414 1051 l 242 1208 l 293 1208 l 443 1083 l 593 1208 l 644 1208 z "},"Ṧ":{"ha":839,"x_min":76,"x_max":763,"o":"m 424 -6 q 223 32 318 -6 q 76 129 128 69 l 101 163 q 237 72 150 107 q 422 36 324 36 q 642 94 568 36 q 717 242 717 151 q 678 353 717 311 q 582 417 639 396 q 426 463 525 439 q 257 514 321 489 q 149 590 193 539 q 104 728 104 642 q 140 853 104 796 q 251 944 176 910 q 436 978 325 978 q 592 954 515 978 q 724 889 669 931 l 703 851 q 576 915 646 893 q 438 936 506 936 q 223 877 296 936 q 150 728 150 818 q 190 615 150 657 q 287 550 229 572 q 442 504 344 528 q 611 453 547 478 q 719 378 675 429 q 763 243 763 328 q 726 118 763 175 q 613 28 689 61 q 424 -6 536 -6 m 644 1167 l 471 1051 l 415 1051 l 242 1167 l 297 1167 l 443 1081 l 589 1167 l 644 1167 m 443 1226 q 414 1239 426 1226 q 401 1268 401 1251 q 414 1299 401 1286 q 443 1311 426 1311 q 472 1299 460 1311 q 485 1268 485 1286 q 472 1239 485 1251 q 443 1226 460 1226 z "},"Ş":{"ha":839,"x_min":76,"x_max":763,"o":"m 424 -6 q 223 32 318 -6 q 76 129 128 69 l 101 163 q 237 72 150 107 q 422 36 324 36 q 642 94 568 36 q 717 242 717 151 q 678 353 717 311 q 582 417 639 396 q 426 463 525 439 q 257 514 321 489 q 149 590 193 539 q 104 728 104 642 q 140 853 104 796 q 251 944 176 910 q 436 978 325 978 q 592 954 515 978 q 724 889 669 931 l 703 851 q 576 915 646 893 q 438 936 506 936 q 223 877 296 936 q 150 728 150 818 q 190 615 150 657 q 287 550 229 572 q 442 504 344 528 q 611 453 547 478 q 719 378 675 429 q 763 243 763 328 q 726 118 763 175 q 613 28 689 61 q 424 -6 536 -6 m 418 -299 q 313 -262 357 -299 l 331 -233 q 418 -264 365 -264 q 488 -243 461 -264 q 514 -185 514 -222 q 488 -128 514 -150 q 418 -107 463 -107 l 393 -107 l 425 7 l 460 7 l 436 -76 q 522 -109 490 -79 q 553 -186 553 -139 q 515 -267 553 -236 q 418 -299 476 -299 z "},"Ŝ":{"ha":839,"x_min":76,"x_max":763,"o":"m 424 -6 q 223 32 318 -6 q 76 129 128 69 l 101 163 q 237 72 150 107 q 422 36 324 36 q 642 94 568 36 q 717 242 717 151 q 678 353 717 311 q 582 417 639 396 q 426 463 525 439 q 257 514 321 489 q 149 590 193 539 q 104 728 104 642 q 140 853 104 796 q 251 944 176 910 q 436 978 325 978 q 592 954 515 978 q 724 889 669 931 l 703 851 q 576 915 646 893 q 438 936 506 936 q 223 877 296 936 q 150 728 150 818 q 190 615 150 657 q 287 550 229 572 q 442 504 344 528 q 611 453 547 478 q 719 378 675 429 q 763 243 763 328 q 726 118 763 175 q 613 28 689 61 q 424 -6 536 -6 m 593 1051 l 443 1176 l 293 1051 l 242 1051 l 414 1208 l 472 1208 l 644 1051 l 593 1051 z "},"Ș":{"ha":839,"x_min":76,"x_max":763,"o":"m 424 -6 q 223 32 318 -6 q 76 129 128 69 l 101 163 q 237 72 150 107 q 422 36 324 36 q 642 94 568 36 q 717 242 717 151 q 678 353 717 311 q 582 417 639 396 q 426 463 525 439 q 257 514 321 489 q 149 590 193 539 q 104 728 104 642 q 140 853 104 796 q 251 944 176 910 q 436 978 325 978 q 592 954 515 978 q 724 889 669 931 l 703 851 q 576 915 646 893 q 438 936 506 936 q 223 877 296 936 q 150 728 150 818 q 190 615 150 657 q 287 550 229 572 q 442 504 344 528 q 611 453 547 478 q 719 378 675 429 q 763 243 763 328 q 726 118 763 175 q 613 28 689 61 q 424 -6 536 -6 m 443 -165 q 474 -178 463 -165 q 485 -206 485 -190 q 475 -256 485 -224 l 442 -361 l 408 -361 l 435 -246 q 411 -233 421 -244 q 401 -206 401 -221 q 413 -177 401 -189 q 443 -165 425 -165 z "},"Ṡ":{"ha":839,"x_min":76,"x_max":763,"o":"m 424 -6 q 223 32 318 -6 q 76 129 128 69 l 101 163 q 237 72 150 107 q 422 36 324 36 q 642 94 568 36 q 717 242 717 151 q 678 353 717 311 q 582 417 639 396 q 426 463 525 439 q 257 514 321 489 q 149 590 193 539 q 104 728 104 642 q 140 853 104 796 q 251 944 176 910 q 436 978 325 978 q 592 954 515 978 q 724 889 669 931 l 703 851 q 576 915 646 893 q 438 936 506 936 q 223 877 296 936 q 150 728 150 818 q 190 615 150 657 q 287 550 229 572 q 442 504 344 528 q 611 453 547 478 q 719 378 675 429 q 763 243 763 328 q 726 118 763 175 q 613 28 689 61 q 424 -6 536 -6 m 443 1094 q 412 1108 425 1094 q 399 1139 399 1121 q 412 1170 399 1157 q 443 1183 425 1183 q 474 1170 461 1183 q 488 1139 488 1157 q 474 1108 488 1121 q 443 1094 461 1094 z "},"Ṣ":{"ha":839,"x_min":76,"x_max":763,"o":"m 424 -6 q 223 32 318 -6 q 76 129 128 69 l 101 163 q 237 72 150 107 q 422 36 324 36 q 642 94 568 36 q 717 242 717 151 q 678 353 717 311 q 582 417 639 396 q 426 463 525 439 q 257 514 321 489 q 149 590 193 539 q 104 728 104 642 q 140 853 104 796 q 251 944 176 910 q 436 978 325 978 q 592 954 515 978 q 724 889 669 931 l 703 851 q 576 915 646 893 q 438 936 506 936 q 223 877 296 936 q 150 728 150 818 q 190 615 150 657 q 287 550 229 572 q 442 504 344 528 q 611 453 547 478 q 719 378 675 429 q 763 243 763 328 q 726 118 763 175 q 613 28 689 61 q 424 -6 536 -6 m 443 -249 q 414 -237 426 -249 q 401 -207 401 -225 q 414 -178 401 -190 q 443 -165 426 -165 q 472 -178 460 -165 q 485 -207 485 -190 q 472 -237 485 -225 q 443 -249 460 -249 z "},"Ṩ":{"ha":839,"x_min":76,"x_max":763,"o":"m 424 -6 q 223 32 318 -6 q 76 129 128 69 l 101 163 q 237 72 150 107 q 422 36 324 36 q 642 94 568 36 q 717 242 717 151 q 678 353 717 311 q 582 417 639 396 q 426 463 525 439 q 257 514 321 489 q 149 590 193 539 q 104 728 104 642 q 140 853 104 796 q 251 944 176 910 q 436 978 325 978 q 592 954 515 978 q 724 889 669 931 l 703 851 q 576 915 646 893 q 438 936 506 936 q 223 877 296 936 q 150 728 150 818 q 190 615 150 657 q 287 550 229 572 q 442 504 344 528 q 611 453 547 478 q 719 378 675 429 q 763 243 763 328 q 726 118 763 175 q 613 28 689 61 q 424 -6 536 -6 m 443 -249 q 414 -237 426 -249 q 401 -207 401 -225 q 414 -178 401 -190 q 443 -165 426 -165 q 472 -178 460 -165 q 485 -207 485 -190 q 472 -237 485 -225 q 443 -249 460 -249 m 443 1094 q 412 1108 425 1094 q 399 1139 399 1121 q 412 1170 399 1157 q 443 1183 425 1183 q 474 1170 461 1183 q 488 1139 488 1157 q 474 1108 488 1121 q 443 1094 461 1094 z "},"ẞ":{"ha":1036,"x_min":169,"x_max":949,"o":"m 633 550 q 863 478 778 550 q 949 272 949 406 q 865 67 949 139 q 639 -6 781 -6 q 534 3 579 -6 q 444 33 489 13 l 458 75 q 636 36 535 36 q 831 97 760 36 q 901 274 901 158 q 830 449 901 389 q 632 510 758 510 q 507 493 560 510 l 494 524 l 821 867 q 556 943 722 943 q 305 850 393 943 q 217 582 217 757 l 217 0 l 169 0 l 169 585 q 272 879 169 774 q 556 985 374 985 q 863 886 746 985 l 863 851 l 571 546 q 633 550 603 550 z "},"Ə":{"ha":1133,"x_min":79,"x_max":1054,"o":"m 554 978 q 810 914 696 978 q 989 738 924 850 q 1054 488 1054 626 q 989 240 1054 353 q 812 60 924 126 q 567 -6 700 -6 q 317 58 428 -6 q 142 235 206 122 q 79 488 79 347 l 79 506 l 1007 506 q 942 724 1003 625 q 780 878 882 822 q 554 935 678 935 q 236 822 364 935 l 208 856 q 363 947 275 915 q 554 978 451 978 m 567 38 q 782 93 683 38 q 941 246 881 149 q 1007 463 1001 343 l 126 463 q 190 244 132 342 q 347 92 249 147 q 567 38 446 38 z "},"T":{"ha":771,"x_min":6,"x_max":765,"o":"m 363 929 l 6 929 l 6 972 l 765 972 l 765 929 l 408 929 l 408 0 l 363 0 l 363 929 z "},"Ŧ":{"ha":771,"x_min":6,"x_max":765,"o":"m 363 929 l 6 929 l 6 972 l 765 972 l 765 929 l 408 929 l 408 0 l 363 0 l 363 929 m 131 510 l 639 510 l 639 469 l 131 469 l 131 510 z "},"Ť":{"ha":771,"x_min":6,"x_max":765,"o":"m 363 929 l 6 929 l 6 972 l 765 972 l 765 929 l 408 929 l 408 0 l 363 0 l 363 929 m 586 1208 l 414 1051 l 356 1051 l 183 1208 l 235 1208 l 385 1083 l 535 1208 l 586 1208 z "},"Ţ":{"ha":771,"x_min":6,"x_max":765,"o":"m 363 929 l 6 929 l 6 972 l 765 972 l 765 929 l 408 929 l 408 0 l 363 0 l 363 929 m 360 -299 q 254 -262 299 -299 l 272 -233 q 360 -264 307 -264 q 429 -243 403 -264 q 456 -185 456 -222 q 430 -128 456 -150 q 360 -107 404 -107 l 335 -107 l 367 7 l 401 7 l 378 -76 q 463 -109 432 -79 q 494 -186 494 -139 q 456 -267 494 -236 q 360 -299 418 -299 z "},"Ț":{"ha":771,"x_min":6,"x_max":765,"o":"m 363 929 l 6 929 l 6 972 l 765 972 l 765 929 l 408 929 l 408 0 l 363 0 l 363 929 m 385 -165 q 415 -178 404 -165 q 426 -206 426 -190 q 417 -256 426 -224 l 383 -361 l 350 -361 l 376 -246 q 353 -233 363 -244 q 343 -206 343 -221 q 355 -177 343 -189 q 385 -165 367 -165 z "},"Ṭ":{"ha":771,"x_min":6,"x_max":765,"o":"m 363 929 l 6 929 l 6 972 l 765 972 l 765 929 l 408 929 l 408 0 l 363 0 l 363 929 m 385 -249 q 356 -237 368 -249 q 343 -207 343 -225 q 356 -178 343 -190 q 385 -165 368 -165 q 414 -178 401 -165 q 426 -207 426 -190 q 414 -237 426 -225 q 385 -249 401 -249 z "},"Ṯ":{"ha":771,"x_min":6,"x_max":765,"o":"m 363 929 l 6 929 l 6 972 l 765 972 l 765 929 l 408 929 l 408 0 l 363 0 l 363 929 m 189 -187 l 581 -187 l 581 -225 l 189 -225 l 189 -187 z "},"U":{"ha":1101,"x_min":169,"x_max":932,"o":"m 551 -6 q 270 100 371 -6 q 169 410 169 206 l 169 972 l 217 972 l 217 411 q 303 131 217 225 q 551 38 389 38 q 799 131 713 38 q 886 411 886 225 l 886 972 l 932 972 l 932 410 q 832 100 932 206 q 551 -6 732 -6 z "},"Ú":{"ha":1101,"x_min":169,"x_max":932,"o":"m 551 -6 q 270 100 371 -6 q 169 410 169 206 l 169 972 l 217 972 l 217 411 q 303 131 217 225 q 551 38 389 38 q 799 131 713 38 q 886 411 886 225 l 886 972 l 932 972 l 932 410 q 832 100 932 206 q 551 -6 732 -6 m 675 1208 l 750 1208 l 538 1051 l 482 1051 l 675 1208 z "},"Ŭ":{"ha":1101,"x_min":169,"x_max":932,"o":"m 551 -6 q 270 100 371 -6 q 169 410 169 206 l 169 972 l 217 972 l 217 411 q 303 131 217 225 q 551 38 389 38 q 799 131 713 38 q 886 411 886 225 l 886 972 l 932 972 l 932 410 q 832 100 932 206 q 551 -6 732 -6 m 551 1047 q 417 1091 471 1047 q 361 1208 363 1135 l 399 1208 q 444 1117 400 1151 q 551 1082 488 1082 q 659 1117 615 1082 q 704 1208 703 1151 l 742 1208 q 686 1091 740 1135 q 551 1047 632 1047 z "},"Ǔ":{"ha":1101,"x_min":169,"x_max":932,"o":"m 551 -6 q 270 100 371 -6 q 169 410 169 206 l 169 972 l 217 972 l 217 411 q 303 131 217 225 q 551 38 389 38 q 799 131 713 38 q 886 411 886 225 l 886 972 l 932 972 l 932 410 q 832 100 932 206 q 551 -6 732 -6 m 753 1208 l 581 1051 l 522 1051 l 350 1208 l 401 1208 l 551 1083 l 701 1208 l 753 1208 z "},"Û":{"ha":1101,"x_min":169,"x_max":932,"o":"m 551 -6 q 270 100 371 -6 q 169 410 169 206 l 169 972 l 217 972 l 217 411 q 303 131 217 225 q 551 38 389 38 q 799 131 713 38 q 886 411 886 225 l 886 972 l 932 972 l 932 410 q 832 100 932 206 q 551 -6 732 -6 m 701 1051 l 551 1176 l 401 1051 l 350 1051 l 522 1208 l 581 1208 l 753 1051 l 701 1051 z "},"Ȕ":{"ha":1101,"x_min":169,"x_max":932,"o":"m 551 -6 q 270 100 371 -6 q 169 410 169 206 l 169 972 l 217 972 l 217 411 q 303 131 217 225 q 551 38 389 38 q 799 131 713 38 q 886 411 886 225 l 886 972 l 932 972 l 932 410 q 832 100 932 206 q 551 -6 732 -6 m 264 1208 l 326 1208 l 476 1051 l 425 1051 l 264 1208 m 465 1208 l 528 1208 l 678 1051 l 626 1051 l 465 1208 z "},"Ü":{"ha":1101,"x_min":169,"x_max":932,"o":"m 551 -6 q 270 100 371 -6 q 169 410 169 206 l 169 972 l 217 972 l 217 411 q 303 131 217 225 q 551 38 389 38 q 799 131 713 38 q 886 411 886 225 l 886 972 l 932 972 l 932 410 q 832 100 932 206 q 551 -6 732 -6 m 435 1094 q 406 1107 418 1094 q 393 1136 393 1119 q 406 1167 393 1154 q 435 1179 418 1179 q 465 1167 453 1179 q 476 1136 476 1154 q 465 1107 476 1119 q 435 1094 453 1094 m 668 1094 q 638 1107 650 1094 q 626 1136 626 1119 q 638 1167 626 1154 q 668 1179 650 1179 q 697 1167 685 1179 q 710 1136 710 1154 q 697 1107 710 1119 q 668 1094 685 1094 z "},"Ụ":{"ha":1101,"x_min":169,"x_max":932,"o":"m 551 -6 q 270 100 371 -6 q 169 410 169 206 l 169 972 l 217 972 l 217 411 q 303 131 217 225 q 551 38 389 38 q 799 131 713 38 q 886 411 886 225 l 886 972 l 932 972 l 932 410 q 832 100 932 206 q 551 -6 732 -6 m 551 -249 q 522 -237 535 -249 q 510 -207 510 -225 q 522 -178 510 -190 q 551 -165 535 -165 q 581 -178 568 -165 q 593 -207 593 -190 q 581 -237 593 -225 q 551 -249 568 -249 z "},"Ù":{"ha":1101,"x_min":169,"x_max":932,"o":"m 551 -6 q 270 100 371 -6 q 169 410 169 206 l 169 972 l 217 972 l 217 411 q 303 131 217 225 q 551 38 389 38 q 799 131 713 38 q 886 411 886 225 l 886 972 l 932 972 l 932 410 q 832 100 932 206 q 551 -6 732 -6 m 353 1208 l 428 1208 l 621 1051 l 565 1051 l 353 1208 z "},"Ủ":{"ha":1101,"x_min":169,"x_max":932,"o":"m 551 -6 q 270 100 371 -6 q 169 410 169 206 l 169 972 l 217 972 l 217 411 q 303 131 217 225 q 551 38 389 38 q 799 131 713 38 q 886 411 886 225 l 886 972 l 932 972 l 932 410 q 832 100 932 206 q 551 -6 732 -6 m 539 1072 q 625 1176 625 1110 q 603 1229 625 1208 q 546 1250 581 1250 q 460 1224 500 1250 l 446 1254 q 493 1276 465 1268 q 547 1285 521 1285 q 631 1256 600 1285 q 661 1181 661 1228 q 636 1103 661 1136 q 558 1044 611 1071 l 539 1072 z "},"Ư":{"ha":1103,"x_min":169,"x_max":1065,"o":"m 551 -6 q 270 100 371 -6 q 169 410 169 206 l 169 972 l 217 972 l 217 411 q 303 131 217 225 q 551 38 389 38 q 799 131 713 38 q 886 411 886 225 l 886 972 l 932 972 l 932 410 q 832 100 932 206 q 551 -6 732 -6 m 915 972 l 931 972 q 1003 999 981 972 q 1026 1068 1026 1025 q 999 1161 1026 1113 l 1033 1175 q 1057 1126 1049 1154 q 1065 1069 1065 1097 q 1032 971 1065 1008 q 931 933 999 933 l 915 933 l 915 972 z "},"Ứ":{"ha":1103,"x_min":169,"x_max":1065,"o":"m 551 -6 q 270 100 371 -6 q 169 410 169 206 l 169 972 l 217 972 l 217 411 q 303 131 217 225 q 551 38 389 38 q 799 131 713 38 q 886 411 886 225 l 886 972 l 932 972 l 932 410 q 832 100 932 206 q 551 -6 732 -6 m 915 972 l 931 972 q 1003 999 981 972 q 1026 1068 1026 1025 q 999 1161 1026 1113 l 1033 1175 q 1057 1126 1049 1154 q 1065 1069 1065 1097 q 1032 971 1065 1008 q 931 933 999 933 l 915 933 l 915 972 m 675 1208 l 750 1208 l 538 1051 l 482 1051 l 675 1208 z "},"Ự":{"ha":1103,"x_min":169,"x_max":1065,"o":"m 551 -6 q 270 100 371 -6 q 169 410 169 206 l 169 972 l 217 972 l 217 411 q 303 131 217 225 q 551 38 389 38 q 799 131 713 38 q 886 411 886 225 l 886 972 l 932 972 l 932 410 q 832 100 932 206 q 551 -6 732 -6 m 915 972 l 931 972 q 1003 999 981 972 q 1026 1068 1026 1025 q 999 1161 1026 1113 l 1033 1175 q 1057 1126 1049 1154 q 1065 1069 1065 1097 q 1032 971 1065 1008 q 931 933 999 933 l 915 933 l 915 972 m 551 -249 q 522 -237 535 -249 q 510 -207 510 -225 q 522 -178 510 -190 q 551 -165 535 -165 q 581 -178 568 -165 q 593 -207 593 -190 q 581 -237 593 -225 q 551 -249 568 -249 z "},"Ừ":{"ha":1103,"x_min":169,"x_max":1065,"o":"m 551 -6 q 270 100 371 -6 q 169 410 169 206 l 169 972 l 217 972 l 217 411 q 303 131 217 225 q 551 38 389 38 q 799 131 713 38 q 886 411 886 225 l 886 972 l 932 972 l 932 410 q 832 100 932 206 q 551 -6 732 -6 m 915 972 l 931 972 q 1003 999 981 972 q 1026 1068 1026 1025 q 999 1161 1026 1113 l 1033 1175 q 1057 1126 1049 1154 q 1065 1069 1065 1097 q 1032 971 1065 1008 q 931 933 999 933 l 915 933 l 915 972 m 353 1208 l 428 1208 l 621 1051 l 565 1051 l 353 1208 z "},"Ử":{"ha":1103,"x_min":169,"x_max":1065,"o":"m 551 -6 q 270 100 371 -6 q 169 410 169 206 l 169 972 l 217 972 l 217 411 q 303 131 217 225 q 551 38 389 38 q 799 131 713 38 q 886 411 886 225 l 886 972 l 932 972 l 932 410 q 832 100 932 206 q 551 -6 732 -6 m 915 972 l 931 972 q 1003 999 981 972 q 1026 1068 1026 1025 q 999 1161 1026 1113 l 1033 1175 q 1057 1126 1049 1154 q 1065 1069 1065 1097 q 1032 971 1065 1008 q 931 933 999 933 l 915 933 l 915 972 m 539 1072 q 625 1176 625 1110 q 603 1229 625 1208 q 546 1250 581 1250 q 460 1224 500 1250 l 446 1254 q 493 1276 465 1268 q 547 1285 521 1285 q 631 1256 600 1285 q 661 1181 661 1228 q 636 1103 661 1136 q 558 1044 611 1071 l 539 1072 z "},"Ữ":{"ha":1103,"x_min":169,"x_max":1065,"o":"m 551 -6 q 270 100 371 -6 q 169 410 169 206 l 169 972 l 217 972 l 217 411 q 303 131 217 225 q 551 38 389 38 q 799 131 713 38 q 886 411 886 225 l 886 972 l 932 972 l 932 410 q 832 100 932 206 q 551 -6 732 -6 m 915 972 l 931 972 q 1003 999 981 972 q 1026 1068 1026 1025 q 999 1161 1026 1113 l 1033 1175 q 1057 1126 1049 1154 q 1065 1069 1065 1097 q 1032 971 1065 1008 q 931 933 999 933 l 915 933 l 915 972 m 640 1065 q 590 1078 611 1065 q 539 1118 568 1092 q 499 1150 517 1139 q 464 1161 482 1161 q 412 1137 431 1161 q 390 1069 393 1113 l 356 1069 q 387 1163 358 1128 q 463 1197 415 1197 q 513 1184 492 1197 q 564 1144 535 1171 q 603 1113 586 1124 q 639 1101 621 1101 q 691 1126 672 1101 q 713 1190 710 1150 l 747 1190 q 716 1100 744 1135 q 640 1065 688 1065 z "},"Ű":{"ha":1101,"x_min":169,"x_max":932,"o":"m 551 -6 q 270 100 371 -6 q 169 410 169 206 l 169 972 l 217 972 l 217 411 q 303 131 217 225 q 551 38 389 38 q 799 131 713 38 q 886 411 886 225 l 886 972 l 932 972 l 932 410 q 832 100 932 206 q 551 -6 732 -6 m 575 1208 l 638 1208 l 476 1051 l 425 1051 l 575 1208 m 776 1208 l 839 1208 l 678 1051 l 626 1051 l 776 1208 z "},"Ȗ":{"ha":1101,"x_min":169,"x_max":932,"o":"m 551 -6 q 270 100 371 -6 q 169 410 169 206 l 169 972 l 217 972 l 217 411 q 303 131 217 225 q 551 38 389 38 q 799 131 713 38 q 886 411 886 225 l 886 972 l 932 972 l 932 410 q 832 100 932 206 q 551 -6 732 -6 m 361 1051 q 417 1169 363 1125 q 551 1214 471 1214 q 686 1169 632 1214 q 742 1051 740 1125 l 704 1051 q 659 1144 703 1110 q 551 1179 615 1179 q 444 1144 488 1179 q 399 1051 400 1110 l 361 1051 z "},"Ū":{"ha":1101,"x_min":169,"x_max":932,"o":"m 551 -6 q 270 100 371 -6 q 169 410 169 206 l 169 972 l 217 972 l 217 411 q 303 131 217 225 q 551 38 389 38 q 799 131 713 38 q 886 411 886 225 l 886 972 l 932 972 l 932 410 q 832 100 932 206 q 551 -6 732 -6 m 356 1149 l 747 1149 l 747 1111 l 356 1111 l 356 1149 z "},"Ṻ":{"ha":1101,"x_min":169,"x_max":932,"o":"m 551 -6 q 270 100 371 -6 q 169 410 169 206 l 169 972 l 217 972 l 217 411 q 303 131 217 225 q 551 38 389 38 q 799 131 713 38 q 886 411 886 225 l 886 972 l 932 972 l 932 410 q 832 100 932 206 q 551 -6 732 -6 m 356 1129 l 747 1129 l 747 1093 l 356 1093 l 356 1129 m 436 1260 q 406 1272 418 1260 q 394 1301 394 1285 q 406 1331 394 1319 q 436 1343 418 1343 q 465 1331 453 1343 q 478 1301 478 1319 q 465 1272 478 1285 q 436 1260 453 1260 m 668 1260 q 638 1272 650 1260 q 626 1301 626 1285 q 638 1331 626 1319 q 668 1343 650 1343 q 697 1331 685 1343 q 710 1301 710 1319 q 697 1272 710 1285 q 668 1260 685 1260 z "},"Ų":{"ha":1101,"x_min":169,"x_max":932,"o":"m 932 972 l 932 410 q 685 11 932 93 q 471 -178 471 -60 q 499 -242 471 -219 q 569 -264 526 -264 q 616 -256 593 -264 q 656 -233 639 -247 l 672 -261 q 565 -299 626 -299 q 469 -266 506 -299 q 432 -179 432 -233 q 561 -6 432 -76 l 551 -6 q 270 100 371 -6 q 169 410 169 206 l 169 972 l 217 972 l 217 411 q 303 131 217 225 q 551 38 389 38 q 799 131 713 38 q 886 411 886 225 l 886 972 l 932 972 z "},"Ů":{"ha":1101,"x_min":169,"x_max":932,"o":"m 551 -6 q 270 100 371 -6 q 169 410 169 206 l 169 972 l 217 972 l 217 411 q 303 131 217 225 q 551 38 389 38 q 799 131 713 38 q 886 411 886 225 l 886 972 l 932 972 l 932 410 q 832 100 932 206 q 551 -6 732 -6 m 550 1081 q 456 1118 493 1081 q 418 1210 418 1156 q 456 1303 418 1264 q 550 1342 493 1342 q 645 1303 607 1342 q 683 1210 683 1264 q 645 1118 683 1156 q 550 1081 607 1081 m 550 1111 q 622 1140 593 1111 q 650 1210 650 1168 q 621 1281 650 1251 q 550 1310 592 1310 q 480 1281 508 1310 q 451 1210 451 1251 q 479 1140 451 1168 q 550 1111 507 1111 z "},"Ũ":{"ha":1101,"x_min":169,"x_max":932,"o":"m 551 -6 q 270 100 371 -6 q 169 410 169 206 l 169 972 l 217 972 l 217 411 q 303 131 217 225 q 551 38 389 38 q 799 131 713 38 q 886 411 886 225 l 886 972 l 932 972 l 932 410 q 832 100 932 206 q 551 -6 732 -6 m 640 1065 q 590 1078 611 1065 q 539 1118 568 1092 q 499 1150 517 1139 q 464 1161 482 1161 q 412 1137 431 1161 q 390 1069 393 1113 l 356 1069 q 387 1163 358 1128 q 463 1197 415 1197 q 513 1184 492 1197 q 564 1144 535 1171 q 603 1113 586 1124 q 639 1101 621 1101 q 691 1126 672 1101 q 713 1190 710 1150 l 747 1190 q 716 1100 744 1135 q 640 1065 688 1065 z "},"Ṹ":{"ha":1101,"x_min":169,"x_max":932,"o":"m 551 -6 q 270 100 371 -6 q 169 410 169 206 l 169 972 l 217 972 l 217 411 q 303 131 217 225 q 551 38 389 38 q 799 131 713 38 q 886 411 886 225 l 886 972 l 932 972 l 932 410 q 832 100 932 206 q 551 -6 732 -6 m 639 1069 q 589 1081 611 1069 q 540 1111 567 1092 q 498 1137 513 1129 q 465 1144 483 1144 q 414 1126 433 1144 q 393 1074 394 1107 l 358 1074 q 389 1151 360 1122 q 465 1179 418 1179 q 513 1169 492 1179 q 563 1138 535 1158 q 605 1112 590 1119 q 638 1104 619 1104 q 690 1122 669 1104 q 711 1174 710 1140 l 744 1174 q 715 1098 743 1126 q 639 1069 686 1069 m 657 1357 l 729 1357 l 536 1215 l 483 1215 l 657 1357 z "},"V":{"ha":940,"x_min":11,"x_max":929,"o":"m 929 972 l 493 0 l 447 0 l 11 972 l 64 972 l 472 61 l 879 972 l 929 972 z "},"W":{"ha":1511,"x_min":60,"x_max":1451,"o":"m 1451 972 l 1119 0 l 1072 0 l 756 907 l 440 0 l 392 0 l 60 972 l 110 972 l 417 68 l 733 972 l 779 972 l 1094 67 l 1404 972 l 1451 972 z "},"Ẃ":{"ha":1511,"x_min":60,"x_max":1451,"o":"m 1451 972 l 1119 0 l 1072 0 l 756 907 l 440 0 l 392 0 l 60 972 l 110 972 l 417 68 l 733 972 l 779 972 l 1094 67 l 1404 972 l 1451 972 m 879 1208 l 954 1208 l 742 1051 l 686 1051 l 879 1208 z "},"Ŵ":{"ha":1511,"x_min":60,"x_max":1451,"o":"m 1451 972 l 1119 0 l 1072 0 l 756 907 l 440 0 l 392 0 l 60 972 l 110 972 l 417 68 l 733 972 l 779 972 l 1094 67 l 1404 972 l 1451 972 m 906 1051 l 756 1176 l 606 1051 l 554 1051 l 726 1208 l 785 1208 l 957 1051 l 906 1051 z "},"Ẅ":{"ha":1511,"x_min":60,"x_max":1451,"o":"m 1451 972 l 1119 0 l 1072 0 l 756 907 l 440 0 l 392 0 l 60 972 l 110 972 l 417 68 l 733 972 l 779 972 l 1094 67 l 1404 972 l 1451 972 m 639 1094 q 610 1107 622 1094 q 597 1136 597 1119 q 610 1167 597 1154 q 639 1179 622 1179 q 669 1167 657 1179 q 681 1136 681 1154 q 669 1107 681 1119 q 639 1094 657 1094 m 872 1094 q 842 1107 854 1094 q 831 1136 831 1119 q 842 1167 831 1154 q 872 1179 854 1179 q 901 1167 889 1179 q 914 1136 914 1154 q 901 1107 914 1119 q 872 1094 889 1094 z "},"Ẁ":{"ha":1511,"x_min":60,"x_max":1451,"o":"m 1451 972 l 1119 0 l 1072 0 l 756 907 l 440 0 l 392 0 l 60 972 l 110 972 l 417 68 l 733 972 l 779 972 l 1094 67 l 1404 972 l 1451 972 m 557 1208 l 632 1208 l 825 1051 l 769 1051 l 557 1208 z "},"X":{"ha":875,"x_min":32,"x_max":843,"o":"m 788 0 l 438 468 l 86 0 l 32 0 l 408 503 l 58 972 l 114 972 l 439 538 l 763 972 l 815 972 l 465 503 l 843 0 l 788 0 z "},"Y":{"ha":856,"x_min":11,"x_max":846,"o":"m 451 332 l 451 0 l 404 0 l 404 332 l 11 972 l 63 972 l 429 378 l 796 972 l 846 972 l 451 332 z "},"Ý":{"ha":856,"x_min":11,"x_max":846,"o":"m 451 332 l 451 0 l 404 0 l 404 332 l 11 972 l 63 972 l 429 378 l 796 972 l 846 972 l 451 332 m 551 1208 l 626 1208 l 414 1051 l 358 1051 l 551 1208 z "},"Ŷ":{"ha":856,"x_min":11,"x_max":846,"o":"m 451 332 l 451 0 l 404 0 l 404 332 l 11 972 l 63 972 l 429 378 l 796 972 l 846 972 l 451 332 m 578 1051 l 428 1176 l 278 1051 l 226 1051 l 399 1208 l 457 1208 l 629 1051 l 578 1051 z "},"Ÿ":{"ha":856,"x_min":11,"x_max":846,"o":"m 451 332 l 451 0 l 404 0 l 404 332 l 11 972 l 63 972 l 429 378 l 796 972 l 846 972 l 451 332 m 311 1094 q 282 1107 294 1094 q 269 1136 269 1119 q 282 1167 269 1154 q 311 1179 294 1179 q 341 1167 329 1179 q 353 1136 353 1154 q 341 1107 353 1119 q 311 1094 329 1094 m 544 1094 q 515 1107 526 1094 q 503 1136 503 1119 q 515 1167 503 1154 q 544 1179 526 1179 q 574 1167 561 1179 q 586 1136 586 1154 q 574 1107 586 1119 q 544 1094 561 1094 z "},"Ẏ":{"ha":856,"x_min":11,"x_max":846,"o":"m 451 332 l 451 0 l 404 0 l 404 332 l 11 972 l 63 972 l 429 378 l 796 972 l 846 972 l 451 332 m 428 1094 q 397 1108 410 1094 q 383 1139 383 1121 q 397 1170 383 1157 q 428 1183 410 1183 q 459 1170 446 1183 q 472 1139 472 1157 q 459 1108 472 1121 q 428 1094 446 1094 z "},"Ỵ":{"ha":856,"x_min":11,"x_max":846,"o":"m 451 332 l 451 0 l 404 0 l 404 332 l 11 972 l 63 972 l 429 378 l 796 972 l 846 972 l 451 332 m 428 -249 q 399 -237 411 -249 q 386 -207 386 -225 q 399 -178 386 -190 q 428 -165 411 -165 q 457 -178 444 -165 q 469 -207 469 -190 q 457 -237 469 -225 q 428 -249 444 -249 z "},"Ỳ":{"ha":856,"x_min":11,"x_max":846,"o":"m 451 332 l 451 0 l 404 0 l 404 332 l 11 972 l 63 972 l 429 378 l 796 972 l 846 972 l 451 332 m 229 1208 l 304 1208 l 497 1051 l 442 1051 l 229 1208 z "},"Ỷ":{"ha":856,"x_min":11,"x_max":846,"o":"m 451 332 l 451 0 l 404 0 l 404 332 l 11 972 l 63 972 l 429 378 l 796 972 l 846 972 l 451 332 m 415 1072 q 501 1176 501 1110 q 479 1229 501 1208 q 422 1250 457 1250 q 336 1224 376 1250 l 322 1254 q 369 1276 342 1268 q 424 1285 397 1285 q 507 1256 476 1285 q 538 1181 538 1228 q 513 1103 538 1136 q 435 1044 488 1071 l 415 1072 z "},"Ȳ":{"ha":856,"x_min":11,"x_max":846,"o":"m 451 332 l 451 0 l 404 0 l 404 332 l 11 972 l 63 972 l 429 378 l 796 972 l 846 972 l 451 332 m 232 1149 l 624 1149 l 624 1111 l 232 1111 l 232 1149 z "},"Ỹ":{"ha":856,"x_min":11,"x_max":846,"o":"m 451 332 l 451 0 l 404 0 l 404 332 l 11 972 l 63 972 l 429 378 l 796 972 l 846 972 l 451 332 m 517 1065 q 466 1078 488 1065 q 415 1118 444 1092 q 376 1150 393 1139 q 340 1161 358 1161 q 288 1137 307 1161 q 267 1069 269 1113 l 232 1069 q 263 1163 235 1128 q 339 1197 292 1197 q 390 1184 368 1197 q 440 1144 411 1171 q 480 1113 463 1124 q 515 1101 497 1101 q 567 1126 549 1101 q 589 1190 586 1150 l 624 1190 q 592 1100 621 1135 q 517 1065 564 1065 z "},"Z":{"ha":892,"x_min":68,"x_max":840,"o":"m 840 43 l 840 0 l 68 0 l 68 33 l 761 929 l 75 929 l 75 972 l 825 972 l 825 939 l 132 43 l 840 43 z "},"Ź":{"ha":892,"x_min":68,"x_max":840,"o":"m 840 43 l 840 0 l 68 0 l 68 33 l 761 929 l 75 929 l 75 972 l 825 972 l 825 939 l 132 43 l 840 43 m 578 1208 l 653 1208 l 440 1051 l 385 1051 l 578 1208 z "},"Ž":{"ha":892,"x_min":68,"x_max":840,"o":"m 840 43 l 840 0 l 68 0 l 68 33 l 761 929 l 75 929 l 75 972 l 825 972 l 825 939 l 132 43 l 840 43 m 656 1208 l 483 1051 l 425 1051 l 253 1208 l 304 1208 l 454 1083 l 604 1208 l 656 1208 z "},"Ż":{"ha":892,"x_min":68,"x_max":840,"o":"m 840 43 l 840 0 l 68 0 l 68 33 l 761 929 l 75 929 l 75 972 l 825 972 l 825 939 l 132 43 l 840 43 m 454 1094 q 423 1108 436 1094 q 410 1139 410 1121 q 423 1170 410 1157 q 454 1183 436 1183 q 485 1170 472 1183 q 499 1139 499 1157 q 485 1108 499 1121 q 454 1094 472 1094 z "},"Ẓ":{"ha":892,"x_min":68,"x_max":840,"o":"m 840 43 l 840 0 l 68 0 l 68 33 l 761 929 l 75 929 l 75 972 l 825 972 l 825 939 l 132 43 l 840 43 m 467 -249 q 438 -237 450 -249 q 425 -207 425 -225 q 438 -178 425 -190 q 467 -165 450 -165 q 496 -178 483 -165 q 508 -207 508 -190 q 496 -237 508 -225 q 467 -249 483 -249 z "},"a":{"ha":803,"x_min":86,"x_max":657,"o":"m 390 726 q 588 660 519 726 q 657 467 657 593 l 657 0 l 613 0 l 613 144 q 509 35 578 75 q 344 -4 440 -4 q 155 51 224 -4 q 86 199 86 107 q 149 341 86 286 q 349 396 211 396 l 611 396 l 611 467 q 555 629 611 574 q 389 685 499 685 q 246 658 313 685 q 132 588 179 632 l 107 621 q 234 699 160 671 q 390 726 308 726 m 347 35 q 611 208 542 35 l 611 358 l 349 358 q 184 316 236 358 q 132 201 132 274 q 190 79 132 124 q 347 35 247 35 z "},"á":{"ha":803,"x_min":86,"x_max":657,"o":"m 390 726 q 588 660 519 726 q 657 467 657 593 l 657 0 l 613 0 l 613 144 q 509 35 578 75 q 344 -4 440 -4 q 155 51 224 -4 q 86 199 86 107 q 149 341 86 286 q 349 396 211 396 l 611 396 l 611 467 q 555 629 611 574 q 389 685 499 685 q 246 658 313 685 q 132 588 179 632 l 107 621 q 234 699 160 671 q 390 726 308 726 m 347 35 q 611 208 542 35 l 611 358 l 349 358 q 184 316 236 358 q 132 201 132 274 q 190 79 132 124 q 347 35 247 35 m 507 1000 l 582 1000 l 369 843 l 314 843 l 507 1000 z "},"ă":{"ha":803,"x_min":86,"x_max":657,"o":"m 390 726 q 588 660 519 726 q 657 467 657 593 l 657 0 l 613 0 l 613 144 q 509 35 578 75 q 344 -4 440 -4 q 155 51 224 -4 q 86 199 86 107 q 149 341 86 286 q 349 396 211 396 l 611 396 l 611 467 q 555 629 611 574 q 389 685 499 685 q 246 658 313 685 q 132 588 179 632 l 107 621 q 234 699 160 671 q 390 726 308 726 m 347 35 q 611 208 542 35 l 611 358 l 349 358 q 184 316 236 358 q 132 201 132 274 q 190 79 132 124 q 347 35 247 35 m 383 839 q 249 883 303 839 q 193 1000 194 926 l 231 1000 q 276 908 232 943 q 383 874 319 874 q 491 908 447 874 q 536 1000 535 943 l 574 1000 q 518 883 572 926 q 383 839 464 839 z "},"ắ":{"ha":803,"x_min":86,"x_max":657,"o":"m 390 726 q 588 660 519 726 q 657 467 657 593 l 657 0 l 613 0 l 613 144 q 509 35 578 75 q 344 -4 440 -4 q 155 51 224 -4 q 86 199 86 107 q 149 341 86 286 q 349 396 211 396 l 611 396 l 611 467 q 555 629 611 574 q 389 685 499 685 q 246 658 313 685 q 132 588 179 632 l 107 621 q 234 699 160 671 q 390 726 308 726 m 347 35 q 611 208 542 35 l 611 358 l 349 358 q 184 316 236 358 q 132 201 132 274 q 190 79 132 124 q 347 35 247 35 m 383 839 q 254 870 306 839 q 193 958 203 901 l 231 958 q 279 894 239 917 q 383 872 319 872 q 488 894 447 872 q 536 958 528 917 l 574 958 q 513 870 564 901 q 383 839 461 839 m 489 1122 l 561 1122 l 368 981 l 315 981 l 489 1122 z "},"ặ":{"ha":803,"x_min":86,"x_max":657,"o":"m 390 726 q 588 660 519 726 q 657 467 657 593 l 657 0 l 613 0 l 613 144 q 509 35 578 75 q 344 -4 440 -4 q 155 51 224 -4 q 86 199 86 107 q 149 341 86 286 q 349 396 211 396 l 611 396 l 611 467 q 555 629 611 574 q 389 685 499 685 q 246 658 313 685 q 132 588 179 632 l 107 621 q 234 699 160 671 q 390 726 308 726 m 347 35 q 611 208 542 35 l 611 358 l 349 358 q 184 316 236 358 q 132 201 132 274 q 190 79 132 124 q 347 35 247 35 m 394 -249 q 365 -237 378 -249 q 353 -207 353 -225 q 365 -178 353 -190 q 394 -165 378 -165 q 424 -178 411 -165 q 436 -207 436 -190 q 424 -237 436 -225 q 394 -249 411 -249 m 383 839 q 249 883 303 839 q 193 1000 194 926 l 231 1000 q 276 908 232 943 q 383 874 319 874 q 491 908 447 874 q 536 1000 535 943 l 574 1000 q 518 883 572 926 q 383 839 464 839 z "},"ằ":{"ha":803,"x_min":86,"x_max":657,"o":"m 390 726 q 588 660 519 726 q 657 467 657 593 l 657 0 l 613 0 l 613 144 q 509 35 578 75 q 344 -4 440 -4 q 155 51 224 -4 q 86 199 86 107 q 149 341 86 286 q 349 396 211 396 l 611 396 l 611 467 q 555 629 611 574 q 389 685 499 685 q 246 658 313 685 q 132 588 179 632 l 107 621 q 234 699 160 671 q 390 726 308 726 m 347 35 q 611 208 542 35 l 611 358 l 349 358 q 184 316 236 358 q 132 201 132 274 q 190 79 132 124 q 347 35 247 35 m 383 839 q 254 870 306 839 q 193 958 203 901 l 231 958 q 279 894 239 917 q 383 872 319 872 q 488 894 447 872 q 536 958 528 917 l 574 958 q 513 870 564 901 q 383 839 461 839 m 206 1122 l 278 1122 l 451 981 l 399 981 l 206 1122 z "},"ẳ":{"ha":803,"x_min":86,"x_max":657,"o":"m 390 726 q 588 660 519 726 q 657 467 657 593 l 657 0 l 613 0 l 613 144 q 509 35 578 75 q 344 -4 440 -4 q 155 51 224 -4 q 86 199 86 107 q 149 341 86 286 q 349 396 211 396 l 611 396 l 611 467 q 555 629 611 574 q 389 685 499 685 q 246 658 313 685 q 132 588 179 632 l 107 621 q 234 699 160 671 q 390 726 308 726 m 347 35 q 611 208 542 35 l 611 358 l 349 358 q 184 316 236 358 q 132 201 132 274 q 190 79 132 124 q 347 35 247 35 m 383 839 q 254 870 306 839 q 193 958 203 901 l 231 958 q 279 894 239 917 q 383 872 319 872 q 488 894 447 872 q 536 958 528 917 l 574 958 q 513 870 564 901 q 383 839 461 839 m 372 971 q 418 1004 401 985 q 435 1046 435 1024 q 419 1082 435 1068 q 376 1096 403 1096 q 317 1078 344 1096 l 304 1104 q 381 1128 335 1128 q 444 1106 421 1128 q 468 1047 468 1083 q 448 989 468 1015 q 390 946 428 963 l 372 971 z "},"ẵ":{"ha":803,"x_min":86,"x_max":657,"o":"m 390 726 q 588 660 519 726 q 657 467 657 593 l 657 0 l 613 0 l 613 144 q 509 35 578 75 q 344 -4 440 -4 q 155 51 224 -4 q 86 199 86 107 q 149 341 86 286 q 349 396 211 396 l 611 396 l 611 467 q 555 629 611 574 q 389 685 499 685 q 246 658 313 685 q 132 588 179 632 l 107 621 q 234 699 160 671 q 390 726 308 726 m 347 35 q 611 208 542 35 l 611 358 l 349 358 q 184 316 236 358 q 132 201 132 274 q 190 79 132 124 q 347 35 247 35 m 383 839 q 254 870 306 839 q 193 958 203 901 l 231 958 q 279 894 239 917 q 383 872 319 872 q 488 894 447 872 q 536 958 528 917 l 574 958 q 513 870 564 901 q 383 839 461 839 m 471 999 q 421 1010 443 999 q 372 1040 399 1021 q 330 1066 344 1058 q 297 1074 315 1074 q 246 1055 265 1074 q 225 1003 226 1036 l 190 1003 q 221 1080 192 1051 q 297 1108 250 1108 q 345 1098 324 1108 q 394 1067 367 1088 q 437 1041 422 1049 q 469 1033 451 1033 q 522 1051 501 1033 q 543 1103 542 1069 l 576 1103 q 547 1027 575 1056 q 471 999 518 999 z "},"ǎ":{"ha":803,"x_min":86,"x_max":657,"o":"m 390 726 q 588 660 519 726 q 657 467 657 593 l 657 0 l 613 0 l 613 144 q 509 35 578 75 q 344 -4 440 -4 q 155 51 224 -4 q 86 199 86 107 q 149 341 86 286 q 349 396 211 396 l 611 396 l 611 467 q 555 629 611 574 q 389 685 499 685 q 246 658 313 685 q 132 588 179 632 l 107 621 q 234 699 160 671 q 390 726 308 726 m 347 35 q 611 208 542 35 l 611 358 l 349 358 q 184 316 236 358 q 132 201 132 274 q 190 79 132 124 q 347 35 247 35 m 585 1000 l 413 843 l 354 843 l 182 1000 l 233 1000 l 383 875 l 533 1000 l 585 1000 z "},"â":{"ha":803,"x_min":86,"x_max":657,"o":"m 390 726 q 588 660 519 726 q 657 467 657 593 l 657 0 l 613 0 l 613 144 q 509 35 578 75 q 344 -4 440 -4 q 155 51 224 -4 q 86 199 86 107 q 149 341 86 286 q 349 396 211 396 l 611 396 l 611 467 q 555 629 611 574 q 389 685 499 685 q 246 658 313 685 q 132 588 179 632 l 107 621 q 234 699 160 671 q 390 726 308 726 m 347 35 q 611 208 542 35 l 611 358 l 349 358 q 184 316 236 358 q 132 201 132 274 q 190 79 132 124 q 347 35 247 35 m 533 843 l 383 968 l 233 843 l 182 843 l 354 1000 l 413 1000 l 585 843 l 533 843 z "},"ấ":{"ha":803,"x_min":86,"x_max":739,"o":"m 390 726 q 588 660 519 726 q 657 467 657 593 l 657 0 l 613 0 l 613 144 q 509 35 578 75 q 344 -4 440 -4 q 155 51 224 -4 q 86 199 86 107 q 149 341 86 286 q 349 396 211 396 l 611 396 l 611 467 q 555 629 611 574 q 389 685 499 685 q 246 658 313 685 q 132 588 179 632 l 107 621 q 234 699 160 671 q 390 726 308 726 m 347 35 q 611 208 542 35 l 611 358 l 349 358 q 184 316 236 358 q 132 201 132 274 q 190 79 132 124 q 347 35 247 35 m 529 843 l 383 929 l 238 843 l 182 843 l 356 958 l 411 958 l 585 843 l 529 843 m 667 1092 l 739 1092 l 546 950 l 493 950 l 667 1092 z "},"ậ":{"ha":803,"x_min":86,"x_max":657,"o":"m 390 726 q 588 660 519 726 q 657 467 657 593 l 657 0 l 613 0 l 613 144 q 509 35 578 75 q 344 -4 440 -4 q 155 51 224 -4 q 86 199 86 107 q 149 341 86 286 q 349 396 211 396 l 611 396 l 611 467 q 555 629 611 574 q 389 685 499 685 q 246 658 313 685 q 132 588 179 632 l 107 621 q 234 699 160 671 q 390 726 308 726 m 347 35 q 611 208 542 35 l 611 358 l 349 358 q 184 316 236 358 q 132 201 132 274 q 190 79 132 124 q 347 35 247 35 m 394 -249 q 365 -237 378 -249 q 353 -207 353 -225 q 365 -178 353 -190 q 394 -165 378 -165 q 424 -178 411 -165 q 436 -207 436 -190 q 424 -237 436 -225 q 394 -249 411 -249 m 533 843 l 383 968 l 233 843 l 182 843 l 354 1000 l 413 1000 l 585 843 l 533 843 z "},"ầ":{"ha":803,"x_min":86,"x_max":657,"o":"m 390 726 q 588 660 519 726 q 657 467 657 593 l 657 0 l 613 0 l 613 144 q 509 35 578 75 q 344 -4 440 -4 q 155 51 224 -4 q 86 199 86 107 q 149 341 86 286 q 349 396 211 396 l 611 396 l 611 467 q 555 629 611 574 q 389 685 499 685 q 246 658 313 685 q 132 588 179 632 l 107 621 q 234 699 160 671 q 390 726 308 726 m 347 35 q 611 208 542 35 l 611 358 l 349 358 q 184 316 236 358 q 132 201 132 274 q 190 79 132 124 q 347 35 247 35 m 529 843 l 383 929 l 238 843 l 182 843 l 356 958 l 411 958 l 585 843 l 529 843 m 383 1092 l 456 1092 l 629 950 l 576 950 l 383 1092 z "},"ẩ":{"ha":803,"x_min":86,"x_max":657,"o":"m 390 726 q 588 660 519 726 q 657 467 657 593 l 657 0 l 613 0 l 613 144 q 509 35 578 75 q 344 -4 440 -4 q 155 51 224 -4 q 86 199 86 107 q 149 341 86 286 q 349 396 211 396 l 611 396 l 611 467 q 555 629 611 574 q 389 685 499 685 q 246 658 313 685 q 132 588 179 632 l 107 621 q 234 699 160 671 q 390 726 308 726 m 347 35 q 611 208 542 35 l 611 358 l 349 358 q 184 316 236 358 q 132 201 132 274 q 190 79 132 124 q 347 35 247 35 m 529 843 l 383 929 l 238 843 l 182 843 l 356 958 l 411 958 l 585 843 l 529 843 m 518 954 q 564 988 547 968 q 581 1029 581 1007 q 565 1065 581 1051 q 522 1079 549 1079 q 463 1061 490 1079 l 450 1088 q 526 1111 481 1111 q 590 1089 567 1111 q 614 1031 614 1067 q 594 972 614 999 q 536 929 574 946 l 518 954 z "},"ẫ":{"ha":803,"x_min":86,"x_max":657,"o":"m 390 726 q 588 660 519 726 q 657 467 657 593 l 657 0 l 613 0 l 613 144 q 509 35 578 75 q 344 -4 440 -4 q 155 51 224 -4 q 86 199 86 107 q 149 341 86 286 q 349 396 211 396 l 611 396 l 611 467 q 555 629 611 574 q 389 685 499 685 q 246 658 313 685 q 132 588 179 632 l 107 621 q 234 699 160 671 q 390 726 308 726 m 347 35 q 611 208 542 35 l 611 358 l 349 358 q 184 316 236 358 q 132 201 132 274 q 190 79 132 124 q 347 35 247 35 m 529 843 l 383 929 l 238 843 l 182 843 l 356 958 l 411 958 l 585 843 l 529 843 m 471 1006 q 421 1017 443 1006 q 372 1047 399 1028 q 330 1073 344 1065 q 297 1081 315 1081 q 246 1062 265 1081 q 225 1010 226 1043 l 190 1010 q 221 1087 192 1058 q 297 1115 250 1115 q 345 1105 324 1115 q 394 1074 367 1094 q 437 1048 422 1056 q 469 1040 451 1040 q 522 1058 501 1040 q 543 1110 542 1076 l 576 1110 q 547 1034 575 1063 q 471 1006 518 1006 z "},"ȁ":{"ha":803,"x_min":86,"x_max":657,"o":"m 390 726 q 588 660 519 726 q 657 467 657 593 l 657 0 l 613 0 l 613 144 q 509 35 578 75 q 344 -4 440 -4 q 155 51 224 -4 q 86 199 86 107 q 149 341 86 286 q 349 396 211 396 l 611 396 l 611 467 q 555 629 611 574 q 389 685 499 685 q 246 658 313 685 q 132 588 179 632 l 107 621 q 234 699 160 671 q 390 726 308 726 m 347 35 q 611 208 542 35 l 611 358 l 349 358 q 184 316 236 358 q 132 201 132 274 q 190 79 132 124 q 347 35 247 35 m 96 1000 l 158 1000 l 308 843 l 257 843 l 96 1000 m 297 1000 l 360 1000 l 510 843 l 458 843 l 297 1000 z "},"ä":{"ha":803,"x_min":86,"x_max":657,"o":"m 390 726 q 588 660 519 726 q 657 467 657 593 l 657 0 l 613 0 l 613 144 q 509 35 578 75 q 344 -4 440 -4 q 155 51 224 -4 q 86 199 86 107 q 149 341 86 286 q 349 396 211 396 l 611 396 l 611 467 q 555 629 611 574 q 389 685 499 685 q 246 658 313 685 q 132 588 179 632 l 107 621 q 234 699 160 671 q 390 726 308 726 m 347 35 q 611 208 542 35 l 611 358 l 349 358 q 184 316 236 358 q 132 201 132 274 q 190 79 132 124 q 347 35 247 35 m 267 886 q 238 899 250 886 q 225 928 225 911 q 238 958 225 946 q 267 971 250 971 q 297 958 285 971 q 308 928 308 946 q 297 899 308 911 q 267 886 285 886 m 500 886 q 470 899 482 886 q 458 928 458 911 q 470 958 458 946 q 500 971 482 971 q 529 958 517 971 q 542 928 542 946 q 529 899 542 911 q 500 886 517 886 z "},"ạ":{"ha":803,"x_min":86,"x_max":657,"o":"m 390 726 q 588 660 519 726 q 657 467 657 593 l 657 0 l 613 0 l 613 144 q 509 35 578 75 q 344 -4 440 -4 q 155 51 224 -4 q 86 199 86 107 q 149 341 86 286 q 349 396 211 396 l 611 396 l 611 467 q 555 629 611 574 q 389 685 499 685 q 246 658 313 685 q 132 588 179 632 l 107 621 q 234 699 160 671 q 390 726 308 726 m 347 35 q 611 208 542 35 l 611 358 l 349 358 q 184 316 236 358 q 132 201 132 274 q 190 79 132 124 q 347 35 247 35 m 394 -249 q 365 -237 378 -249 q 353 -207 353 -225 q 365 -178 353 -190 q 394 -165 378 -165 q 424 -178 411 -165 q 436 -207 436 -190 q 424 -237 436 -225 q 394 -249 411 -249 z "},"à":{"ha":803,"x_min":86,"x_max":657,"o":"m 390 726 q 588 660 519 726 q 657 467 657 593 l 657 0 l 613 0 l 613 144 q 509 35 578 75 q 344 -4 440 -4 q 155 51 224 -4 q 86 199 86 107 q 149 341 86 286 q 349 396 211 396 l 611 396 l 611 467 q 555 629 611 574 q 389 685 499 685 q 246 658 313 685 q 132 588 179 632 l 107 621 q 234 699 160 671 q 390 726 308 726 m 347 35 q 611 208 542 35 l 611 358 l 349 358 q 184 316 236 358 q 132 201 132 274 q 190 79 132 124 q 347 35 247 35 m 185 1000 l 260 1000 l 453 843 l 397 843 l 185 1000 z "},"ả":{"ha":803,"x_min":86,"x_max":657,"o":"m 390 726 q 588 660 519 726 q 657 467 657 593 l 657 0 l 613 0 l 613 144 q 509 35 578 75 q 344 -4 440 -4 q 155 51 224 -4 q 86 199 86 107 q 149 341 86 286 q 349 396 211 396 l 611 396 l 611 467 q 555 629 611 574 q 389 685 499 685 q 246 658 313 685 q 132 588 179 632 l 107 621 q 234 699 160 671 q 390 726 308 726 m 347 35 q 611 208 542 35 l 611 358 l 349 358 q 184 316 236 358 q 132 201 132 274 q 190 79 132 124 q 347 35 247 35 m 371 864 q 457 968 457 901 q 435 1021 457 1000 q 378 1042 413 1042 q 292 1015 332 1042 l 278 1046 q 325 1068 297 1060 q 379 1076 353 1076 q 463 1048 432 1076 q 493 972 493 1019 q 468 895 493 928 q 390 836 443 863 l 371 864 z "},"ȃ":{"ha":803,"x_min":86,"x_max":657,"o":"m 390 726 q 588 660 519 726 q 657 467 657 593 l 657 0 l 613 0 l 613 144 q 509 35 578 75 q 344 -4 440 -4 q 155 51 224 -4 q 86 199 86 107 q 149 341 86 286 q 349 396 211 396 l 611 396 l 611 467 q 555 629 611 574 q 389 685 499 685 q 246 658 313 685 q 132 588 179 632 l 107 621 q 234 699 160 671 q 390 726 308 726 m 347 35 q 611 208 542 35 l 611 358 l 349 358 q 184 316 236 358 q 132 201 132 274 q 190 79 132 124 q 347 35 247 35 m 193 843 q 249 961 194 917 q 383 1006 303 1006 q 518 961 464 1006 q 574 843 572 917 l 536 843 q 491 936 535 901 q 383 971 447 971 q 276 936 319 971 q 231 843 232 901 l 193 843 z "},"ā":{"ha":803,"x_min":86,"x_max":657,"o":"m 390 726 q 588 660 519 726 q 657 467 657 593 l 657 0 l 613 0 l 613 144 q 509 35 578 75 q 344 -4 440 -4 q 155 51 224 -4 q 86 199 86 107 q 149 341 86 286 q 349 396 211 396 l 611 396 l 611 467 q 555 629 611 574 q 389 685 499 685 q 246 658 313 685 q 132 588 179 632 l 107 621 q 234 699 160 671 q 390 726 308 726 m 347 35 q 611 208 542 35 l 611 358 l 349 358 q 184 316 236 358 q 132 201 132 274 q 190 79 132 124 q 347 35 247 35 m 188 940 l 579 940 l 579 903 l 188 903 l 188 940 z "},"ą":{"ha":803,"x_min":86,"x_max":683,"o":"m 390 726 q 588 660 519 726 q 657 467 657 593 l 657 0 l 613 0 l 613 144 q 509 35 578 75 q 344 -4 440 -4 q 155 51 224 -4 q 86 199 86 107 q 149 341 86 286 q 349 396 211 396 l 611 396 l 611 467 q 555 629 611 574 q 389 685 499 685 q 246 658 313 685 q 132 588 179 632 l 107 621 q 234 699 160 671 q 390 726 308 726 m 347 35 q 611 208 542 35 l 611 358 l 349 358 q 184 316 236 358 q 132 201 132 274 q 190 79 132 124 q 347 35 247 35 m 576 -299 q 480 -266 517 -299 q 443 -179 443 -233 q 635 26 443 -58 l 657 0 q 519 -87 557 -43 q 482 -178 482 -132 q 509 -242 482 -219 q 581 -264 536 -264 q 626 -256 604 -264 q 665 -233 649 -247 l 683 -261 q 576 -299 638 -299 z "},"å":{"ha":803,"x_min":86,"x_max":657,"o":"m 390 726 q 588 660 519 726 q 657 467 657 593 l 657 0 l 613 0 l 613 144 q 509 35 578 75 q 344 -4 440 -4 q 155 51 224 -4 q 86 199 86 107 q 149 341 86 286 q 349 396 211 396 l 611 396 l 611 467 q 555 629 611 574 q 389 685 499 685 q 246 658 313 685 q 132 588 179 632 l 107 621 q 234 699 160 671 q 390 726 308 726 m 347 35 q 611 208 542 35 l 611 358 l 349 358 q 184 316 236 358 q 132 201 132 274 q 190 79 132 124 q 347 35 247 35 m 382 829 q 288 867 325 829 q 250 958 250 904 q 288 1051 250 1013 q 382 1090 325 1090 q 477 1051 439 1090 q 515 958 515 1013 q 477 867 515 904 q 382 829 439 829 m 382 860 q 453 888 425 860 q 482 958 482 917 q 453 1029 482 1000 q 382 1058 424 1058 q 312 1029 340 1058 q 283 958 283 1000 q 311 888 283 917 q 382 860 339 860 z "},"ǻ":{"ha":803,"x_min":86,"x_max":657,"o":"m 390 726 q 588 660 519 726 q 657 467 657 593 l 657 0 l 613 0 l 613 144 q 509 35 578 75 q 344 -4 440 -4 q 155 51 224 -4 q 86 199 86 107 q 149 341 86 286 q 349 396 211 396 l 611 396 l 611 467 q 555 629 611 574 q 389 685 499 685 q 246 658 313 685 q 132 588 179 632 l 107 621 q 234 699 160 671 q 390 726 308 726 m 347 35 q 611 208 542 35 l 611 358 l 349 358 q 184 316 236 358 q 132 201 132 274 q 190 79 132 124 q 347 35 247 35 m 485 1043 q 515 958 515 1006 q 477 867 515 904 q 382 829 439 829 q 288 867 325 829 q 250 958 250 904 q 288 1051 250 1013 q 382 1090 325 1090 q 458 1067 424 1090 l 571 1175 l 603 1150 l 485 1043 m 382 860 q 453 888 425 860 q 482 958 482 917 q 453 1029 482 1000 q 382 1058 424 1058 q 312 1029 340 1058 q 283 958 283 1000 q 311 888 283 917 q 382 860 339 860 z "},"ã":{"ha":803,"x_min":86,"x_max":657,"o":"m 390 726 q 588 660 519 726 q 657 467 657 593 l 657 0 l 613 0 l 613 144 q 509 35 578 75 q 344 -4 440 -4 q 155 51 224 -4 q 86 199 86 107 q 149 341 86 286 q 349 396 211 396 l 611 396 l 611 467 q 555 629 611 574 q 389 685 499 685 q 246 658 313 685 q 132 588 179 632 l 107 621 q 234 699 160 671 q 390 726 308 726 m 347 35 q 611 208 542 35 l 611 358 l 349 358 q 184 316 236 358 q 132 201 132 274 q 190 79 132 124 q 347 35 247 35 m 472 857 q 422 870 443 857 q 371 910 400 883 q 331 942 349 931 q 296 953 314 953 q 244 928 263 953 q 222 861 225 904 l 188 861 q 219 954 190 919 q 294 989 247 989 q 345 976 324 989 q 396 936 367 963 q 435 904 418 915 q 471 893 453 893 q 523 917 504 893 q 544 982 542 942 l 579 982 q 548 892 576 926 q 472 857 519 857 z "},"æ":{"ha":1363,"x_min":86,"x_max":1290,"o":"m 1290 369 q 1289 357 1290 361 l 657 357 q 699 191 657 264 q 813 78 740 118 q 978 38 886 38 q 1112 65 1050 38 q 1217 144 1174 92 l 1246 114 q 1127 26 1197 56 q 976 -4 1057 -4 q 778 49 867 -4 q 644 204 690 103 q 537 47 618 99 q 346 -4 456 -4 q 156 51 225 -4 q 86 200 86 107 q 149 340 86 286 q 349 394 211 394 l 611 394 l 611 467 q 555 629 611 574 q 389 685 499 685 q 246 658 313 685 q 132 588 179 632 l 107 621 q 234 699 160 671 q 390 726 308 726 q 649 533 614 726 q 770 674 690 622 q 951 726 850 726 q 1124 681 1046 726 q 1246 553 1201 635 q 1290 369 1290 472 m 951 685 q 807 648 872 685 q 703 545 742 611 q 658 394 664 479 l 1244 394 q 1199 545 1239 479 q 1094 648 1160 611 q 951 685 1029 685 m 349 35 q 540 100 468 35 q 611 281 611 165 l 611 357 l 349 357 q 184 315 236 357 q 132 201 132 272 q 190 79 132 124 q 349 35 247 35 z "},"ǽ":{"ha":1363,"x_min":86,"x_max":1290,"o":"m 1290 369 q 1289 357 1290 361 l 657 357 q 699 191 657 264 q 813 78 740 118 q 978 38 886 38 q 1112 65 1050 38 q 1217 144 1174 92 l 1246 114 q 1127 26 1197 56 q 976 -4 1057 -4 q 778 49 867 -4 q 644 204 690 103 q 537 47 618 99 q 346 -4 456 -4 q 156 51 225 -4 q 86 200 86 107 q 149 340 86 286 q 349 394 211 394 l 611 394 l 611 467 q 555 629 611 574 q 389 685 499 685 q 246 658 313 685 q 132 588 179 632 l 107 621 q 234 699 160 671 q 390 726 308 726 q 649 533 614 726 q 770 674 690 622 q 951 726 850 726 q 1124 681 1046 726 q 1246 553 1201 635 q 1290 369 1290 472 m 951 685 q 807 648 872 685 q 703 545 742 611 q 658 394 664 479 l 1244 394 q 1199 545 1239 479 q 1094 648 1160 611 q 951 685 1029 685 m 349 35 q 540 100 468 35 q 611 281 611 165 l 611 357 l 349 357 q 184 315 236 357 q 132 201 132 272 q 190 79 132 124 q 349 35 247 35 m 757 1000 l 832 1000 l 619 843 l 564 843 l 757 1000 z "},"b":{"ha":935,"x_min":154,"x_max":863,"o":"m 510 726 q 689 680 608 726 q 816 550 769 633 q 863 361 863 467 q 816 172 863 256 q 689 42 769 89 q 510 -4 608 -4 q 322 49 404 -4 q 199 197 239 103 l 199 0 l 154 0 l 154 1031 l 200 1031 l 200 528 q 323 674 240 621 q 510 726 406 726 m 508 38 q 666 78 596 38 q 776 193 736 119 q 817 361 817 267 q 776 528 817 456 q 666 642 736 601 q 508 683 596 683 q 351 642 421 683 q 240 528 281 601 q 200 361 200 456 q 240 193 200 267 q 351 78 281 119 q 508 38 421 38 z "},"c":{"ha":763,"x_min":72,"x_max":697,"o":"m 431 -4 q 247 42 328 -4 q 119 172 165 89 q 72 361 72 256 q 119 550 72 467 q 247 680 165 633 q 431 726 328 726 q 583 695 513 726 q 697 603 653 664 l 663 574 q 563 656 624 628 q 431 683 503 683 q 270 642 342 683 q 158 528 199 601 q 118 361 118 456 q 158 193 118 267 q 270 78 199 119 q 431 38 342 38 q 563 65 503 38 q 663 147 624 93 l 697 119 q 583 27 653 58 q 431 -4 513 -4 z "},"ć":{"ha":763,"x_min":72,"x_max":697,"o":"m 431 -4 q 247 42 328 -4 q 119 172 165 89 q 72 361 72 256 q 119 550 72 467 q 247 680 165 633 q 431 726 328 726 q 583 695 513 726 q 697 603 653 664 l 663 574 q 563 656 624 628 q 431 683 503 683 q 270 642 342 683 q 158 528 199 601 q 118 361 118 456 q 158 193 118 267 q 270 78 199 119 q 431 38 342 38 q 563 65 503 38 q 663 147 624 93 l 697 119 q 583 27 653 58 q 431 -4 513 -4 m 531 1000 l 606 1000 l 393 843 l 338 843 l 531 1000 z "},"č":{"ha":763,"x_min":72,"x_max":697,"o":"m 431 -4 q 247 42 328 -4 q 119 172 165 89 q 72 361 72 256 q 119 550 72 467 q 247 680 165 633 q 431 726 328 726 q 583 695 513 726 q 697 603 653 664 l 663 574 q 563 656 624 628 q 431 683 503 683 q 270 642 342 683 q 158 528 199 601 q 118 361 118 456 q 158 193 118 267 q 270 78 199 119 q 431 38 342 38 q 563 65 503 38 q 663 147 624 93 l 697 119 q 583 27 653 58 q 431 -4 513 -4 m 608 1000 l 436 843 l 378 843 l 206 1000 l 257 1000 l 407 875 l 557 1000 l 608 1000 z "},"ç":{"ha":763,"x_min":72,"x_max":697,"o":"m 431 -4 q 247 42 328 -4 q 119 172 165 89 q 72 361 72 256 q 119 550 72 467 q 247 680 165 633 q 431 726 328 726 q 583 695 513 726 q 697 603 653 664 l 663 574 q 563 656 624 628 q 431 683 503 683 q 270 642 342 683 q 158 528 199 601 q 118 361 118 456 q 158 193 118 267 q 270 78 199 119 q 431 38 342 38 q 563 65 503 38 q 663 147 624 93 l 697 119 q 583 27 653 58 q 431 -4 513 -4 m 382 -299 q 276 -262 321 -299 l 294 -233 q 382 -264 329 -264 q 451 -243 425 -264 q 478 -185 478 -222 q 452 -128 478 -150 q 382 -107 426 -107 l 357 -107 l 389 7 l 424 7 l 400 -76 q 485 -109 454 -79 q 517 -186 517 -139 q 478 -267 517 -236 q 382 -299 440 -299 z "},"ḉ":{"ha":763,"x_min":72,"x_max":697,"o":"m 431 -4 q 247 42 328 -4 q 119 172 165 89 q 72 361 72 256 q 119 550 72 467 q 247 680 165 633 q 431 726 328 726 q 583 695 513 726 q 697 603 653 664 l 663 574 q 563 656 624 628 q 431 683 503 683 q 270 642 342 683 q 158 528 199 601 q 118 361 118 456 q 158 193 118 267 q 270 78 199 119 q 431 38 342 38 q 563 65 503 38 q 663 147 624 93 l 697 119 q 583 27 653 58 q 431 -4 513 -4 m 382 -299 q 276 -262 321 -299 l 294 -233 q 382 -264 329 -264 q 451 -243 425 -264 q 478 -185 478 -222 q 452 -128 478 -150 q 382 -107 426 -107 l 357 -107 l 389 7 l 424 7 l 400 -76 q 485 -109 454 -79 q 517 -186 517 -139 q 478 -267 517 -236 q 382 -299 440 -299 m 531 1000 l 606 1000 l 393 843 l 338 843 l 531 1000 z "},"ĉ":{"ha":763,"x_min":72,"x_max":697,"o":"m 431 -4 q 247 42 328 -4 q 119 172 165 89 q 72 361 72 256 q 119 550 72 467 q 247 680 165 633 q 431 726 328 726 q 583 695 513 726 q 697 603 653 664 l 663 574 q 563 656 624 628 q 431 683 503 683 q 270 642 342 683 q 158 528 199 601 q 118 361 118 456 q 158 193 118 267 q 270 78 199 119 q 431 38 342 38 q 563 65 503 38 q 663 147 624 93 l 697 119 q 583 27 653 58 q 431 -4 513 -4 m 557 843 l 407 968 l 257 843 l 206 843 l 378 1000 l 436 1000 l 608 843 l 557 843 z "},"ċ":{"ha":763,"x_min":72,"x_max":697,"o":"m 431 -4 q 247 42 328 -4 q 119 172 165 89 q 72 361 72 256 q 119 550 72 467 q 247 680 165 633 q 431 726 328 726 q 583 695 513 726 q 697 603 653 664 l 663 574 q 563 656 624 628 q 431 683 503 683 q 270 642 342 683 q 158 528 199 601 q 118 361 118 456 q 158 193 118 267 q 270 78 199 119 q 431 38 342 38 q 563 65 503 38 q 663 147 624 93 l 697 119 q 583 27 653 58 q 431 -4 513 -4 m 407 886 q 376 899 389 886 q 363 931 363 913 q 376 962 363 949 q 407 975 389 975 q 438 962 425 975 q 451 931 451 949 q 438 899 451 913 q 407 886 425 886 z "},"d":{"ha":935,"x_min":72,"x_max":781,"o":"m 781 1031 l 781 0 l 736 0 l 736 197 q 613 49 696 103 q 425 -4 531 -4 q 246 42 326 -4 q 119 172 165 89 q 72 361 72 256 q 119 550 72 467 q 246 680 165 633 q 425 726 326 726 q 612 674 529 726 q 735 528 694 621 l 735 1031 l 781 1031 m 426 38 q 584 78 514 38 q 694 193 654 119 q 735 361 735 267 q 694 528 735 456 q 584 642 654 601 q 426 683 514 683 q 269 642 339 683 q 158 528 199 601 q 118 361 118 456 q 158 193 118 267 q 269 78 199 119 q 426 38 339 38 z "},"ð":{"ha":864,"x_min":72,"x_max":792,"o":"m 626 897 q 749 731 706 835 q 792 485 792 626 q 690 126 792 257 q 399 -6 589 -6 q 230 32 304 -6 q 114 138 156 69 q 72 297 72 207 q 114 456 72 388 q 232 563 156 525 q 408 600 308 600 q 622 534 533 600 q 733 350 711 468 q 746 492 746 418 q 703 725 746 628 q 581 878 660 822 l 207 714 l 192 750 l 538 901 q 356 940 460 940 q 149 911 246 940 l 139 953 q 356 982 240 982 q 586 924 490 982 l 710 978 l 725 940 l 626 897 m 401 36 q 563 74 494 36 q 667 171 632 111 q 703 297 703 231 q 665 429 703 369 q 562 524 628 489 q 411 558 496 558 q 197 487 275 558 q 118 297 118 415 q 153 162 118 221 q 253 69 189 103 q 401 36 318 36 z "},"ď":{"ha":935,"x_min":72,"x_max":958,"o":"m 781 1031 l 781 0 l 736 0 l 736 197 q 613 49 696 103 q 425 -4 531 -4 q 246 42 326 -4 q 119 172 165 89 q 72 361 72 256 q 119 550 72 467 q 246 680 165 633 q 425 726 326 726 q 612 674 529 726 q 735 528 694 621 l 735 1031 l 781 1031 m 426 38 q 584 78 514 38 q 694 193 654 119 q 735 361 735 267 q 694 528 735 456 q 584 642 654 601 q 426 683 514 683 q 269 642 339 683 q 158 528 199 601 q 118 361 118 456 q 158 193 118 267 q 269 78 199 119 q 426 38 339 38 m 917 1061 l 958 1061 l 953 808 l 917 808 l 917 1061 z "},"đ":{"ha":935,"x_min":72,"x_max":935,"o":"m 781 1031 l 781 0 l 736 0 l 736 197 q 613 49 696 103 q 425 -4 531 -4 q 246 42 326 -4 q 119 172 165 89 q 72 361 72 256 q 119 550 72 467 q 246 680 165 633 q 425 726 326 726 q 612 674 529 726 q 735 528 694 621 l 735 1031 l 781 1031 m 426 38 q 584 78 514 38 q 694 193 654 119 q 735 361 735 267 q 694 528 735 456 q 584 642 654 601 q 426 683 514 683 q 269 642 339 683 q 158 528 199 601 q 118 361 118 456 q 158 193 118 267 q 269 78 199 119 q 426 38 339 38 m 404 897 l 935 897 l 935 858 l 404 858 l 404 897 z "},"ḍ":{"ha":935,"x_min":72,"x_max":781,"o":"m 781 1031 l 781 0 l 736 0 l 736 197 q 613 49 696 103 q 425 -4 531 -4 q 246 42 326 -4 q 119 172 165 89 q 72 361 72 256 q 119 550 72 467 q 246 680 165 633 q 425 726 326 726 q 612 674 529 726 q 735 528 694 621 l 735 1031 l 781 1031 m 426 38 q 584 78 514 38 q 694 193 654 119 q 735 361 735 267 q 694 528 735 456 q 584 642 654 601 q 426 683 514 683 q 269 642 339 683 q 158 528 199 601 q 118 361 118 456 q 158 193 118 267 q 269 78 199 119 q 426 38 339 38 m 460 -249 q 431 -237 443 -249 q 418 -207 418 -225 q 431 -178 418 -190 q 460 -165 443 -165 q 489 -178 476 -165 q 501 -207 501 -190 q 489 -237 501 -225 q 460 -249 476 -249 z "},"ḏ":{"ha":935,"x_min":72,"x_max":781,"o":"m 781 1031 l 781 0 l 736 0 l 736 197 q 613 49 696 103 q 425 -4 531 -4 q 246 42 326 -4 q 119 172 165 89 q 72 361 72 256 q 119 550 72 467 q 246 680 165 633 q 425 726 326 726 q 612 674 529 726 q 735 528 694 621 l 735 1031 l 781 1031 m 426 38 q 584 78 514 38 q 694 193 654 119 q 735 361 735 267 q 694 528 735 456 q 584 642 654 601 q 426 683 514 683 q 269 642 339 683 q 158 528 199 601 q 118 361 118 456 q 158 193 118 267 q 269 78 199 119 q 426 38 339 38 m 264 -187 l 656 -187 l 656 -225 l 264 -225 l 264 -187 z "},"ǆ":{"ha":1650,"x_min":72,"x_max":1561,"o":"m 781 1031 l 781 0 l 736 0 l 736 197 q 613 49 696 103 q 425 -4 531 -4 q 246 42 326 -4 q 119 172 165 89 q 72 361 72 256 q 119 550 72 467 q 246 680 165 633 q 425 726 326 726 q 612 674 529 726 q 735 528 694 621 l 735 1031 l 781 1031 m 426 38 q 584 78 514 38 q 694 193 654 119 q 735 361 735 267 q 694 528 735 456 q 584 642 654 601 q 426 683 514 683 q 269 642 339 683 q 158 528 199 601 q 118 361 118 456 q 158 193 118 267 q 269 78 199 119 q 426 38 339 38 m 1561 40 l 1561 0 l 999 0 l 999 32 l 1493 681 l 1006 681 l 1006 721 l 1554 721 l 1554 689 l 1058 40 l 1561 40 m 1482 1000 l 1310 843 l 1251 843 l 1079 1000 l 1131 1000 l 1281 875 l 1431 1000 l 1482 1000 z "},"e":{"ha":821,"x_min":72,"x_max":749,"o":"m 749 354 l 117 354 q 160 190 118 263 q 274 78 201 118 q 438 38 347 38 q 574 65 511 38 q 676 144 636 92 l 706 114 q 588 26 657 57 q 438 -4 518 -4 q 249 42 332 -4 q 119 172 167 89 q 72 361 72 256 q 116 550 72 467 q 238 680 160 633 q 411 726 315 726 q 583 681 506 726 q 704 553 660 635 q 749 367 749 471 l 749 354 m 411 685 q 265 647 331 685 q 161 542 200 610 q 118 392 122 475 l 706 392 q 660 542 700 475 q 556 647 621 610 q 411 685 492 685 z "},"é":{"ha":821,"x_min":72,"x_max":749,"o":"m 749 354 l 117 354 q 160 190 118 263 q 274 78 201 118 q 438 38 347 38 q 574 65 511 38 q 676 144 636 92 l 706 114 q 588 26 657 57 q 438 -4 518 -4 q 249 42 332 -4 q 119 172 167 89 q 72 361 72 256 q 116 550 72 467 q 238 680 160 633 q 411 726 315 726 q 583 681 506 726 q 704 553 660 635 q 749 367 749 471 l 749 354 m 411 685 q 265 647 331 685 q 161 542 200 610 q 118 392 122 475 l 706 392 q 660 542 700 475 q 556 647 621 610 q 411 685 492 685 m 535 1000 l 610 1000 l 397 843 l 342 843 l 535 1000 z "},"ĕ":{"ha":821,"x_min":72,"x_max":749,"o":"m 749 354 l 117 354 q 160 190 118 263 q 274 78 201 118 q 438 38 347 38 q 574 65 511 38 q 676 144 636 92 l 706 114 q 588 26 657 57 q 438 -4 518 -4 q 249 42 332 -4 q 119 172 167 89 q 72 361 72 256 q 116 550 72 467 q 238 680 160 633 q 411 726 315 726 q 583 681 506 726 q 704 553 660 635 q 749 367 749 471 l 749 354 m 411 685 q 265 647 331 685 q 161 542 200 610 q 118 392 122 475 l 706 392 q 660 542 700 475 q 556 647 621 610 q 411 685 492 685 m 411 839 q 276 883 331 839 q 221 1000 222 926 l 258 1000 q 303 908 260 943 q 411 874 347 874 q 519 908 475 874 q 564 1000 563 943 l 601 1000 q 546 883 600 926 q 411 839 492 839 z "},"ě":{"ha":821,"x_min":72,"x_max":749,"o":"m 749 354 l 117 354 q 160 190 118 263 q 274 78 201 118 q 438 38 347 38 q 574 65 511 38 q 676 144 636 92 l 706 114 q 588 26 657 57 q 438 -4 518 -4 q 249 42 332 -4 q 119 172 167 89 q 72 361 72 256 q 116 550 72 467 q 238 680 160 633 q 411 726 315 726 q 583 681 506 726 q 704 553 660 635 q 749 367 749 471 l 749 354 m 411 685 q 265 647 331 685 q 161 542 200 610 q 118 392 122 475 l 706 392 q 660 542 700 475 q 556 647 621 610 q 411 685 492 685 m 613 1000 l 440 843 l 382 843 l 210 1000 l 261 1000 l 411 875 l 561 1000 l 613 1000 z "},"ḝ":{"ha":821,"x_min":72,"x_max":749,"o":"m 749 354 l 117 354 q 160 190 118 263 q 274 78 201 118 q 438 38 347 38 q 574 65 511 38 q 676 144 636 92 l 706 114 q 588 26 657 57 q 438 -4 518 -4 q 249 42 332 -4 q 119 172 167 89 q 72 361 72 256 q 116 550 72 467 q 238 680 160 633 q 411 726 315 726 q 583 681 506 726 q 704 553 660 635 q 749 367 749 471 l 749 354 m 411 685 q 265 647 331 685 q 161 542 200 610 q 118 392 122 475 l 706 392 q 660 542 700 475 q 556 647 621 610 q 411 685 492 685 m 386 -299 q 281 -262 325 -299 l 299 -233 q 386 -264 333 -264 q 456 -243 429 -264 q 482 -185 482 -222 q 456 -128 482 -150 q 386 -107 431 -107 l 361 -107 l 393 7 l 428 7 l 404 -76 q 490 -109 458 -79 q 521 -186 521 -139 q 483 -267 521 -236 q 386 -299 444 -299 m 411 839 q 276 883 331 839 q 221 1000 222 926 l 258 1000 q 303 908 260 943 q 411 874 347 874 q 519 908 475 874 q 564 1000 563 943 l 601 1000 q 546 883 600 926 q 411 839 492 839 z "},"ê":{"ha":821,"x_min":72,"x_max":749,"o":"m 749 354 l 117 354 q 160 190 118 263 q 274 78 201 118 q 438 38 347 38 q 574 65 511 38 q 676 144 636 92 l 706 114 q 588 26 657 57 q 438 -4 518 -4 q 249 42 332 -4 q 119 172 167 89 q 72 361 72 256 q 116 550 72 467 q 238 680 160 633 q 411 726 315 726 q 583 681 506 726 q 704 553 660 635 q 749 367 749 471 l 749 354 m 411 685 q 265 647 331 685 q 161 542 200 610 q 118 392 122 475 l 706 392 q 660 542 700 475 q 556 647 621 610 q 411 685 492 685 m 561 843 l 411 968 l 261 843 l 210 843 l 382 1000 l 440 1000 l 613 843 l 561 843 z "},"ế":{"ha":821,"x_min":72,"x_max":767,"o":"m 749 354 l 117 354 q 160 190 118 263 q 274 78 201 118 q 438 38 347 38 q 574 65 511 38 q 676 144 636 92 l 706 114 q 588 26 657 57 q 438 -4 518 -4 q 249 42 332 -4 q 119 172 167 89 q 72 361 72 256 q 116 550 72 467 q 238 680 160 633 q 411 726 315 726 q 583 681 506 726 q 704 553 660 635 q 749 367 749 471 l 749 354 m 411 685 q 265 647 331 685 q 161 542 200 610 q 118 392 122 475 l 706 392 q 660 542 700 475 q 556 647 621 610 q 411 685 492 685 m 557 843 l 411 929 l 265 843 l 210 843 l 383 958 l 439 958 l 613 843 l 557 843 m 694 1092 l 767 1092 l 574 950 l 521 950 l 694 1092 z "},"ệ":{"ha":821,"x_min":72,"x_max":749,"o":"m 749 354 l 117 354 q 160 190 118 263 q 274 78 201 118 q 438 38 347 38 q 574 65 511 38 q 676 144 636 92 l 706 114 q 588 26 657 57 q 438 -4 518 -4 q 249 42 332 -4 q 119 172 167 89 q 72 361 72 256 q 116 550 72 467 q 238 680 160 633 q 411 726 315 726 q 583 681 506 726 q 704 553 660 635 q 749 367 749 471 l 749 354 m 411 685 q 265 647 331 685 q 161 542 200 610 q 118 392 122 475 l 706 392 q 660 542 700 475 q 556 647 621 610 q 411 685 492 685 m 411 -249 q 382 -237 394 -249 q 369 -207 369 -225 q 382 -178 369 -190 q 411 -165 394 -165 q 440 -178 428 -165 q 453 -207 453 -190 q 440 -237 453 -225 q 411 -249 428 -249 m 561 843 l 411 968 l 261 843 l 210 843 l 382 1000 l 440 1000 l 613 843 l 561 843 z "},"ề":{"ha":821,"x_min":72,"x_max":749,"o":"m 749 354 l 117 354 q 160 190 118 263 q 274 78 201 118 q 438 38 347 38 q 574 65 511 38 q 676 144 636 92 l 706 114 q 588 26 657 57 q 438 -4 518 -4 q 249 42 332 -4 q 119 172 167 89 q 72 361 72 256 q 116 550 72 467 q 238 680 160 633 q 411 726 315 726 q 583 681 506 726 q 704 553 660 635 q 749 367 749 471 l 749 354 m 411 685 q 265 647 331 685 q 161 542 200 610 q 118 392 122 475 l 706 392 q 660 542 700 475 q 556 647 621 610 q 411 685 492 685 m 557 843 l 411 929 l 265 843 l 210 843 l 383 958 l 439 958 l 613 843 l 557 843 m 411 1092 l 483 1092 l 657 950 l 604 950 l 411 1092 z "},"ể":{"ha":821,"x_min":72,"x_max":749,"o":"m 749 354 l 117 354 q 160 190 118 263 q 274 78 201 118 q 438 38 347 38 q 574 65 511 38 q 676 144 636 92 l 706 114 q 588 26 657 57 q 438 -4 518 -4 q 249 42 332 -4 q 119 172 167 89 q 72 361 72 256 q 116 550 72 467 q 238 680 160 633 q 411 726 315 726 q 583 681 506 726 q 704 553 660 635 q 749 367 749 471 l 749 354 m 411 685 q 265 647 331 685 q 161 542 200 610 q 118 392 122 475 l 706 392 q 660 542 700 475 q 556 647 621 610 q 411 685 492 685 m 557 843 l 411 929 l 265 843 l 210 843 l 383 958 l 439 958 l 613 843 l 557 843 m 546 954 q 592 988 575 968 q 608 1029 608 1007 q 592 1065 608 1051 q 550 1079 576 1079 q 490 1061 518 1079 l 478 1088 q 554 1111 508 1111 q 618 1089 594 1111 q 642 1031 642 1067 q 622 972 642 999 q 564 929 601 946 l 546 954 z "},"ễ":{"ha":821,"x_min":72,"x_max":749,"o":"m 749 354 l 117 354 q 160 190 118 263 q 274 78 201 118 q 438 38 347 38 q 574 65 511 38 q 676 144 636 92 l 706 114 q 588 26 657 57 q 438 -4 518 -4 q 249 42 332 -4 q 119 172 167 89 q 72 361 72 256 q 116 550 72 467 q 238 680 160 633 q 411 726 315 726 q 583 681 506 726 q 704 553 660 635 q 749 367 749 471 l 749 354 m 411 685 q 265 647 331 685 q 161 542 200 610 q 118 392 122 475 l 706 392 q 660 542 700 475 q 556 647 621 610 q 411 685 492 685 m 557 843 l 411 929 l 265 843 l 210 843 l 383 958 l 439 958 l 613 843 l 557 843 m 499 1006 q 449 1017 471 1006 q 400 1047 426 1028 q 358 1073 372 1065 q 325 1081 343 1081 q 274 1062 293 1081 q 253 1010 254 1043 l 218 1010 q 249 1087 219 1058 q 325 1115 278 1115 q 373 1105 351 1115 q 422 1074 394 1094 q 465 1048 450 1056 q 497 1040 479 1040 q 549 1058 529 1040 q 571 1110 569 1076 l 604 1110 q 574 1034 603 1063 q 499 1006 546 1006 z "},"ȅ":{"ha":821,"x_min":72,"x_max":749,"o":"m 749 354 l 117 354 q 160 190 118 263 q 274 78 201 118 q 438 38 347 38 q 574 65 511 38 q 676 144 636 92 l 706 114 q 588 26 657 57 q 438 -4 518 -4 q 249 42 332 -4 q 119 172 167 89 q 72 361 72 256 q 116 550 72 467 q 238 680 160 633 q 411 726 315 726 q 583 681 506 726 q 704 553 660 635 q 749 367 749 471 l 749 354 m 411 685 q 265 647 331 685 q 161 542 200 610 q 118 392 122 475 l 706 392 q 660 542 700 475 q 556 647 621 610 q 411 685 492 685 m 124 1000 l 186 1000 l 336 843 l 285 843 l 124 1000 m 325 1000 l 388 1000 l 538 843 l 486 843 l 325 1000 z "},"ë":{"ha":821,"x_min":72,"x_max":749,"o":"m 749 354 l 117 354 q 160 190 118 263 q 274 78 201 118 q 438 38 347 38 q 574 65 511 38 q 676 144 636 92 l 706 114 q 588 26 657 57 q 438 -4 518 -4 q 249 42 332 -4 q 119 172 167 89 q 72 361 72 256 q 116 550 72 467 q 238 680 160 633 q 411 726 315 726 q 583 681 506 726 q 704 553 660 635 q 749 367 749 471 l 749 354 m 411 685 q 265 647 331 685 q 161 542 200 610 q 118 392 122 475 l 706 392 q 660 542 700 475 q 556 647 621 610 q 411 685 492 685 m 294 886 q 265 899 278 886 q 253 928 253 911 q 265 958 253 946 q 294 971 278 971 q 324 958 313 971 q 336 928 336 946 q 324 899 336 911 q 294 886 313 886 m 528 886 q 498 899 510 886 q 486 928 486 911 q 498 958 486 946 q 528 971 510 971 q 557 958 544 971 q 569 928 569 946 q 557 899 569 911 q 528 886 544 886 z "},"ė":{"ha":821,"x_min":72,"x_max":749,"o":"m 749 354 l 117 354 q 160 190 118 263 q 274 78 201 118 q 438 38 347 38 q 574 65 511 38 q 676 144 636 92 l 706 114 q 588 26 657 57 q 438 -4 518 -4 q 249 42 332 -4 q 119 172 167 89 q 72 361 72 256 q 116 550 72 467 q 238 680 160 633 q 411 726 315 726 q 583 681 506 726 q 704 553 660 635 q 749 367 749 471 l 749 354 m 411 685 q 265 647 331 685 q 161 542 200 610 q 118 392 122 475 l 706 392 q 660 542 700 475 q 556 647 621 610 q 411 685 492 685 m 411 886 q 380 899 393 886 q 367 931 367 913 q 380 962 367 949 q 411 975 393 975 q 442 962 429 975 q 456 931 456 949 q 442 899 456 913 q 411 886 429 886 z "},"ẹ":{"ha":821,"x_min":72,"x_max":749,"o":"m 749 354 l 117 354 q 160 190 118 263 q 274 78 201 118 q 438 38 347 38 q 574 65 511 38 q 676 144 636 92 l 706 114 q 588 26 657 57 q 438 -4 518 -4 q 249 42 332 -4 q 119 172 167 89 q 72 361 72 256 q 116 550 72 467 q 238 680 160 633 q 411 726 315 726 q 583 681 506 726 q 704 553 660 635 q 749 367 749 471 l 749 354 m 411 685 q 265 647 331 685 q 161 542 200 610 q 118 392 122 475 l 706 392 q 660 542 700 475 q 556 647 621 610 q 411 685 492 685 m 411 -249 q 382 -237 394 -249 q 369 -207 369 -225 q 382 -178 369 -190 q 411 -165 394 -165 q 440 -178 428 -165 q 453 -207 453 -190 q 440 -237 453 -225 q 411 -249 428 -249 z "},"è":{"ha":821,"x_min":72,"x_max":749,"o":"m 749 354 l 117 354 q 160 190 118 263 q 274 78 201 118 q 438 38 347 38 q 574 65 511 38 q 676 144 636 92 l 706 114 q 588 26 657 57 q 438 -4 518 -4 q 249 42 332 -4 q 119 172 167 89 q 72 361 72 256 q 116 550 72 467 q 238 680 160 633 q 411 726 315 726 q 583 681 506 726 q 704 553 660 635 q 749 367 749 471 l 749 354 m 411 685 q 265 647 331 685 q 161 542 200 610 q 118 392 122 475 l 706 392 q 660 542 700 475 q 556 647 621 610 q 411 685 492 685 m 213 1000 l 288 1000 l 481 843 l 425 843 l 213 1000 z "},"ẻ":{"ha":821,"x_min":72,"x_max":749,"o":"m 749 354 l 117 354 q 160 190 118 263 q 274 78 201 118 q 438 38 347 38 q 574 65 511 38 q 676 144 636 92 l 706 114 q 588 26 657 57 q 438 -4 518 -4 q 249 42 332 -4 q 119 172 167 89 q 72 361 72 256 q 116 550 72 467 q 238 680 160 633 q 411 726 315 726 q 583 681 506 726 q 704 553 660 635 q 749 367 749 471 l 749 354 m 411 685 q 265 647 331 685 q 161 542 200 610 q 118 392 122 475 l 706 392 q 660 542 700 475 q 556 647 621 610 q 411 685 492 685 m 399 864 q 485 968 485 901 q 463 1021 485 1000 q 406 1042 440 1042 q 319 1015 360 1042 l 306 1046 q 353 1068 325 1060 q 407 1076 381 1076 q 490 1048 460 1076 q 521 972 521 1019 q 496 895 521 928 q 418 836 471 863 l 399 864 z "},"ȇ":{"ha":821,"x_min":72,"x_max":749,"o":"m 749 354 l 117 354 q 160 190 118 263 q 274 78 201 118 q 438 38 347 38 q 574 65 511 38 q 676 144 636 92 l 706 114 q 588 26 657 57 q 438 -4 518 -4 q 249 42 332 -4 q 119 172 167 89 q 72 361 72 256 q 116 550 72 467 q 238 680 160 633 q 411 726 315 726 q 583 681 506 726 q 704 553 660 635 q 749 367 749 471 l 749 354 m 411 685 q 265 647 331 685 q 161 542 200 610 q 118 392 122 475 l 706 392 q 660 542 700 475 q 556 647 621 610 q 411 685 492 685 m 221 843 q 276 961 222 917 q 411 1006 331 1006 q 546 961 492 1006 q 601 843 600 917 l 564 843 q 519 936 563 901 q 411 971 475 971 q 303 936 347 971 q 258 843 260 901 l 221 843 z "},"ē":{"ha":821,"x_min":72,"x_max":749,"o":"m 749 354 l 117 354 q 160 190 118 263 q 274 78 201 118 q 438 38 347 38 q 574 65 511 38 q 676 144 636 92 l 706 114 q 588 26 657 57 q 438 -4 518 -4 q 249 42 332 -4 q 119 172 167 89 q 72 361 72 256 q 116 550 72 467 q 238 680 160 633 q 411 726 315 726 q 583 681 506 726 q 704 553 660 635 q 749 367 749 471 l 749 354 m 411 685 q 265 647 331 685 q 161 542 200 610 q 118 392 122 475 l 706 392 q 660 542 700 475 q 556 647 621 610 q 411 685 492 685 m 215 940 l 607 940 l 607 903 l 215 903 l 215 940 z "},"ḗ":{"ha":821,"x_min":72,"x_max":749,"o":"m 749 354 l 117 354 q 160 190 118 263 q 274 78 201 118 q 438 38 347 38 q 574 65 511 38 q 676 144 636 92 l 706 114 q 588 26 657 57 q 438 -4 518 -4 q 249 42 332 -4 q 119 172 167 89 q 72 361 72 256 q 116 550 72 467 q 238 680 160 633 q 411 726 315 726 q 583 681 506 726 q 704 553 660 635 q 749 367 749 471 l 749 354 m 411 685 q 265 647 331 685 q 161 542 200 610 q 118 392 122 475 l 706 392 q 660 542 700 475 q 556 647 621 610 q 411 685 492 685 m 215 919 l 607 919 l 607 883 l 215 883 l 215 919 m 517 1149 l 589 1149 l 396 1007 l 343 1007 l 517 1149 z "},"ḕ":{"ha":821,"x_min":72,"x_max":749,"o":"m 749 354 l 117 354 q 160 190 118 263 q 274 78 201 118 q 438 38 347 38 q 574 65 511 38 q 676 144 636 92 l 706 114 q 588 26 657 57 q 438 -4 518 -4 q 249 42 332 -4 q 119 172 167 89 q 72 361 72 256 q 116 550 72 467 q 238 680 160 633 q 411 726 315 726 q 583 681 506 726 q 704 553 660 635 q 749 367 749 471 l 749 354 m 411 685 q 265 647 331 685 q 161 542 200 610 q 118 392 122 475 l 706 392 q 660 542 700 475 q 556 647 621 610 q 411 685 492 685 m 215 919 l 607 919 l 607 883 l 215 883 l 215 919 m 233 1149 l 306 1149 l 479 1007 l 426 1007 l 233 1149 z "},"ę":{"ha":821,"x_min":72,"x_max":749,"o":"m 749 354 l 117 354 q 160 190 118 263 q 274 78 201 118 q 438 38 347 38 q 574 65 511 38 q 676 144 636 92 l 706 114 q 654 65 692 99 q 524 -78 556 -26 q 492 -175 492 -129 q 519 -241 492 -218 q 589 -264 546 -264 q 675 -233 640 -264 l 693 -261 q 586 -299 647 -299 q 490 -266 526 -299 q 453 -176 453 -233 q 554 14 453 -81 q 438 -4 500 -4 q 249 42 332 -4 q 119 172 167 89 q 72 361 72 256 q 116 550 72 467 q 238 680 160 633 q 411 726 315 726 q 583 681 506 726 q 704 553 660 635 q 749 367 749 471 l 749 354 m 411 685 q 265 647 331 685 q 161 542 200 610 q 118 392 122 475 l 706 392 q 660 542 700 475 q 556 647 621 610 q 411 685 492 685 z "},"ẽ":{"ha":821,"x_min":72,"x_max":749,"o":"m 749 354 l 117 354 q 160 190 118 263 q 274 78 201 118 q 438 38 347 38 q 574 65 511 38 q 676 144 636 92 l 706 114 q 588 26 657 57 q 438 -4 518 -4 q 249 42 332 -4 q 119 172 167 89 q 72 361 72 256 q 116 550 72 467 q 238 680 160 633 q 411 726 315 726 q 583 681 506 726 q 704 553 660 635 q 749 367 749 471 l 749 354 m 411 685 q 265 647 331 685 q 161 542 200 610 q 118 392 122 475 l 706 392 q 660 542 700 475 q 556 647 621 610 q 411 685 492 685 m 500 857 q 449 870 471 857 q 399 910 428 883 q 359 942 376 931 q 324 953 342 953 q 272 928 290 953 q 250 861 253 904 l 215 861 q 247 954 218 919 q 322 989 275 989 q 373 976 351 989 q 424 936 394 963 q 463 904 446 915 q 499 893 481 893 q 551 917 532 893 q 572 982 569 942 l 607 982 q 576 892 604 926 q 500 857 547 857 z "},"ə":{"ha":821,"x_min":72,"x_max":749,"o":"m 72 367 l 704 367 q 661 531 703 458 q 547 643 619 603 q 383 683 474 683 q 247 656 310 683 q 144 576 185 629 l 115 607 q 233 694 164 664 q 383 725 303 725 q 572 678 489 725 q 701 549 654 632 q 749 360 749 465 q 705 171 749 254 q 583 41 661 88 q 410 -6 506 -6 q 238 40 315 -6 q 117 168 161 86 q 72 354 72 250 l 72 367 m 410 36 q 556 74 490 36 q 660 178 621 111 q 703 329 699 246 l 115 329 q 160 178 121 246 q 265 74 200 111 q 410 36 329 36 z "},"ʒ":{"ha":686,"x_min":-35,"x_max":629,"o":"m 288 282 q 542 207 456 282 q 629 4 629 132 q 544 -199 629 -122 q 301 -275 458 -275 q 103 -237 194 -275 q -35 -139 11 -200 l -11 -104 q 116 -197 32 -161 q 300 -233 200 -233 q 510 -170 438 -233 q 583 4 583 -107 q 508 178 583 115 q 285 242 433 242 l 229 242 l 229 275 l 535 679 l -3 679 l -3 721 l 593 721 l 593 688 l 286 282 l 288 282 z "},"ǯ":{"ha":686,"x_min":-35,"x_max":629,"o":"m 288 282 q 542 207 456 282 q 629 4 629 132 q 544 -199 629 -122 q 301 -275 458 -275 q 103 -237 194 -275 q -35 -139 11 -200 l -11 -104 q 116 -197 32 -161 q 300 -233 200 -233 q 510 -170 438 -233 q 583 4 583 -107 q 508 178 583 115 q 285 242 433 242 l 229 242 l 229 275 l 535 679 l -3 679 l -3 721 l 593 721 l 593 688 l 286 282 l 288 282 m 500 1000 l 328 843 l 269 843 l 97 1000 l 149 1000 l 299 875 l 449 1000 l 500 1000 z "},"f":{"ha":442,"x_min":31,"x_max":494,"o":"m 354 994 q 248 956 283 994 q 213 843 213 918 l 213 721 l 450 721 l 450 681 l 213 681 l 213 0 l 167 0 l 167 681 l 31 681 l 31 721 l 167 721 l 167 849 q 215 985 167 935 q 351 1035 264 1035 q 431 1022 393 1035 q 494 986 469 1010 l 471 951 q 354 994 424 994 z "},"g":{"ha":943,"x_min":72,"x_max":789,"o":"m 789 721 l 789 69 q 704 -190 789 -106 q 449 -274 619 -274 q 263 -243 349 -274 q 125 -157 176 -212 l 151 -122 q 283 -203 207 -175 q 447 -232 358 -232 q 671 -160 599 -232 q 743 64 743 -89 l 743 217 q 619 76 703 128 q 429 25 536 25 q 247 70 328 25 q 119 195 165 115 q 72 376 72 275 q 119 558 72 478 q 247 682 165 638 q 429 726 328 726 q 620 675 536 726 q 744 533 704 624 l 744 721 l 789 721 m 431 67 q 591 106 519 67 q 703 217 663 146 q 744 376 744 288 q 703 535 744 465 q 591 644 663 606 q 431 683 519 683 q 270 644 342 683 q 158 535 199 606 q 118 376 118 465 q 158 216 118 286 q 270 106 199 146 q 431 67 342 67 z "},"ğ":{"ha":943,"x_min":72,"x_max":789,"o":"m 789 721 l 789 69 q 704 -190 789 -106 q 449 -274 619 -274 q 263 -243 349 -274 q 125 -157 176 -212 l 151 -122 q 283 -203 207 -175 q 447 -232 358 -232 q 671 -160 599 -232 q 743 64 743 -89 l 743 217 q 619 76 703 128 q 429 25 536 25 q 247 70 328 25 q 119 195 165 115 q 72 376 72 275 q 119 558 72 478 q 247 682 165 638 q 429 726 328 726 q 620 675 536 726 q 744 533 704 624 l 744 721 l 789 721 m 431 67 q 591 106 519 67 q 703 217 663 146 q 744 376 744 288 q 703 535 744 465 q 591 644 663 606 q 431 683 519 683 q 270 644 342 683 q 158 535 199 606 q 118 376 118 465 q 158 216 118 286 q 270 106 199 146 q 431 67 342 67 m 440 839 q 306 883 360 839 q 250 1000 251 926 l 288 1000 q 333 908 289 943 q 440 874 376 874 q 548 908 504 874 q 593 1000 592 943 l 631 1000 q 575 883 629 926 q 440 839 521 839 z "},"ǧ":{"ha":943,"x_min":72,"x_max":789,"o":"m 789 721 l 789 69 q 704 -190 789 -106 q 449 -274 619 -274 q 263 -243 349 -274 q 125 -157 176 -212 l 151 -122 q 283 -203 207 -175 q 447 -232 358 -232 q 671 -160 599 -232 q 743 64 743 -89 l 743 217 q 619 76 703 128 q 429 25 536 25 q 247 70 328 25 q 119 195 165 115 q 72 376 72 275 q 119 558 72 478 q 247 682 165 638 q 429 726 328 726 q 620 675 536 726 q 744 533 704 624 l 744 721 l 789 721 m 431 67 q 591 106 519 67 q 703 217 663 146 q 744 376 744 288 q 703 535 744 465 q 591 644 663 606 q 431 683 519 683 q 270 644 342 683 q 158 535 199 606 q 118 376 118 465 q 158 216 118 286 q 270 106 199 146 q 431 67 342 67 m 642 1000 l 469 843 l 411 843 l 239 1000 l 290 1000 l 440 875 l 590 1000 l 642 1000 z "},"ĝ":{"ha":943,"x_min":72,"x_max":789,"o":"m 789 721 l 789 69 q 704 -190 789 -106 q 449 -274 619 -274 q 263 -243 349 -274 q 125 -157 176 -212 l 151 -122 q 283 -203 207 -175 q 447 -232 358 -232 q 671 -160 599 -232 q 743 64 743 -89 l 743 217 q 619 76 703 128 q 429 25 536 25 q 247 70 328 25 q 119 195 165 115 q 72 376 72 275 q 119 558 72 478 q 247 682 165 638 q 429 726 328 726 q 620 675 536 726 q 744 533 704 624 l 744 721 l 789 721 m 431 67 q 591 106 519 67 q 703 217 663 146 q 744 376 744 288 q 703 535 744 465 q 591 644 663 606 q 431 683 519 683 q 270 644 342 683 q 158 535 199 606 q 118 376 118 465 q 158 216 118 286 q 270 106 199 146 q 431 67 342 67 m 590 843 l 440 968 l 290 843 l 239 843 l 411 1000 l 469 1000 l 642 843 l 590 843 z "},"ģ":{"ha":943,"x_min":72,"x_max":789,"o":"m 789 721 l 789 69 q 704 -190 789 -106 q 449 -274 619 -274 q 263 -243 349 -274 q 125 -157 176 -212 l 151 -122 q 283 -203 207 -175 q 447 -232 358 -232 q 671 -160 599 -232 q 743 64 743 -89 l 743 217 q 619 76 703 128 q 429 25 536 25 q 247 70 328 25 q 119 195 165 115 q 72 376 72 275 q 119 558 72 478 q 247 682 165 638 q 429 726 328 726 q 620 675 536 726 q 744 533 704 624 l 744 721 l 789 721 m 431 67 q 591 106 519 67 q 703 217 663 146 q 744 376 744 288 q 703 535 744 465 q 591 644 663 606 q 431 683 519 683 q 270 644 342 683 q 158 535 199 606 q 118 376 118 465 q 158 216 118 286 q 270 106 199 146 q 431 67 342 67 m 449 918 q 474 906 464 917 q 483 879 483 894 q 472 851 483 863 q 440 839 460 839 q 409 851 421 839 q 397 879 397 864 q 407 925 397 893 l 447 1061 l 481 1061 l 449 918 z "},"ġ":{"ha":943,"x_min":72,"x_max":789,"o":"m 789 721 l 789 69 q 704 -190 789 -106 q 449 -274 619 -274 q 263 -243 349 -274 q 125 -157 176 -212 l 151 -122 q 283 -203 207 -175 q 447 -232 358 -232 q 671 -160 599 -232 q 743 64 743 -89 l 743 217 q 619 76 703 128 q 429 25 536 25 q 247 70 328 25 q 119 195 165 115 q 72 376 72 275 q 119 558 72 478 q 247 682 165 638 q 429 726 328 726 q 620 675 536 726 q 744 533 704 624 l 744 721 l 789 721 m 431 67 q 591 106 519 67 q 703 217 663 146 q 744 376 744 288 q 703 535 744 465 q 591 644 663 606 q 431 683 519 683 q 270 644 342 683 q 158 535 199 606 q 118 376 118 465 q 158 216 118 286 q 270 106 199 146 q 431 67 342 67 m 440 886 q 409 899 422 886 q 396 931 396 913 q 409 962 396 949 q 440 975 422 975 q 472 962 458 975 q 485 931 485 949 q 472 899 485 913 q 440 886 458 886 z "},"ḡ":{"ha":943,"x_min":72,"x_max":789,"o":"m 789 721 l 789 69 q 704 -190 789 -106 q 449 -274 619 -274 q 263 -243 349 -274 q 125 -157 176 -212 l 151 -122 q 283 -203 207 -175 q 447 -232 358 -232 q 671 -160 599 -232 q 743 64 743 -89 l 743 217 q 619 76 703 128 q 429 25 536 25 q 247 70 328 25 q 119 195 165 115 q 72 376 72 275 q 119 558 72 478 q 247 682 165 638 q 429 726 328 726 q 620 675 536 726 q 744 533 704 624 l 744 721 l 789 721 m 431 67 q 591 106 519 67 q 703 217 663 146 q 744 376 744 288 q 703 535 744 465 q 591 644 663 606 q 431 683 519 683 q 270 644 342 683 q 158 535 199 606 q 118 376 118 465 q 158 216 118 286 q 270 106 199 146 q 431 67 342 67 m 244 940 l 636 940 l 636 903 l 244 903 l 244 940 z "},"ǥ":{"ha":947,"x_min":72,"x_max":878,"o":"m 878 -93 l 764 -93 q 652 -229 731 -185 q 449 -274 574 -274 q 263 -243 349 -274 q 125 -157 176 -212 l 151 -122 q 283 -203 207 -175 q 447 -232 358 -232 q 715 -93 656 -232 l 411 -93 l 411 -56 l 729 -56 q 743 64 743 -6 l 743 221 q 619 81 703 132 q 429 29 536 29 q 247 74 328 29 q 119 199 165 119 q 72 379 72 279 q 119 558 72 479 q 247 682 165 638 q 429 726 328 726 q 620 676 536 726 q 744 535 704 625 l 744 721 l 789 721 l 789 69 q 775 -56 789 -4 l 878 -56 l 878 -93 m 431 71 q 591 110 519 71 q 703 219 663 149 q 744 379 744 290 q 703 538 744 468 q 591 646 663 607 q 431 685 519 685 q 270 646 342 685 q 158 538 199 607 q 118 379 118 468 q 158 219 118 289 q 270 110 199 149 q 431 71 342 71 z "},"h":{"ha":931,"x_min":154,"x_max":785,"o":"m 494 726 q 707 648 629 726 q 785 424 785 569 l 785 0 l 739 0 l 739 421 q 674 616 739 549 q 490 683 610 683 q 278 603 356 683 q 200 389 200 524 l 200 0 l 154 0 l 154 1031 l 200 1031 l 200 549 q 313 679 236 632 q 494 726 389 726 z "},"ħ":{"ha":931,"x_min":0,"x_max":785,"o":"m 494 726 q 707 648 629 726 q 785 424 785 569 l 785 0 l 739 0 l 739 421 q 674 616 739 549 q 490 683 610 683 q 278 603 356 683 q 200 389 200 524 l 200 0 l 154 0 l 154 1031 l 200 1031 l 200 549 q 313 679 236 632 q 494 726 389 726 m 0 897 l 531 897 l 531 858 l 0 858 l 0 897 z "},"ḫ":{"ha":931,"x_min":154,"x_max":785,"o":"m 494 726 q 707 648 629 726 q 785 424 785 569 l 785 0 l 739 0 l 739 421 q 674 616 739 549 q 490 683 610 683 q 278 603 356 683 q 200 389 200 524 l 200 0 l 154 0 l 154 1031 l 200 1031 l 200 549 q 313 679 236 632 q 494 726 389 726 m 467 -278 q 332 -235 386 -278 q 276 -122 278 -193 l 313 -122 q 358 -210 314 -178 q 467 -243 401 -243 q 576 -210 532 -243 q 621 -122 619 -178 l 657 -122 q 601 -235 656 -193 q 467 -278 547 -278 z "},"ȟ":{"ha":931,"x_min":-25,"x_max":785,"o":"m 494 726 q 707 648 629 726 q 785 424 785 569 l 785 0 l 739 0 l 739 421 q 674 616 739 549 q 490 683 610 683 q 278 603 356 683 q 200 389 200 524 l 200 0 l 154 0 l 154 1031 l 200 1031 l 200 549 q 313 679 236 632 q 494 726 389 726 m 378 1310 l 206 1153 l 147 1153 l -25 1310 l 26 1310 l 176 1185 l 326 1310 l 378 1310 z "},"ĥ":{"ha":931,"x_min":-25,"x_max":785,"o":"m 494 726 q 707 648 629 726 q 785 424 785 569 l 785 0 l 739 0 l 739 421 q 674 616 739 549 q 490 683 610 683 q 278 603 356 683 q 200 389 200 524 l 200 0 l 154 0 l 154 1031 l 200 1031 l 200 549 q 313 679 236 632 q 494 726 389 726 m 326 1110 l 176 1235 l 26 1110 l -25 1110 l 147 1267 l 206 1267 l 378 1110 l 326 1110 z "},"ḥ":{"ha":931,"x_min":154,"x_max":785,"o":"m 494 726 q 707 648 629 726 q 785 424 785 569 l 785 0 l 739 0 l 739 421 q 674 616 739 549 q 490 683 610 683 q 278 603 356 683 q 200 389 200 524 l 200 0 l 154 0 l 154 1031 l 200 1031 l 200 549 q 313 679 236 632 q 494 726 389 726 m 467 -249 q 438 -237 450 -249 q 425 -207 425 -225 q 438 -178 425 -190 q 467 -165 450 -165 q 496 -178 483 -165 q 508 -207 508 -190 q 496 -237 508 -225 q 467 -249 483 -249 z "},"i":{"ha":354,"x_min":131,"x_max":222,"o":"m 154 721 l 200 721 l 200 0 l 154 0 l 154 721 m 176 910 q 144 923 158 910 q 131 954 131 936 q 144 987 131 974 q 176 1000 157 1000 q 208 987 194 1000 q 222 956 222 974 q 208 924 222 938 q 176 910 194 910 z "},"ı":{"ha":354,"x_min":154,"x_max":200,"o":"m 154 721 l 200 721 l 200 0 l 154 0 l 154 721 z "},"í":{"ha":354,"x_min":107,"x_max":375,"o":"m 154 721 l 200 721 l 200 0 l 154 0 l 154 721 m 300 1000 l 375 1000 l 163 843 l 107 843 l 300 1000 z "},"ĭ":{"ha":354,"x_min":21,"x_max":332,"o":"m 154 721 l 200 721 l 200 0 l 154 0 l 154 721 m 176 839 q 64 883 107 839 q 21 1000 21 926 l 57 1000 q 90 908 57 942 q 176 874 122 874 q 263 908 231 874 q 296 1000 296 942 l 332 1000 q 289 883 332 926 q 176 839 246 839 z "},"î":{"ha":354,"x_min":10,"x_max":343,"o":"m 154 721 l 200 721 l 200 0 l 154 0 l 154 721 m 293 843 l 176 967 l 60 843 l 10 843 l 149 1000 l 204 1000 l 343 843 l 293 843 z "},"ȉ":{"ha":354,"x_min":-111,"x_max":303,"o":"m 154 721 l 200 721 l 200 0 l 154 0 l 154 721 m -111 1000 l -49 1000 l 101 843 l 50 843 l -111 1000 m 90 1000 l 153 1000 l 303 843 l 251 843 l 90 1000 z "},"ï":{"ha":354,"x_min":54,"x_max":299,"o":"m 154 721 l 200 721 l 200 0 l 154 0 l 154 721 m 94 886 q 66 899 78 886 q 54 928 54 911 q 66 958 54 946 q 94 971 78 971 q 124 958 113 971 q 136 928 136 946 q 124 899 136 911 q 94 886 113 886 m 258 886 q 228 899 240 886 q 217 928 217 911 q 228 958 217 946 q 258 971 240 971 q 287 958 275 971 q 299 928 299 946 q 287 899 299 911 q 258 886 275 886 z "},"ḯ":{"ha":354,"x_min":19,"x_max":354,"o":"m 154 721 l 200 721 l 200 0 l 154 0 l 154 721 m 61 886 q 31 899 43 886 q 19 928 19 911 q 31 958 19 946 q 61 969 43 969 q 90 958 78 969 q 103 928 103 946 q 90 899 103 911 q 61 886 78 886 m 293 886 q 263 899 275 886 q 251 928 251 911 q 263 958 251 946 q 293 969 275 969 q 322 958 310 969 q 335 928 335 946 q 322 899 335 911 q 293 886 310 886 m 282 1149 l 354 1149 l 161 1007 l 108 1007 l 282 1149 z "},"ị":{"ha":354,"x_min":131,"x_max":222,"o":"m 154 721 l 200 721 l 200 0 l 154 0 l 154 721 m 176 910 q 144 923 158 910 q 131 954 131 936 q 144 987 131 974 q 176 1000 157 1000 q 208 987 194 1000 q 222 956 222 974 q 208 924 222 938 q 176 910 194 910 m 176 -249 q 147 -237 160 -249 q 135 -207 135 -225 q 147 -178 135 -190 q 176 -165 160 -165 q 206 -178 193 -165 q 218 -207 218 -190 q 206 -237 218 -225 q 176 -249 193 -249 z "},"ì":{"ha":354,"x_min":-22,"x_max":246,"o":"m 154 721 l 200 721 l 200 0 l 154 0 l 154 721 m -22 1000 l 53 1000 l 246 843 l 190 843 l -22 1000 z "},"ỉ":{"ha":354,"x_min":71,"x_max":286,"o":"m 154 721 l 200 721 l 200 0 l 154 0 l 154 721 m 164 864 q 250 968 250 901 q 228 1021 250 1000 q 171 1042 206 1042 q 85 1015 125 1042 l 71 1046 q 118 1068 90 1060 q 172 1076 146 1076 q 256 1048 225 1076 q 286 972 286 1019 q 261 895 286 928 q 183 836 236 863 l 164 864 z "},"ȋ":{"ha":354,"x_min":21,"x_max":332,"o":"m 154 721 l 200 721 l 200 0 l 154 0 l 154 721 m 21 843 q 65 961 21 917 q 176 1006 108 1006 q 288 961 244 1006 q 332 843 332 917 l 296 843 q 263 936 296 901 q 176 971 231 971 q 90 936 122 971 q 57 843 57 901 l 21 843 z "},"ĳ":{"ha":715,"x_min":131,"x_max":583,"o":"m 154 721 l 200 721 l 200 0 l 154 0 l 154 721 m 176 910 q 144 923 158 910 q 131 954 131 936 q 144 987 131 974 q 176 1000 157 1000 q 208 987 194 1000 q 222 956 222 974 q 208 924 222 938 q 176 910 194 910 m 381 -274 q 297 -261 336 -274 q 233 -224 258 -249 l 257 -190 q 378 -233 303 -233 q 480 -194 444 -233 q 515 -81 515 -154 l 515 721 l 561 721 l 561 -86 q 514 -223 561 -172 q 381 -274 467 -274 m 538 910 q 506 923 519 910 q 492 954 492 936 q 505 987 492 974 q 538 1000 518 1000 q 569 987 556 1000 q 583 956 583 974 q 569 924 583 938 q 538 910 556 910 z "},"ī":{"ha":354,"x_min":17,"x_max":336,"o":"m 154 721 l 200 721 l 200 0 l 154 0 l 154 721 m 17 940 l 336 940 l 336 903 l 17 903 l 17 940 z "},"į":{"ha":354,"x_min":83,"x_max":258,"o":"m 154 721 l 200 721 l 200 0 l 154 0 l 154 721 m 176 910 q 144 923 158 910 q 131 954 131 936 q 144 987 131 974 q 176 1000 157 1000 q 208 987 194 1000 q 222 956 222 974 q 208 924 222 938 q 176 910 194 910 m 185 -299 q 111 -267 139 -299 q 83 -186 83 -236 q 182 26 83 -71 l 200 0 q 137 -95 151 -53 q 122 -182 122 -137 q 141 -242 122 -221 q 188 -264 160 -264 q 242 -239 219 -264 l 258 -267 q 185 -299 229 -299 z "},"ĩ":{"ha":354,"x_min":15,"x_max":338,"o":"m 154 721 l 200 721 l 200 0 l 154 0 l 154 721 m 250 857 q 205 870 222 857 q 161 911 188 883 q 131 942 144 932 q 103 953 118 953 q 64 928 79 953 q 49 861 49 903 l 15 861 q 38 955 15 921 q 103 989 61 989 q 148 976 131 989 q 192 935 165 963 q 222 903 208 914 q 250 893 235 893 q 289 918 274 893 q 304 982 304 943 l 338 982 q 315 891 338 925 q 250 857 292 857 z "},"j":{"ha":361,"x_min":-121,"x_max":229,"o":"m 26 -274 q -57 -261 -18 -274 q -121 -224 -96 -249 l -97 -190 q 24 -233 -51 -233 q 126 -194 90 -233 q 161 -81 161 -154 l 161 721 l 207 721 l 207 -86 q 160 -223 207 -172 q 26 -274 113 -274 m 183 910 q 151 923 165 910 q 138 954 138 936 q 151 987 138 974 q 183 1000 164 1000 q 215 987 201 1000 q 229 956 229 974 q 215 924 229 938 q 183 910 201 910 z "},"ȷ":{"ha":361,"x_min":-121,"x_max":207,"o":"m 26 -274 q -57 -261 -18 -274 q -121 -224 -96 -249 l -97 -190 q 24 -233 -51 -233 q 126 -194 90 -233 q 161 -81 161 -154 l 161 721 l 207 721 l 207 -86 q 160 -223 207 -172 q 26 -274 113 -274 z "},"ĵ":{"ha":361,"x_min":-121,"x_max":350,"o":"m 26 -274 q -57 -261 -18 -274 q -121 -224 -96 -249 l -97 -190 q 24 -233 -51 -233 q 126 -194 90 -233 q 161 -81 161 -154 l 161 721 l 207 721 l 207 -86 q 160 -223 207 -172 q 26 -274 113 -274 m 300 843 l 183 967 l 67 843 l 17 843 l 156 1000 l 211 1000 l 350 843 l 300 843 z "},"k":{"ha":803,"x_min":154,"x_max":782,"o":"m 401 404 l 200 219 l 200 0 l 154 0 l 154 1031 l 200 1031 l 200 275 l 689 721 l 750 721 l 438 432 l 782 0 l 724 0 l 401 404 z "},"ǩ":{"ha":803,"x_min":-25,"x_max":782,"o":"m 401 404 l 200 219 l 200 0 l 154 0 l 154 1031 l 200 1031 l 200 275 l 689 721 l 750 721 l 438 432 l 782 0 l 724 0 l 401 404 m 378 1310 l 206 1153 l 147 1153 l -25 1310 l 26 1310 l 176 1185 l 326 1310 l 378 1310 z "},"ķ":{"ha":803,"x_min":154,"x_max":782,"o":"m 401 404 l 200 219 l 200 0 l 154 0 l 154 1031 l 200 1031 l 200 275 l 689 721 l 750 721 l 438 432 l 782 0 l 724 0 l 401 404 m 428 -165 q 458 -178 447 -165 q 469 -206 469 -190 q 460 -256 469 -224 l 426 -361 l 393 -361 l 419 -246 q 396 -233 406 -244 q 386 -206 386 -221 q 398 -177 386 -189 q 428 -165 410 -165 z "},"ĸ":{"ha":785,"x_min":154,"x_max":782,"o":"m 401 404 l 200 219 l 200 0 l 154 0 l 154 721 l 200 721 l 200 275 l 689 721 l 750 721 l 438 432 l 782 0 l 724 0 l 401 404 z "},"l":{"ha":354,"x_min":154,"x_max":200,"o":"m 154 1031 l 200 1031 l 200 0 l 154 0 l 154 1031 z "},"ĺ":{"ha":354,"x_min":107,"x_max":375,"o":"m 154 1031 l 200 1031 l 200 0 l 154 0 l 154 1031 m 300 1310 l 375 1310 l 163 1153 l 107 1153 l 300 1310 z "},"ľ":{"ha":354,"x_min":154,"x_max":378,"o":"m 154 1031 l 200 1031 l 200 0 l 154 0 l 154 1031 m 336 1061 l 378 1061 l 372 808 l 336 808 l 336 1061 z "},"ļ":{"ha":354,"x_min":135,"x_max":218,"o":"m 154 1031 l 200 1031 l 200 0 l 154 0 l 154 1031 m 176 -165 q 207 -178 196 -165 q 218 -206 218 -190 q 208 -256 218 -224 l 175 -361 l 142 -361 l 168 -246 q 144 -233 154 -244 q 135 -206 135 -221 q 147 -177 135 -189 q 176 -165 158 -165 z "},"ŀ":{"ha":369,"x_min":154,"x_max":404,"o":"m 154 1031 l 200 1031 l 200 0 l 154 0 l 154 1031 m 361 443 q 331 456 343 443 q 318 486 318 468 q 331 517 318 504 q 361 529 343 529 q 392 517 379 529 q 404 486 404 504 q 392 456 404 468 q 361 443 379 443 z "},"ḷ":{"ha":354,"x_min":135,"x_max":218,"o":"m 154 1031 l 200 1031 l 200 0 l 154 0 l 154 1031 m 176 -249 q 147 -237 160 -249 q 135 -207 135 -225 q 147 -178 135 -190 q 176 -165 160 -165 q 206 -178 193 -165 q 218 -207 218 -190 q 206 -237 218 -225 q 176 -249 193 -249 z "},"ǉ":{"ha":715,"x_min":154,"x_max":583,"o":"m 154 1031 l 200 1031 l 200 0 l 154 0 l 154 1031 m 381 -274 q 297 -261 336 -274 q 233 -224 258 -249 l 257 -190 q 378 -233 303 -233 q 480 -194 444 -233 q 515 -81 515 -154 l 515 721 l 561 721 l 561 -86 q 514 -223 561 -172 q 381 -274 467 -274 m 538 910 q 506 923 519 910 q 492 954 492 936 q 505 987 492 974 q 538 1000 518 1000 q 569 987 556 1000 q 583 956 583 974 q 569 924 583 938 q 538 910 556 910 z "},"ḻ":{"ha":354,"x_min":-19,"x_max":372,"o":"m 154 1031 l 200 1031 l 200 0 l 154 0 l 154 1031 m -19 -187 l 372 -187 l 372 -225 l -19 -225 l -19 -187 z "},"ł":{"ha":357,"x_min":24,"x_max":332,"o":"m 156 1031 l 201 1031 l 201 0 l 156 0 l 156 1031 m 24 396 l 310 607 l 332 578 l 47 367 l 24 396 z "},"m":{"ha":1481,"x_min":154,"x_max":1335,"o":"m 1051 726 q 1259 649 1183 726 q 1335 424 1335 571 l 1335 0 l 1289 0 l 1289 421 q 1226 616 1289 549 q 1049 683 1164 683 q 843 603 919 683 q 767 389 767 522 l 767 0 l 721 0 l 721 421 q 658 616 721 549 q 482 683 596 683 q 276 603 351 683 q 200 389 200 524 l 200 0 l 154 0 l 154 721 l 199 721 l 199 547 q 306 678 232 631 q 485 726 381 726 q 660 676 589 726 q 754 531 731 626 q 864 674 786 621 q 1051 726 942 726 z "},"ṃ":{"ha":1481,"x_min":154,"x_max":1335,"o":"m 1051 726 q 1259 649 1183 726 q 1335 424 1335 571 l 1335 0 l 1289 0 l 1289 421 q 1226 616 1289 549 q 1049 683 1164 683 q 843 603 919 683 q 767 389 767 522 l 767 0 l 721 0 l 721 421 q 658 616 721 549 q 482 683 596 683 q 276 603 351 683 q 200 389 200 524 l 200 0 l 154 0 l 154 721 l 199 721 l 199 547 q 306 678 232 631 q 485 726 381 726 q 660 676 589 726 q 754 531 731 626 q 864 674 786 621 q 1051 726 942 726 m 744 -249 q 715 -237 728 -249 q 703 -207 703 -225 q 715 -178 703 -190 q 744 -165 728 -165 q 774 -178 761 -165 q 786 -207 786 -190 q 774 -237 786 -225 q 744 -249 761 -249 z "},"n":{"ha":931,"x_min":154,"x_max":785,"o":"m 494 726 q 707 648 629 726 q 785 424 785 569 l 785 0 l 739 0 l 739 421 q 674 616 739 549 q 490 683 610 683 q 278 603 356 683 q 200 389 200 524 l 200 0 l 154 0 l 154 721 l 199 721 l 199 544 q 310 678 233 629 q 494 726 388 726 z "},"ń":{"ha":931,"x_min":154,"x_max":785,"o":"m 494 726 q 707 648 629 726 q 785 424 785 569 l 785 0 l 739 0 l 739 421 q 674 616 739 549 q 490 683 610 683 q 278 603 356 683 q 200 389 200 524 l 200 0 l 154 0 l 154 721 l 199 721 l 199 544 q 310 678 233 629 q 494 726 388 726 m 590 1000 l 665 1000 l 453 843 l 397 843 l 590 1000 z "},"ŉ":{"ha":997,"x_min":90,"x_max":851,"o":"m 96 972 l 135 972 l 124 613 l 90 613 l 96 972 m 561 726 q 774 648 696 726 q 851 424 851 569 l 851 0 l 806 0 l 806 421 q 741 616 806 549 q 557 683 676 683 q 344 603 422 683 q 267 389 267 524 l 267 0 l 221 0 l 221 721 l 265 721 l 265 544 q 377 678 300 629 q 561 726 454 726 z "},"ň":{"ha":931,"x_min":154,"x_max":785,"o":"m 494 726 q 707 648 629 726 q 785 424 785 569 l 785 0 l 739 0 l 739 421 q 674 616 739 549 q 490 683 610 683 q 278 603 356 683 q 200 389 200 524 l 200 0 l 154 0 l 154 721 l 199 721 l 199 544 q 310 678 233 629 q 494 726 388 726 m 668 1000 l 496 843 l 438 843 l 265 1000 l 317 1000 l 467 875 l 617 1000 l 668 1000 z "},"ņ":{"ha":931,"x_min":154,"x_max":785,"o":"m 494 726 q 707 648 629 726 q 785 424 785 569 l 785 0 l 739 0 l 739 421 q 674 616 739 549 q 490 683 610 683 q 278 603 356 683 q 200 389 200 524 l 200 0 l 154 0 l 154 721 l 199 721 l 199 544 q 310 678 233 629 q 494 726 388 726 m 467 -165 q 497 -178 486 -165 q 508 -206 508 -190 q 499 -256 508 -224 l 465 -361 l 432 -361 l 458 -246 q 435 -233 444 -244 q 425 -206 425 -221 q 437 -177 425 -189 q 467 -165 449 -165 z "},"ṅ":{"ha":931,"x_min":154,"x_max":785,"o":"m 494 726 q 707 648 629 726 q 785 424 785 569 l 785 0 l 739 0 l 739 421 q 674 616 739 549 q 490 683 610 683 q 278 603 356 683 q 200 389 200 524 l 200 0 l 154 0 l 154 721 l 199 721 l 199 544 q 310 678 233 629 q 494 726 388 726 m 467 886 q 435 899 449 886 q 422 931 422 913 q 435 962 422 949 q 467 975 449 975 q 498 962 485 975 q 511 931 511 949 q 498 899 511 913 q 467 886 485 886 z "},"ṇ":{"ha":931,"x_min":154,"x_max":785,"o":"m 494 726 q 707 648 629 726 q 785 424 785 569 l 785 0 l 739 0 l 739 421 q 674 616 739 549 q 490 683 610 683 q 278 603 356 683 q 200 389 200 524 l 200 0 l 154 0 l 154 721 l 199 721 l 199 544 q 310 678 233 629 q 494 726 388 726 m 467 -249 q 438 -237 450 -249 q 425 -207 425 -225 q 438 -178 425 -190 q 467 -165 450 -165 q 496 -178 483 -165 q 508 -207 508 -190 q 496 -237 508 -225 q 467 -249 483 -249 z "},"ŋ":{"ha":931,"x_min":154,"x_max":785,"o":"m 494 726 q 707 648 629 726 q 785 424 785 569 l 785 -86 q 738 -223 785 -172 q 604 -274 690 -274 q 521 -261 560 -274 q 457 -224 482 -249 l 481 -190 q 601 -233 528 -233 q 703 -194 668 -233 q 739 -81 739 -154 l 739 421 q 674 616 739 549 q 490 683 610 683 q 278 603 356 683 q 200 389 200 524 l 200 0 l 154 0 l 154 721 l 199 721 l 199 544 q 310 678 233 629 q 494 726 388 726 z "},"ǌ":{"ha":1292,"x_min":154,"x_max":1160,"o":"m 494 726 q 707 648 629 726 q 785 424 785 569 l 785 0 l 739 0 l 739 421 q 674 616 739 549 q 490 683 610 683 q 278 603 356 683 q 200 389 200 524 l 200 0 l 154 0 l 154 721 l 199 721 l 199 544 q 310 678 233 629 q 494 726 388 726 m 957 -274 q 874 -261 913 -274 q 810 -224 835 -249 l 833 -190 q 954 -233 879 -233 q 1056 -194 1021 -233 q 1092 -81 1092 -154 l 1092 721 l 1138 721 l 1138 -86 q 1090 -223 1138 -172 q 957 -274 1043 -274 m 1114 910 q 1082 923 1096 910 q 1068 954 1068 936 q 1081 987 1068 974 q 1114 1000 1094 1000 q 1146 987 1132 1000 q 1160 956 1160 974 q 1146 924 1160 938 q 1114 910 1132 910 z "},"ṉ":{"ha":931,"x_min":154,"x_max":785,"o":"m 494 726 q 707 648 629 726 q 785 424 785 569 l 785 0 l 739 0 l 739 421 q 674 616 739 549 q 490 683 610 683 q 278 603 356 683 q 200 389 200 524 l 200 0 l 154 0 l 154 721 l 199 721 l 199 544 q 310 678 233 629 q 494 726 388 726 m 271 -187 l 663 -187 l 663 -225 l 271 -225 l 271 -187 z "},"ñ":{"ha":931,"x_min":154,"x_max":785,"o":"m 494 726 q 707 648 629 726 q 785 424 785 569 l 785 0 l 739 0 l 739 421 q 674 616 739 549 q 490 683 610 683 q 278 603 356 683 q 200 389 200 524 l 200 0 l 154 0 l 154 721 l 199 721 l 199 544 q 310 678 233 629 q 494 726 388 726 m 556 857 q 505 870 526 857 q 454 910 483 883 q 415 942 432 931 q 379 953 397 953 q 327 928 346 953 q 306 861 308 904 l 271 861 q 302 954 274 919 q 378 989 331 989 q 428 976 407 989 q 479 936 450 963 q 519 904 501 915 q 554 893 536 893 q 606 917 588 893 q 628 982 625 942 l 663 982 q 631 892 660 926 q 556 857 603 857 z "},"o":{"ha":853,"x_min":72,"x_max":781,"o":"m 426 -4 q 245 42 326 -4 q 118 172 164 89 q 72 361 72 256 q 118 550 72 467 q 245 680 164 633 q 426 726 326 726 q 608 680 528 726 q 735 550 689 633 q 781 361 781 467 q 735 172 781 256 q 608 42 689 89 q 426 -4 528 -4 m 426 38 q 584 78 514 38 q 694 193 654 119 q 735 361 735 267 q 694 528 735 456 q 584 642 654 601 q 426 683 514 683 q 269 642 339 683 q 158 528 199 601 q 118 361 118 456 q 158 193 118 267 q 269 78 199 119 q 426 38 339 38 z "},"ó":{"ha":853,"x_min":72,"x_max":781,"o":"m 426 -4 q 245 42 326 -4 q 118 172 164 89 q 72 361 72 256 q 118 550 72 467 q 245 680 164 633 q 426 726 326 726 q 608 680 528 726 q 735 550 689 633 q 781 361 781 467 q 735 172 781 256 q 608 42 689 89 q 426 -4 528 -4 m 426 38 q 584 78 514 38 q 694 193 654 119 q 735 361 735 267 q 694 528 735 456 q 584 642 654 601 q 426 683 514 683 q 269 642 339 683 q 158 528 199 601 q 118 361 118 456 q 158 193 118 267 q 269 78 199 119 q 426 38 339 38 m 550 1000 l 625 1000 l 413 843 l 357 843 l 550 1000 z "},"ŏ":{"ha":853,"x_min":72,"x_max":781,"o":"m 426 -4 q 245 42 326 -4 q 118 172 164 89 q 72 361 72 256 q 118 550 72 467 q 245 680 164 633 q 426 726 326 726 q 608 680 528 726 q 735 550 689 633 q 781 361 781 467 q 735 172 781 256 q 608 42 689 89 q 426 -4 528 -4 m 426 38 q 584 78 514 38 q 694 193 654 119 q 735 361 735 267 q 694 528 735 456 q 584 642 654 601 q 426 683 514 683 q 269 642 339 683 q 158 528 199 601 q 118 361 118 456 q 158 193 118 267 q 269 78 199 119 q 426 38 339 38 m 426 839 q 292 883 346 839 q 236 1000 238 926 l 274 1000 q 319 908 275 943 q 426 874 363 874 q 534 908 490 874 q 579 1000 578 943 l 617 1000 q 561 883 615 926 q 426 839 507 839 z "},"ô":{"ha":853,"x_min":72,"x_max":781,"o":"m 426 -4 q 245 42 326 -4 q 118 172 164 89 q 72 361 72 256 q 118 550 72 467 q 245 680 164 633 q 426 726 326 726 q 608 680 528 726 q 735 550 689 633 q 781 361 781 467 q 735 172 781 256 q 608 42 689 89 q 426 -4 528 -4 m 426 38 q 584 78 514 38 q 694 193 654 119 q 735 361 735 267 q 694 528 735 456 q 584 642 654 601 q 426 683 514 683 q 269 642 339 683 q 158 528 199 601 q 118 361 118 456 q 158 193 118 267 q 269 78 199 119 q 426 38 339 38 m 576 843 l 426 968 l 276 843 l 225 843 l 397 1000 l 456 1000 l 628 843 l 576 843 z "},"ố":{"ha":853,"x_min":72,"x_max":782,"o":"m 426 -4 q 245 42 326 -4 q 118 172 164 89 q 72 361 72 256 q 118 550 72 467 q 245 680 164 633 q 426 726 326 726 q 608 680 528 726 q 735 550 689 633 q 781 361 781 467 q 735 172 781 256 q 608 42 689 89 q 426 -4 528 -4 m 426 38 q 584 78 514 38 q 694 193 654 119 q 735 361 735 267 q 694 528 735 456 q 584 642 654 601 q 426 683 514 683 q 269 642 339 683 q 158 528 199 601 q 118 361 118 456 q 158 193 118 267 q 269 78 199 119 q 426 38 339 38 m 572 843 l 426 929 l 281 843 l 225 843 l 399 958 l 454 958 l 628 843 l 572 843 m 710 1092 l 782 1092 l 589 950 l 536 950 l 710 1092 z "},"ộ":{"ha":853,"x_min":72,"x_max":781,"o":"m 426 -4 q 245 42 326 -4 q 118 172 164 89 q 72 361 72 256 q 118 550 72 467 q 245 680 164 633 q 426 726 326 726 q 608 680 528 726 q 735 550 689 633 q 781 361 781 467 q 735 172 781 256 q 608 42 689 89 q 426 -4 528 -4 m 426 38 q 584 78 514 38 q 694 193 654 119 q 735 361 735 267 q 694 528 735 456 q 584 642 654 601 q 426 683 514 683 q 269 642 339 683 q 158 528 199 601 q 118 361 118 456 q 158 193 118 267 q 269 78 199 119 q 426 38 339 38 m 426 -249 q 397 -237 410 -249 q 385 -207 385 -225 q 397 -178 385 -190 q 426 -165 410 -165 q 456 -178 443 -165 q 468 -207 468 -190 q 456 -237 468 -225 q 426 -249 443 -249 m 576 843 l 426 968 l 276 843 l 225 843 l 397 1000 l 456 1000 l 628 843 l 576 843 z "},"ồ":{"ha":853,"x_min":72,"x_max":781,"o":"m 426 -4 q 245 42 326 -4 q 118 172 164 89 q 72 361 72 256 q 118 550 72 467 q 245 680 164 633 q 426 726 326 726 q 608 680 528 726 q 735 550 689 633 q 781 361 781 467 q 735 172 781 256 q 608 42 689 89 q 426 -4 528 -4 m 426 38 q 584 78 514 38 q 694 193 654 119 q 735 361 735 267 q 694 528 735 456 q 584 642 654 601 q 426 683 514 683 q 269 642 339 683 q 158 528 199 601 q 118 361 118 456 q 158 193 118 267 q 269 78 199 119 q 426 38 339 38 m 572 843 l 426 929 l 281 843 l 225 843 l 399 958 l 454 958 l 628 843 l 572 843 m 426 1092 l 499 1092 l 672 950 l 619 950 l 426 1092 z "},"ổ":{"ha":853,"x_min":72,"x_max":781,"o":"m 426 -4 q 245 42 326 -4 q 118 172 164 89 q 72 361 72 256 q 118 550 72 467 q 245 680 164 633 q 426 726 326 726 q 608 680 528 726 q 735 550 689 633 q 781 361 781 467 q 735 172 781 256 q 608 42 689 89 q 426 -4 528 -4 m 426 38 q 584 78 514 38 q 694 193 654 119 q 735 361 735 267 q 694 528 735 456 q 584 642 654 601 q 426 683 514 683 q 269 642 339 683 q 158 528 199 601 q 118 361 118 456 q 158 193 118 267 q 269 78 199 119 q 426 38 339 38 m 572 843 l 426 929 l 281 843 l 225 843 l 399 958 l 454 958 l 628 843 l 572 843 m 561 954 q 607 988 590 968 q 624 1029 624 1007 q 608 1065 624 1051 q 565 1079 592 1079 q 506 1061 533 1079 l 493 1088 q 569 1111 524 1111 q 633 1089 610 1111 q 657 1031 657 1067 q 637 972 657 999 q 579 929 617 946 l 561 954 z "},"ỗ":{"ha":853,"x_min":72,"x_max":781,"o":"m 426 -4 q 245 42 326 -4 q 118 172 164 89 q 72 361 72 256 q 118 550 72 467 q 245 680 164 633 q 426 726 326 726 q 608 680 528 726 q 735 550 689 633 q 781 361 781 467 q 735 172 781 256 q 608 42 689 89 q 426 -4 528 -4 m 426 38 q 584 78 514 38 q 694 193 654 119 q 735 361 735 267 q 694 528 735 456 q 584 642 654 601 q 426 683 514 683 q 269 642 339 683 q 158 528 199 601 q 118 361 118 456 q 158 193 118 267 q 269 78 199 119 q 426 38 339 38 m 572 843 l 426 929 l 281 843 l 225 843 l 399 958 l 454 958 l 628 843 l 572 843 m 514 1006 q 464 1017 486 1006 q 415 1047 442 1028 q 373 1073 388 1065 q 340 1081 358 1081 q 289 1062 308 1081 q 268 1010 269 1043 l 233 1010 q 264 1087 235 1058 q 340 1115 293 1115 q 388 1105 367 1115 q 438 1074 410 1094 q 480 1048 465 1056 q 513 1040 494 1040 q 565 1058 544 1040 q 586 1110 585 1076 l 619 1110 q 590 1034 618 1063 q 514 1006 561 1006 z "},"ȍ":{"ha":853,"x_min":72,"x_max":781,"o":"m 426 -4 q 245 42 326 -4 q 118 172 164 89 q 72 361 72 256 q 118 550 72 467 q 245 680 164 633 q 426 726 326 726 q 608 680 528 726 q 735 550 689 633 q 781 361 781 467 q 735 172 781 256 q 608 42 689 89 q 426 -4 528 -4 m 426 38 q 584 78 514 38 q 694 193 654 119 q 735 361 735 267 q 694 528 735 456 q 584 642 654 601 q 426 683 514 683 q 269 642 339 683 q 158 528 199 601 q 118 361 118 456 q 158 193 118 267 q 269 78 199 119 q 426 38 339 38 m 139 1000 l 201 1000 l 351 843 l 300 843 l 139 1000 m 340 1000 l 403 1000 l 553 843 l 501 843 l 340 1000 z "},"ö":{"ha":853,"x_min":72,"x_max":781,"o":"m 426 -4 q 245 42 326 -4 q 118 172 164 89 q 72 361 72 256 q 118 550 72 467 q 245 680 164 633 q 426 726 326 726 q 608 680 528 726 q 735 550 689 633 q 781 361 781 467 q 735 172 781 256 q 608 42 689 89 q 426 -4 528 -4 m 426 38 q 584 78 514 38 q 694 193 654 119 q 735 361 735 267 q 694 528 735 456 q 584 642 654 601 q 426 683 514 683 q 269 642 339 683 q 158 528 199 601 q 118 361 118 456 q 158 193 118 267 q 269 78 199 119 q 426 38 339 38 m 310 886 q 281 899 293 886 q 268 928 268 911 q 281 958 268 946 q 310 971 293 971 q 340 958 328 971 q 351 928 351 946 q 340 899 351 911 q 310 886 328 886 m 543 886 q 513 899 525 886 q 501 928 501 911 q 513 958 501 946 q 543 971 525 971 q 572 958 560 971 q 585 928 585 946 q 572 899 585 911 q 543 886 560 886 z "},"ȫ":{"ha":853,"x_min":72,"x_max":781,"o":"m 426 -4 q 245 42 326 -4 q 118 172 164 89 q 72 361 72 256 q 118 550 72 467 q 245 680 164 633 q 426 726 326 726 q 608 680 528 726 q 735 550 689 633 q 781 361 781 467 q 735 172 781 256 q 608 42 689 89 q 426 -4 528 -4 m 426 38 q 584 78 514 38 q 694 193 654 119 q 735 361 735 267 q 694 528 735 456 q 584 642 654 601 q 426 683 514 683 q 269 642 339 683 q 158 528 199 601 q 118 361 118 456 q 158 193 118 267 q 269 78 199 119 q 426 38 339 38 m 311 886 q 281 899 293 886 q 269 928 269 911 q 281 958 269 946 q 311 969 293 969 q 340 958 328 969 q 353 928 353 946 q 340 899 353 911 q 311 886 328 886 m 543 886 q 513 899 525 886 q 501 928 501 911 q 513 958 501 946 q 543 969 525 969 q 572 958 560 969 q 585 928 585 946 q 572 899 585 911 q 543 886 560 886 m 231 1083 l 622 1083 l 622 1047 l 231 1047 l 231 1083 z "},"ȱ":{"ha":853,"x_min":72,"x_max":781,"o":"m 426 -4 q 245 42 326 -4 q 118 172 164 89 q 72 361 72 256 q 118 550 72 467 q 245 680 164 633 q 426 726 326 726 q 608 680 528 726 q 735 550 689 633 q 781 361 781 467 q 735 172 781 256 q 608 42 689 89 q 426 -4 528 -4 m 426 38 q 584 78 514 38 q 694 193 654 119 q 735 361 735 267 q 694 528 735 456 q 584 642 654 601 q 426 683 514 683 q 269 642 339 683 q 158 528 199 601 q 118 361 118 456 q 158 193 118 267 q 269 78 199 119 q 426 38 339 38 m 426 886 q 397 899 410 886 q 385 928 385 911 q 397 958 385 946 q 426 971 410 971 q 456 958 443 971 q 468 928 468 946 q 456 899 468 911 q 426 886 443 886 m 231 1083 l 622 1083 l 622 1047 l 231 1047 l 231 1083 z "},"ọ":{"ha":853,"x_min":72,"x_max":781,"o":"m 426 -4 q 245 42 326 -4 q 118 172 164 89 q 72 361 72 256 q 118 550 72 467 q 245 680 164 633 q 426 726 326 726 q 608 680 528 726 q 735 550 689 633 q 781 361 781 467 q 735 172 781 256 q 608 42 689 89 q 426 -4 528 -4 m 426 38 q 584 78 514 38 q 694 193 654 119 q 735 361 735 267 q 694 528 735 456 q 584 642 654 601 q 426 683 514 683 q 269 642 339 683 q 158 528 199 601 q 118 361 118 456 q 158 193 118 267 q 269 78 199 119 q 426 38 339 38 m 426 -249 q 397 -237 410 -249 q 385 -207 385 -225 q 397 -178 385 -190 q 426 -165 410 -165 q 456 -178 443 -165 q 468 -207 468 -190 q 456 -237 468 -225 q 426 -249 443 -249 z "},"ò":{"ha":853,"x_min":72,"x_max":781,"o":"m 426 -4 q 245 42 326 -4 q 118 172 164 89 q 72 361 72 256 q 118 550 72 467 q 245 680 164 633 q 426 726 326 726 q 608 680 528 726 q 735 550 689 633 q 781 361 781 467 q 735 172 781 256 q 608 42 689 89 q 426 -4 528 -4 m 426 38 q 584 78 514 38 q 694 193 654 119 q 735 361 735 267 q 694 528 735 456 q 584 642 654 601 q 426 683 514 683 q 269 642 339 683 q 158 528 199 601 q 118 361 118 456 q 158 193 118 267 q 269 78 199 119 q 426 38 339 38 m 228 1000 l 303 1000 l 496 843 l 440 843 l 228 1000 z "},"ỏ":{"ha":853,"x_min":72,"x_max":781,"o":"m 426 -4 q 245 42 326 -4 q 118 172 164 89 q 72 361 72 256 q 118 550 72 467 q 245 680 164 633 q 426 726 326 726 q 608 680 528 726 q 735 550 689 633 q 781 361 781 467 q 735 172 781 256 q 608 42 689 89 q 426 -4 528 -4 m 426 38 q 584 78 514 38 q 694 193 654 119 q 735 361 735 267 q 694 528 735 456 q 584 642 654 601 q 426 683 514 683 q 269 642 339 683 q 158 528 199 601 q 118 361 118 456 q 158 193 118 267 q 269 78 199 119 q 426 38 339 38 m 414 864 q 500 968 500 901 q 478 1021 500 1000 q 421 1042 456 1042 q 335 1015 375 1042 l 321 1046 q 368 1068 340 1060 q 422 1076 396 1076 q 506 1048 475 1076 q 536 972 536 1019 q 511 895 536 928 q 433 836 486 863 l 414 864 z "},"ơ":{"ha":853,"x_min":72,"x_max":781,"o":"m 603 682 q 733 552 686 636 q 781 361 781 468 q 735 172 781 256 q 608 42 689 89 q 426 -4 528 -4 q 245 42 326 -4 q 118 172 164 89 q 72 361 72 256 q 118 550 72 467 q 245 680 164 633 q 426 726 326 726 q 481 724 454 726 q 518 722 507 722 q 606 718 556 718 q 697 747 665 718 q 728 818 728 776 q 700 911 728 863 l 735 925 q 759 876 750 904 q 768 819 768 847 q 726 721 768 760 q 604 682 683 682 l 603 682 m 426 38 q 584 78 514 38 q 694 193 654 119 q 735 361 735 267 q 694 528 735 456 q 584 642 654 601 q 426 683 514 683 q 269 642 339 683 q 158 528 199 601 q 118 361 118 456 q 158 193 118 267 q 269 78 199 119 q 426 38 339 38 z "},"ớ":{"ha":853,"x_min":72,"x_max":781,"o":"m 603 682 q 733 552 686 636 q 781 361 781 468 q 735 172 781 256 q 608 42 689 89 q 426 -4 528 -4 q 245 42 326 -4 q 118 172 164 89 q 72 361 72 256 q 118 550 72 467 q 245 680 164 633 q 426 726 326 726 q 481 724 454 726 q 518 722 507 722 q 606 718 556 718 q 697 747 665 718 q 728 818 728 776 q 700 911 728 863 l 735 925 q 759 876 750 904 q 768 819 768 847 q 726 721 768 760 q 604 682 683 682 l 603 682 m 426 38 q 584 78 514 38 q 694 193 654 119 q 735 361 735 267 q 694 528 735 456 q 584 642 654 601 q 426 683 514 683 q 269 642 339 683 q 158 528 199 601 q 118 361 118 456 q 158 193 118 267 q 269 78 199 119 q 426 38 339 38 m 550 1000 l 625 1000 l 413 843 l 357 843 l 550 1000 z "},"ợ":{"ha":853,"x_min":72,"x_max":781,"o":"m 603 682 q 733 552 686 636 q 781 361 781 468 q 735 172 781 256 q 608 42 689 89 q 426 -4 528 -4 q 245 42 326 -4 q 118 172 164 89 q 72 361 72 256 q 118 550 72 467 q 245 680 164 633 q 426 726 326 726 q 481 724 454 726 q 518 722 507 722 q 606 718 556 718 q 697 747 665 718 q 728 818 728 776 q 700 911 728 863 l 735 925 q 759 876 750 904 q 768 819 768 847 q 726 721 768 760 q 604 682 683 682 l 603 682 m 426 38 q 584 78 514 38 q 694 193 654 119 q 735 361 735 267 q 694 528 735 456 q 584 642 654 601 q 426 683 514 683 q 269 642 339 683 q 158 528 199 601 q 118 361 118 456 q 158 193 118 267 q 269 78 199 119 q 426 38 339 38 m 426 -249 q 397 -237 410 -249 q 385 -207 385 -225 q 397 -178 385 -190 q 426 -165 410 -165 q 456 -178 443 -165 q 468 -207 468 -190 q 456 -237 468 -225 q 426 -249 443 -249 z "},"ờ":{"ha":853,"x_min":72,"x_max":781,"o":"m 603 682 q 733 552 686 636 q 781 361 781 468 q 735 172 781 256 q 608 42 689 89 q 426 -4 528 -4 q 245 42 326 -4 q 118 172 164 89 q 72 361 72 256 q 118 550 72 467 q 245 680 164 633 q 426 726 326 726 q 481 724 454 726 q 518 722 507 722 q 606 718 556 718 q 697 747 665 718 q 728 818 728 776 q 700 911 728 863 l 735 925 q 759 876 750 904 q 768 819 768 847 q 726 721 768 760 q 604 682 683 682 l 603 682 m 426 38 q 584 78 514 38 q 694 193 654 119 q 735 361 735 267 q 694 528 735 456 q 584 642 654 601 q 426 683 514 683 q 269 642 339 683 q 158 528 199 601 q 118 361 118 456 q 158 193 118 267 q 269 78 199 119 q 426 38 339 38 m 228 1000 l 303 1000 l 496 843 l 440 843 l 228 1000 z "},"ở":{"ha":853,"x_min":72,"x_max":781,"o":"m 603 682 q 733 552 686 636 q 781 361 781 468 q 735 172 781 256 q 608 42 689 89 q 426 -4 528 -4 q 245 42 326 -4 q 118 172 164 89 q 72 361 72 256 q 118 550 72 467 q 245 680 164 633 q 426 726 326 726 q 481 724 454 726 q 518 722 507 722 q 606 718 556 718 q 697 747 665 718 q 728 818 728 776 q 700 911 728 863 l 735 925 q 759 876 750 904 q 768 819 768 847 q 726 721 768 760 q 604 682 683 682 l 603 682 m 426 38 q 584 78 514 38 q 694 193 654 119 q 735 361 735 267 q 694 528 735 456 q 584 642 654 601 q 426 683 514 683 q 269 642 339 683 q 158 528 199 601 q 118 361 118 456 q 158 193 118 267 q 269 78 199 119 q 426 38 339 38 m 414 864 q 500 968 500 901 q 478 1021 500 1000 q 421 1042 456 1042 q 335 1015 375 1042 l 321 1046 q 368 1068 340 1060 q 422 1076 396 1076 q 506 1048 475 1076 q 536 972 536 1019 q 511 895 536 928 q 433 836 486 863 l 414 864 z "},"ỡ":{"ha":858,"x_min":72,"x_max":781,"o":"m 603 682 q 733 552 686 636 q 781 361 781 468 q 735 172 781 256 q 608 42 689 89 q 426 -4 528 -4 q 245 42 326 -4 q 118 172 164 89 q 72 361 72 256 q 118 550 72 467 q 245 680 164 633 q 426 726 326 726 q 481 724 454 726 q 518 722 507 722 q 606 718 556 718 q 697 747 665 718 q 728 818 728 776 q 700 911 728 863 l 735 925 q 759 876 750 904 q 768 819 768 847 q 726 721 768 760 q 604 682 683 682 l 603 682 m 426 38 q 584 78 514 38 q 694 193 654 119 q 735 361 735 267 q 694 528 735 456 q 584 642 654 601 q 426 683 514 683 q 269 642 339 683 q 158 528 199 601 q 118 361 118 456 q 158 193 118 267 q 269 78 199 119 q 426 38 339 38 m 518 857 q 468 870 489 857 q 418 910 447 883 q 379 942 396 931 q 344 953 362 953 q 292 928 311 953 q 271 861 274 904 l 237 861 q 268 954 240 919 q 342 989 296 989 q 393 976 371 989 q 443 936 414 963 q 482 904 465 915 q 517 893 499 893 q 568 917 550 893 q 589 982 587 942 l 624 982 q 593 892 621 926 q 518 857 565 857 z "},"ő":{"ha":853,"x_min":72,"x_max":781,"o":"m 426 -4 q 245 42 326 -4 q 118 172 164 89 q 72 361 72 256 q 118 550 72 467 q 245 680 164 633 q 426 726 326 726 q 608 680 528 726 q 735 550 689 633 q 781 361 781 467 q 735 172 781 256 q 608 42 689 89 q 426 -4 528 -4 m 426 38 q 584 78 514 38 q 694 193 654 119 q 735 361 735 267 q 694 528 735 456 q 584 642 654 601 q 426 683 514 683 q 269 642 339 683 q 158 528 199 601 q 118 361 118 456 q 158 193 118 267 q 269 78 199 119 q 426 38 339 38 m 450 1000 l 513 1000 l 351 843 l 300 843 l 450 1000 m 651 1000 l 714 1000 l 553 843 l 501 843 l 651 1000 z "},"ȏ":{"ha":853,"x_min":72,"x_max":781,"o":"m 426 -4 q 245 42 326 -4 q 118 172 164 89 q 72 361 72 256 q 118 550 72 467 q 245 680 164 633 q 426 726 326 726 q 608 680 528 726 q 735 550 689 633 q 781 361 781 467 q 735 172 781 256 q 608 42 689 89 q 426 -4 528 -4 m 426 38 q 584 78 514 38 q 694 193 654 119 q 735 361 735 267 q 694 528 735 456 q 584 642 654 601 q 426 683 514 683 q 269 642 339 683 q 158 528 199 601 q 118 361 118 456 q 158 193 118 267 q 269 78 199 119 q 426 38 339 38 m 236 843 q 292 961 238 917 q 426 1006 346 1006 q 561 961 507 1006 q 617 843 615 917 l 579 843 q 534 936 578 901 q 426 971 490 971 q 319 936 363 971 q 274 843 275 901 l 236 843 z "},"ō":{"ha":853,"x_min":72,"x_max":781,"o":"m 426 -4 q 245 42 326 -4 q 118 172 164 89 q 72 361 72 256 q 118 550 72 467 q 245 680 164 633 q 426 726 326 726 q 608 680 528 726 q 735 550 689 633 q 781 361 781 467 q 735 172 781 256 q 608 42 689 89 q 426 -4 528 -4 m 426 38 q 584 78 514 38 q 694 193 654 119 q 735 361 735 267 q 694 528 735 456 q 584 642 654 601 q 426 683 514 683 q 269 642 339 683 q 158 528 199 601 q 118 361 118 456 q 158 193 118 267 q 269 78 199 119 q 426 38 339 38 m 231 940 l 622 940 l 622 903 l 231 903 l 231 940 z "},"ṓ":{"ha":853,"x_min":72,"x_max":781,"o":"m 426 -4 q 245 42 326 -4 q 118 172 164 89 q 72 361 72 256 q 118 550 72 467 q 245 680 164 633 q 426 726 326 726 q 608 680 528 726 q 735 550 689 633 q 781 361 781 467 q 735 172 781 256 q 608 42 689 89 q 426 -4 528 -4 m 426 38 q 584 78 514 38 q 694 193 654 119 q 735 361 735 267 q 694 528 735 456 q 584 642 654 601 q 426 683 514 683 q 269 642 339 683 q 158 528 199 601 q 118 361 118 456 q 158 193 118 267 q 269 78 199 119 q 426 38 339 38 m 231 919 l 622 919 l 622 883 l 231 883 l 231 919 m 532 1149 l 604 1149 l 411 1007 l 358 1007 l 532 1149 z "},"ṑ":{"ha":853,"x_min":72,"x_max":781,"o":"m 426 -4 q 245 42 326 -4 q 118 172 164 89 q 72 361 72 256 q 118 550 72 467 q 245 680 164 633 q 426 726 326 726 q 608 680 528 726 q 735 550 689 633 q 781 361 781 467 q 735 172 781 256 q 608 42 689 89 q 426 -4 528 -4 m 426 38 q 584 78 514 38 q 694 193 654 119 q 735 361 735 267 q 694 528 735 456 q 584 642 654 601 q 426 683 514 683 q 269 642 339 683 q 158 528 199 601 q 118 361 118 456 q 158 193 118 267 q 269 78 199 119 q 426 38 339 38 m 231 919 l 622 919 l 622 883 l 231 883 l 231 919 m 249 1149 l 321 1149 l 494 1007 l 442 1007 l 249 1149 z "},"ǫ":{"ha":853,"x_min":72,"x_max":781,"o":"m 426 726 q 608 680 528 726 q 735 550 689 633 q 781 361 781 467 q 726 158 781 244 q 576 25 672 71 q 414 -80 456 -32 q 372 -176 372 -128 q 400 -241 372 -218 q 471 -264 428 -264 q 517 -256 494 -264 q 557 -233 540 -247 l 574 -261 q 467 -299 528 -299 q 370 -266 407 -299 q 333 -179 333 -233 q 461 -3 333 -79 q 426 -4 449 -4 q 245 42 326 -4 q 118 172 164 89 q 72 361 72 256 q 118 550 72 467 q 245 680 164 633 q 426 726 326 726 m 426 38 q 584 78 514 38 q 694 193 654 119 q 735 361 735 267 q 694 528 735 456 q 584 642 654 601 q 426 683 514 683 q 269 642 339 683 q 158 528 199 601 q 118 361 118 456 q 158 193 118 267 q 269 78 199 119 q 426 38 339 38 z "},"ø":{"ha":853,"x_min":72,"x_max":781,"o":"m 426 -4 q 245 42 326 -4 q 118 172 164 89 q 72 361 72 256 q 118 550 72 467 q 245 680 164 633 q 426 726 326 726 q 608 680 528 726 q 735 550 689 633 q 781 361 781 467 q 735 172 781 256 q 608 42 689 89 q 426 -4 528 -4 m 426 38 q 584 78 514 38 q 694 193 654 119 q 735 361 735 267 q 694 528 735 456 q 584 642 654 601 q 426 683 514 683 q 269 642 339 683 q 158 528 199 601 q 118 361 118 456 q 158 193 118 267 q 269 78 199 119 q 426 38 339 38 m 715 818 l 756 818 l 138 -97 l 97 -97 l 715 818 z "},"ǿ":{"ha":853,"x_min":72,"x_max":781,"o":"m 426 -4 q 245 42 326 -4 q 118 172 164 89 q 72 361 72 256 q 118 550 72 467 q 245 680 164 633 q 426 726 326 726 q 608 680 528 726 q 735 550 689 633 q 781 361 781 467 q 735 172 781 256 q 608 42 689 89 q 426 -4 528 -4 m 426 38 q 584 78 514 38 q 694 193 654 119 q 735 361 735 267 q 694 528 735 456 q 584 642 654 601 q 426 683 514 683 q 269 642 339 683 q 158 528 199 601 q 118 361 118 456 q 158 193 118 267 q 269 78 199 119 q 426 38 339 38 m 715 818 l 756 818 l 138 -97 l 97 -97 l 715 818 m 550 1000 l 625 1000 l 413 843 l 357 843 l 550 1000 z "},"õ":{"ha":853,"x_min":72,"x_max":781,"o":"m 426 -4 q 245 42 326 -4 q 118 172 164 89 q 72 361 72 256 q 118 550 72 467 q 245 680 164 633 q 426 726 326 726 q 608 680 528 726 q 735 550 689 633 q 781 361 781 467 q 735 172 781 256 q 608 42 689 89 q 426 -4 528 -4 m 426 38 q 584 78 514 38 q 694 193 654 119 q 735 361 735 267 q 694 528 735 456 q 584 642 654 601 q 426 683 514 683 q 269 642 339 683 q 158 528 199 601 q 118 361 118 456 q 158 193 118 267 q 269 78 199 119 q 426 38 339 38 m 515 857 q 465 870 486 857 q 414 910 443 883 q 374 942 392 931 q 339 953 357 953 q 287 928 306 953 q 265 861 268 904 l 231 861 q 262 954 233 919 q 338 989 290 989 q 388 976 367 989 q 439 936 410 963 q 478 904 461 915 q 514 893 496 893 q 566 917 547 893 q 588 982 585 942 l 622 982 q 591 892 619 926 q 515 857 563 857 z "},"ṍ":{"ha":853,"x_min":72,"x_max":781,"o":"m 426 -4 q 245 42 326 -4 q 118 172 164 89 q 72 361 72 256 q 118 550 72 467 q 245 680 164 633 q 426 726 326 726 q 608 680 528 726 q 735 550 689 633 q 781 361 781 467 q 735 172 781 256 q 608 42 689 89 q 426 -4 528 -4 m 426 38 q 584 78 514 38 q 694 193 654 119 q 735 361 735 267 q 694 528 735 456 q 584 642 654 601 q 426 683 514 683 q 269 642 339 683 q 158 528 199 601 q 118 361 118 456 q 158 193 118 267 q 269 78 199 119 q 426 38 339 38 m 514 861 q 464 872 486 861 q 415 903 442 883 q 373 928 388 921 q 340 936 358 936 q 289 917 308 936 q 268 865 269 899 l 233 865 q 264 942 235 914 q 340 971 293 971 q 388 960 367 971 q 438 929 410 950 q 480 903 465 911 q 513 896 494 896 q 565 914 544 896 q 586 965 585 932 l 619 965 q 590 890 618 918 q 514 861 561 861 m 532 1149 l 604 1149 l 411 1007 l 358 1007 l 532 1149 z "},"ṏ":{"ha":853,"x_min":72,"x_max":781,"o":"m 426 -4 q 245 42 326 -4 q 118 172 164 89 q 72 361 72 256 q 118 550 72 467 q 245 680 164 633 q 426 726 326 726 q 608 680 528 726 q 735 550 689 633 q 781 361 781 467 q 735 172 781 256 q 608 42 689 89 q 426 -4 528 -4 m 426 38 q 584 78 514 38 q 694 193 654 119 q 735 361 735 267 q 694 528 735 456 q 584 642 654 601 q 426 683 514 683 q 269 642 339 683 q 158 528 199 601 q 118 361 118 456 q 158 193 118 267 q 269 78 199 119 q 426 38 339 38 m 514 861 q 464 872 486 861 q 415 903 442 883 q 373 928 388 921 q 340 936 358 936 q 289 917 308 936 q 268 865 269 899 l 233 865 q 264 942 235 914 q 340 971 293 971 q 388 960 367 971 q 438 929 410 950 q 480 903 465 911 q 513 896 494 896 q 565 914 544 896 q 586 965 585 932 l 619 965 q 590 890 618 918 q 514 861 561 861 m 311 1050 q 281 1063 293 1050 q 269 1092 269 1075 q 281 1122 269 1110 q 311 1133 293 1133 q 340 1122 328 1133 q 353 1092 353 1110 q 340 1063 353 1075 q 311 1050 328 1050 m 543 1050 q 513 1063 525 1050 q 501 1092 501 1075 q 513 1122 501 1110 q 543 1133 525 1133 q 572 1122 560 1133 q 585 1092 585 1110 q 572 1063 585 1075 q 543 1050 560 1050 z "},"ȭ":{"ha":853,"x_min":72,"x_max":781,"o":"m 426 -4 q 245 42 326 -4 q 118 172 164 89 q 72 361 72 256 q 118 550 72 467 q 245 680 164 633 q 426 726 326 726 q 608 680 528 726 q 735 550 689 633 q 781 361 781 467 q 735 172 781 256 q 608 42 689 89 q 426 -4 528 -4 m 426 38 q 584 78 514 38 q 694 193 654 119 q 735 361 735 267 q 694 528 735 456 q 584 642 654 601 q 426 683 514 683 q 269 642 339 683 q 158 528 199 601 q 118 361 118 456 q 158 193 118 267 q 269 78 199 119 q 426 38 339 38 m 514 861 q 464 872 486 861 q 415 903 442 883 q 373 928 388 921 q 340 936 358 936 q 289 917 308 936 q 268 865 269 899 l 233 865 q 264 942 235 914 q 340 971 293 971 q 388 960 367 971 q 438 929 410 950 q 480 903 465 911 q 513 896 494 896 q 565 914 544 896 q 586 965 585 932 l 619 965 q 590 890 618 918 q 514 861 561 861 m 231 1083 l 622 1083 l 622 1047 l 231 1047 l 231 1083 z "}}}
